<svg width="50" height="50" viewBox="0 0 50 50" fill="none" xmlns="http://www.w3.org/2000/svg">
<path d="M50 25C50 29.9445 48.5338 34.778 45.7867 38.8892C43.0397 43.0005 39.1352 46.2048 34.5671 48.097C29.9989 49.9892 24.9723 50.4842 20.1227 49.5196C15.2732 48.555 10.8187 46.174 7.32234 42.6777C3.82603 39.1813 1.44501 34.7268 0.480379 29.8772C-0.484251 25.0277 0.0108321 20.0011 1.90302 15.4329C3.79521 10.8648 6.99952 6.96029 11.1108 4.21326C15.222 1.46622 20.0555 0 25 0C31.6304 0 37.9893 2.63392 42.6777 7.32233C47.3661 12.0107 50 18.3696 50 25Z" fill="#631AB8"/>
<path d="M25.5 24.5002H18" stroke="white" stroke-width="3" stroke-linecap="round"/>
<path d="M25.5 32V24.5M25.5 24.5V17M25.5 24.5H33" stroke="white" stroke-width="3" stroke-linecap="round"/>
</svg>
