<svg width="27" height="27" viewBox="0 0 27 27" fill="none" xmlns="http://www.w3.org/2000/svg">
<path d="M26.25 13.5C26.25 16.0217 25.5022 18.4868 24.1012 20.5835C22.7002 22.6802 20.709 24.3144 18.3792 25.2795C16.0495 26.2445 13.4859 26.497 11.0126 26.005C8.53934 25.513 6.26751 24.2987 4.48439 22.5156C2.70127 20.7325 1.48696 18.4607 0.994994 15.9874C0.503032 13.5141 0.755525 10.9505 1.72054 8.62078C2.68556 6.29103 4.31976 4.29975 6.41648 2.89876C8.51321 1.49777 10.9783 0.75 13.5 0.75C16.8815 0.75 20.1245 2.0933 22.5156 4.48439C24.9067 6.87548 26.25 10.1185 26.25 13.5Z" fill="#631AB8" stroke="white" stroke-width="1.5"/>
<path d="M13.5676 13.5005H7.75781" stroke="white" stroke-width="1.5" stroke-linecap="round"/>
<path d="M13.5391 19.2863V13.5006M13.5391 13.5006V7.71484M13.5391 13.5006H19.3495" stroke="white" stroke-width="1.5" stroke-linecap="round"/>
</svg>
