<svg xmlns="http://www.w3.org/2000/svg" width="16" height="16" viewBox="0 0 86.676 47.023">
  <g id="Fill" transform="translate(-1.39 -23.43)">
    <path id="Path_107" data-name="Path 107" d="M87.807,49.075a9.751,9.751,0,0,0-5.283-8.184l-5.582-2.866a5.133,5.133,0,0,1-1.676-1.367L68.537,28.21a12.589,12.589,0,0,0-9.912-4.78H37.2a12.646,12.646,0,0,0-9.754,4.586l-6,7.24a7.072,7.072,0,0,1-3.81,2.39L6.893,40.309a7.238,7.238,0,0,0-5.5,7.038v9.33A8.19,8.19,0,0,0,9.574,64.87h.062l5.574-.035,18.035-.123,22.409-.141,18.282-.123L78.4,64.42a9.736,9.736,0,0,0,9.657-10.2ZM24.2,64.491a4.043,4.043,0,1,1,4.048-4.048A4.04,4.04,0,0,1,24.2,64.491Zm40.567,0a4.043,4.043,0,1,1,4.048-4.048A4.04,4.04,0,0,1,64.763,64.491ZM79,55.319a.879.879,0,0,1-.661.282l-4.8.035-17.6.106-22.832.15-17.867.115-5.027.035v-7.47l9.56-2.363a16.07,16.07,0,0,0,8.475-5.327l6-7.24A3.822,3.822,0,0,1,37.2,32.249H58.625A3.856,3.856,0,0,1,61.641,33.7l6.72,8.449a13.817,13.817,0,0,0,4.559,3.73L78.5,48.74a.9.9,0,0,1,.494.767l.247,5.133A.9.9,0,0,1,79,55.319Z" fill="#000"/>
    <path id="Path_108" data-name="Path 108" d="M34.818,59.51a10,10,0,0,0-17.867.115,10,10,0,0,0-.026,8.828,10,10,0,0,0,18.035-.123,9.95,9.95,0,0,0-.141-8.819Zm-4.859,4.551a4.043,4.043,0,1,1-4.048-4.039A4.042,4.042,0,0,1,29.959,64.061Z" transform="translate(-1.715 -3.618)"/>
    <path id="Path_109" data-name="Path 109" d="M80.686,59.254A10,10,0,0,0,61.91,64.061a9.9,9.9,0,0,0,.891,4.127,10,10,0,1,0,17.885-8.934Zm-4.727,4.806a4.043,4.043,0,1,1-4.048-4.039A4.042,4.042,0,0,1,75.959,64.061Z" transform="translate(-7.148 -3.618)" fill="#000"/>
    <path id="Path_110" data-name="Path 110" d="M34.818,59.51a10,10,0,0,0-17.867.115,10,10,0,0,0-.026,8.828,10,10,0,0,0,18.035-.123,9.95,9.95,0,0,0-.141-8.819Zm-4.859,4.551a4.043,4.043,0,1,1-4.048-4.039A4.042,4.042,0,0,1,29.959,64.061Z" transform="translate(-1.715 -3.618)" fill="#000"/>
  </g>
</svg>
