<svg width="13" height="7" viewBox="0 0 13 7" fill="none" xmlns="http://www.w3.org/2000/svg">
<path fill-rule="evenodd" clip-rule="evenodd" d="M12.1351 6.5753C12.3753 6.33046 12.3753 5.93449 12.1351 5.69026L7.04672 0.513632C6.93456 0.397755 6.79957 0.305486 6.64995 0.242437C6.50033 0.179388 6.33921 0.146874 6.17639 0.146874C6.01357 0.146874 5.85246 0.179388 5.70284 0.242437C5.55322 0.305486 5.41822 0.397755 5.30606 0.513632L0.180106 5.72774C0.0655483 5.84608 0.0011591 6.00279 1.54972e-05 6.16604C-0.00112811 6.3293 0.0610596 6.48687 0.173949 6.60674C0.229697 6.66612 0.297269 6.71363 0.372478 6.74634C0.447688 6.77904 0.528935 6.79623 0.611188 6.79686C0.693441 6.79748 0.774948 6.78152 0.850663 6.74996C0.926378 6.7184 0.994689 6.67192 1.05136 6.61339L5.74138 1.84119C5.79746 1.7832 5.86498 1.73703 5.93982 1.70548C6.01466 1.67392 6.09525 1.65765 6.1767 1.65765C6.25815 1.65765 6.33874 1.67392 6.41358 1.70548C6.48842 1.73703 6.55593 1.7832 6.61202 1.84119L11.2651 6.5753C11.3211 6.63327 11.3886 6.67943 11.4634 6.71098C11.5382 6.74253 11.6187 6.75879 11.7001 6.75879C11.7815 6.75879 11.862 6.74253 11.9368 6.71098C12.0116 6.67943 12.0791 6.63327 12.1351 6.5753Z" fill="black"/>
</svg>
