<svg width="75" height="75" viewBox="0 0 75 75" fill="none" xmlns="http://www.w3.org/2000/svg">
<path d="M3.40909 43.4091H17.0455C17.5001 43.4091 17.6846 43.5497 17.7493 43.6144C17.8139 43.679 17.9545 43.8636 17.9545 44.3182V71.5909C17.9545 72.0455 17.8139 72.2301 17.7493 72.2947C17.6846 72.3594 17.5001 72.5 17.0455 72.5H3.40909C2.95448 72.5 2.76991 72.3594 2.70527 72.2947C2.64062 72.2301 2.5 72.0455 2.5 71.5909V44.3182C2.5 43.8636 2.64062 43.679 2.70527 43.6144C2.76991 43.5497 2.95448 43.4091 3.40909 43.4091ZM57.9545 29.7727H71.5909C72.0455 29.7727 72.2301 29.9134 72.2947 29.978C72.3594 30.0426 72.5 30.2272 72.5 30.6818V71.5909C72.5 72.0455 72.3594 72.2301 72.2947 72.2947C72.2301 72.3594 72.0455 72.5 71.5909 72.5H57.9545C57.4999 72.5 57.3154 72.3594 57.2507 72.2947C57.1861 72.2301 57.0455 72.0455 57.0455 71.5909V30.6818C57.0455 30.2272 57.1861 30.0426 57.2507 29.978C57.3154 29.9134 57.4999 29.7727 57.9545 29.7727ZM30.6818 2.5H44.3182C44.7728 2.5 44.9574 2.64062 45.022 2.70527C45.0866 2.76991 45.2273 2.95448 45.2273 3.40909V71.5909C45.2273 72.0455 45.0866 72.2301 45.022 72.2947C44.9574 72.3594 44.7728 72.5 44.3182 72.5H30.6818C30.2272 72.5 30.0426 72.3594 29.978 72.2947C29.9134 72.2301 29.7727 72.0455 29.7727 71.5909V3.40909C29.7727 2.95448 29.9134 2.76991 29.978 2.70527C30.0426 2.64062 30.2272 2.5 30.6818 2.5Z" stroke="black" stroke-opacity="0.5" stroke-width="5"/>
</svg>
