<svg width="17" height="19" viewBox="0 0 17 19" fill="none" xmlns="http://www.w3.org/2000/svg">
<mask id="path-1-inside-1_72_1781" fill="white">
<path d="M16.6426 13.1181C16.5692 13.0332 16.4971 12.9484 16.4263 12.8666C15.4532 11.738 14.8644 11.0569 14.8644 7.8621C14.8644 6.20808 14.4517 4.85094 13.6383 3.83308C13.0385 3.08114 12.2277 2.51071 11.159 2.08915C11.1452 2.08182 11.133 2.0722 11.1227 2.06074C10.7383 0.826584 9.68645 0 8.50011 0C7.31377 0 6.26234 0.826585 5.87795 2.05946C5.86769 2.0705 5.85558 2.07982 5.84212 2.08703C3.34823 3.07138 2.13623 4.95993 2.13623 7.86083C2.13623 11.0569 1.54837 11.738 0.574347 12.8653C0.503574 12.9471 0.431473 13.0303 0.358045 13.1168C0.168372 13.3361 0.0481989 13.6029 0.0117471 13.8857C-0.0247047 14.1684 0.024091 14.4553 0.152359 14.7123C0.42528 15.2636 1.00695 15.6059 1.6709 15.6059H15.3342C15.995 15.6059 16.5727 15.264 16.8465 14.7152C16.9754 14.4582 17.0246 14.1711 16.9885 13.888C16.9523 13.6049 16.8323 13.3377 16.6426 13.1181ZM8.50011 19C9.1393 18.9995 9.76643 18.8331 10.315 18.5186C10.8636 18.204 11.3131 17.7529 11.6159 17.2132C11.6302 17.1874 11.6372 17.1584 11.6364 17.1292C11.6355 17.0999 11.6268 17.0714 11.611 17.0463C11.5953 17.0213 11.573 17.0005 11.5464 16.9862C11.5199 16.9718 11.4898 16.9643 11.4593 16.9643L8.5 15.8333L5.54177 16.9643C5.51122 16.9642 5.48116 16.9717 5.45452 16.986C5.42788 17.0004 5.40556 17.0211 5.38975 17.0461C5.37394 17.0712 5.36517 17.0998 5.36429 17.1291C5.36341 17.1583 5.37046 17.1873 5.38474 17.2132C5.68754 17.7529 6.137 18.2039 6.68548 18.5185C7.23395 18.833 7.86099 18.9994 8.50011 19Z"/>
</mask>
<path d="M16.6426 13.1181L17.5748 12.3131L17.5738 12.3119L16.6426 13.1181ZM16.4263 12.8666L15.4936 13.6709L15.4946 13.6721L16.4263 12.8666ZM13.6383 3.83308L12.6754 4.60111L12.6761 4.602L13.6383 3.83308ZM11.159 2.08915L10.5794 3.17588L10.6415 3.20903L10.707 3.23487L11.159 2.08915ZM11.1227 2.06074L9.94679 2.42699L10.0262 2.68208L10.2042 2.88131L11.1227 2.06074ZM5.87795 2.05946L6.78011 2.89794L6.97051 2.69307L7.05376 2.42606L5.87795 2.05946ZM5.84212 2.08703L6.2943 3.23266L6.36078 3.20642L6.42377 3.17267L5.84212 2.08703ZM0.574347 12.8653L1.50601 13.6709L1.50629 13.6705L0.574347 12.8653ZM0.358045 13.1168L1.28966 13.9225L1.29708 13.9137L0.358045 13.1168ZM0.152359 14.7123L1.25617 14.1659L1.25436 14.1623L0.152359 14.7123ZM16.8465 14.7152L15.7454 14.1634L15.7444 14.1654L16.8465 14.7152ZM8.50011 19L8.49901 20.2316L8.50107 20.2316L8.50011 19ZM11.6159 17.2132L12.6901 17.8159L12.6944 17.8081L11.6159 17.2132ZM11.4593 16.9643L11.0197 18.1148L11.2326 18.1961L11.4605 18.1959L11.4593 16.9643ZM5.54177 16.9643L5.53763 18.1959L5.76718 18.1967L5.98159 18.1147L5.54177 16.9643ZM5.38474 17.2132L4.30626 17.8081L4.31064 17.8159L5.38474 17.2132ZM8.5 15.8333L8.93967 14.6828L8.49992 14.5148L8.06018 14.6829L8.5 15.8333ZM17.5738 12.3119C17.4701 12.1921 17.4685 12.1888 17.358 12.061L15.4946 13.6721C15.5257 13.708 15.6683 13.8744 15.7114 13.9242L17.5738 12.3119ZM17.3591 12.0623C16.864 11.4881 16.6147 11.1853 16.4324 10.7034C16.2413 10.1981 16.0961 9.40323 16.0961 7.8621H13.6328C13.6328 9.51576 13.7819 10.6588 14.1285 11.5749C14.4839 12.5145 15.0155 13.1164 15.4936 13.6709L17.3591 12.0623ZM16.0961 7.8621C16.0961 6.00558 15.631 4.35368 14.6004 3.06416L12.6761 4.602C13.2725 5.34819 13.6328 6.41058 13.6328 7.8621H16.0961ZM14.6011 3.06505C13.8431 2.11476 12.8411 1.42869 11.6109 0.943433L10.707 3.23487C11.6142 3.59274 12.2339 4.04752 12.6754 4.60111L14.6011 3.06505ZM11.7386 1.00242C11.8507 1.06223 11.9536 1.14214 12.0412 1.24016L10.2042 2.88131C10.3123 3.00225 10.4397 3.1014 10.5794 3.17588L11.7386 1.00242ZM12.2986 1.69448C11.7735 0.00837262 10.2886 -1.23164 8.50011 -1.23164V1.23164C9.08433 1.23164 9.70317 1.6448 9.94679 2.42699L12.2986 1.69448ZM8.50011 -1.23164C6.71169 -1.23164 5.22735 0.00829071 4.70213 1.69287L7.05376 2.42606C7.29732 1.64488 7.91585 1.23164 8.50011 1.23164V-1.23164ZM4.97578 1.22099C5.05925 1.13119 5.15582 1.05746 5.26047 1.00139L6.42377 3.17267C6.55534 3.10218 6.67613 3.00982 6.78011 2.89794L4.97578 1.22099ZM5.38993 0.941405C3.94862 1.5103 2.79627 2.37652 2.01745 3.58997C1.24376 4.79543 0.904595 6.24068 0.904595 7.86083H3.36787C3.36787 6.58008 3.63471 5.63061 4.09048 4.92049C4.54114 4.21834 5.24173 3.64812 6.2943 3.23266L5.38993 0.941405ZM0.904595 7.86083C0.904595 9.40286 0.75954 10.198 0.568511 10.7033C0.386516 11.1846 0.137463 11.4871 -0.357594 12.06L1.50629 13.6705C1.98525 13.1162 2.51714 12.5145 2.87259 11.5744C3.21899 10.6583 3.36787 9.51486 3.36787 7.86083H0.904595ZM-0.357319 12.0597C-0.426268 12.1395 -0.502967 12.2279 -0.58099 12.3198L1.29708 13.9137C1.36591 13.8326 1.43342 13.7548 1.50601 13.6709L-0.357319 12.0597ZM-0.573532 12.3111C-0.918526 12.71 -1.14185 13.2013 -1.20978 13.7282L1.23328 14.0432C1.23825 14.0046 1.25527 13.9622 1.28962 13.9225L-0.573532 12.3111ZM-1.20978 13.7282C-1.27774 14.2554 -1.18622 14.7883 -0.949644 15.2623L1.25436 14.1623C1.2344 14.1223 1.22833 14.0815 1.23328 14.0432L-1.20978 13.7282ZM-0.951443 15.2587C-0.450845 16.27 0.585339 16.8375 1.6709 16.8375V14.3742C1.42856 14.3742 1.30141 14.2573 1.25616 14.1659L-0.951443 15.2587ZM1.6709 16.8375H15.3342V14.3742H1.6709V16.8375ZM15.3342 16.8375C16.4203 16.8375 17.4484 16.2677 17.9486 15.2651L15.7444 14.1654C15.6971 14.2604 15.5698 14.3742 15.3342 14.3742V16.8375ZM17.9476 15.2671C18.1852 14.793 18.2776 14.2597 18.2102 13.732L15.7668 14.044C15.7717 14.0825 15.7655 14.1233 15.7454 14.1634L17.9476 15.2671ZM18.2102 13.732C18.1429 13.2046 17.9198 12.7126 17.5748 12.3131L15.7104 13.923C15.7448 13.9628 15.7618 14.0053 15.7668 14.044L18.2102 13.732ZM8.50107 20.2316C9.35247 20.231 10.1908 20.0096 10.9277 19.587L9.7023 17.4501C9.34205 17.6567 8.92613 17.768 8.49916 17.7684L8.50107 20.2316ZM10.9277 19.587C11.6649 19.1643 12.2758 18.5541 12.69 17.8159L10.5418 16.6106C10.3504 16.9518 10.0622 17.2437 9.7023 17.4501L10.9277 19.587ZM12.6944 17.8081C12.814 17.5912 12.8749 17.3447 12.8675 17.0931L10.4053 17.1653C10.3996 16.9722 10.4464 16.7835 10.5375 16.6184L12.6944 17.8081ZM12.8675 17.0931C12.8601 16.8415 12.7849 16.5994 12.6536 16.3906L10.5685 17.7021C10.4686 17.5434 10.4109 17.3583 10.4053 17.1653L12.8675 17.0931ZM12.6536 16.3906C12.5225 16.1822 12.3413 16.0158 12.1323 15.9028L10.9606 18.0695C10.8047 17.9853 10.668 17.8604 10.5685 17.7021L12.6536 16.3906ZM12.1323 15.9028C11.9236 15.7899 11.6915 15.7324 11.4581 15.7326L11.4605 18.1959C11.2882 18.1961 11.1161 18.1537 10.9606 18.0695L12.1323 15.9028ZM5.54592 15.7327C5.31221 15.7319 5.07976 15.789 4.87062 15.9016L6.03841 18.0704C5.88256 18.1544 5.71023 18.1965 5.53763 18.1959L5.54592 15.7327ZM4.87062 15.9016C4.6612 16.0143 4.47954 16.1806 4.34803 16.3891L6.43147 17.7032C6.33159 17.8616 6.19455 17.9864 6.03841 18.0704L4.87062 15.9016ZM4.34803 16.3891C4.21628 16.5979 4.14075 16.8403 4.1332 17.0922L6.59537 17.1659C6.58958 17.3593 6.5316 17.5445 6.43147 17.7032L4.34803 16.3891ZM4.1332 17.0922C4.12565 17.3441 4.18656 17.591 4.30629 17.8081L6.4632 16.6184C6.55436 16.7836 6.60117 16.9726 6.59537 17.1659L4.1332 17.0922ZM4.31064 17.8159C4.72479 18.554 5.33564 19.1641 6.07272 19.5869L7.29823 17.4501C6.93837 17.2437 6.65029 16.9517 6.45885 16.6106L4.31064 17.8159ZM6.07272 19.5869C6.80947 20.0094 7.6477 20.2309 8.49901 20.2316L8.50121 17.7684C8.07429 17.768 7.65843 17.6567 7.29823 17.4501L6.07272 19.5869ZM11.899 15.8138L8.93967 14.6828L8.06033 16.9838L11.0197 18.1148L11.899 15.8138ZM8.06018 14.6829L5.10195 15.8139L5.98159 18.1147L8.93982 16.9838L8.06018 14.6829Z" fill="black" mask="url(#path-1-inside-1_72_1781)"/>
</svg>
