<svg width="7" height="13" viewBox="0 0 7 13" fill="none" xmlns="http://www.w3.org/2000/svg">
<path fill-rule="evenodd" clip-rule="evenodd" d="M6.76676 0.189086C6.50904 -0.0636873 6.09223 -0.0636873 5.83514 0.189086L0.38606 5.54529C0.264085 5.66335 0.16696 5.80545 0.100592 5.96295C0.0342245 6.12044 0 6.29004 0 6.46143C0 6.63281 0.0342245 6.80241 0.100592 6.95991C0.16696 7.1174 0.264085 7.2595 0.38606 7.37757L5.8746 12.7733C5.99916 12.8939 6.16412 12.9617 6.33597 12.9629C6.50782 12.9641 6.67367 12.8986 6.79985 12.7798C6.86236 12.7211 6.91238 12.65 6.9468 12.5708C6.98122 12.4916 6.99933 12.4061 6.99998 12.3195C7.00064 12.233 6.98384 12.1472 6.95062 12.0675C6.9174 11.9878 6.86847 11.9158 6.80685 11.8562L1.78349 6.91934C1.72245 6.8603 1.67385 6.78923 1.64063 6.71045C1.60742 6.63167 1.59029 6.54684 1.59029 6.4611C1.59029 6.37537 1.60742 6.29053 1.64063 6.21176C1.67385 6.13298 1.72245 6.06191 1.78349 6.00287L6.76676 1.1049C6.82778 1.04592 6.87638 0.974908 6.90958 0.896185C6.94279 0.817461 6.95991 0.732677 6.95991 0.646996C6.95991 0.561314 6.94279 0.476528 6.90958 0.397805C6.87638 0.319081 6.82778 0.248066 6.76676 0.189086Z" fill="black"/>
</svg>
