<svg width="7" height="13" viewBox="0 0 7 13" fill="none" xmlns="http://www.w3.org/2000/svg">
<path fill-rule="evenodd" clip-rule="evenodd" d="M0.233236 12.7738C0.490958 13.0266 0.907769 13.0266 1.16486 12.7738L6.61394 7.4176C6.73592 7.29954 6.83304 7.15744 6.89941 6.99994C6.96578 6.84245 7 6.67285 7 6.50146C7 6.33008 6.96578 6.16048 6.89941 6.00298C6.83304 5.84549 6.73592 5.70339 6.61394 5.58532L1.1254 0.189586C1.00084 0.0689982 0.835881 0.00122011 0.664032 1.63129e-05C0.492182 -0.00118748 0.326326 0.0642733 0.200145 0.183104C0.137637 0.241787 0.0876231 0.312914 0.0531991 0.392082C0.0187752 0.471251 0.000674706 0.556774 1.85053e-05 0.643356C-0.000637695 0.729938 0.0161644 0.815735 0.0493842 0.895435C0.0826041 0.975135 0.131534 1.04704 0.193145 1.1067L5.21651 6.04355C5.27755 6.10259 5.32615 6.17366 5.35937 6.25244C5.39258 6.33122 5.40971 6.41605 5.40971 6.50179C5.40971 6.58752 5.39258 6.67236 5.35937 6.75113C5.32615 6.82991 5.27755 6.90098 5.21651 6.96002L0.233236 11.858C0.172216 11.917 0.123623 11.988 0.0904164 12.0667C0.05721 12.1454 0.0400853 12.2302 0.0400853 12.3159C0.0400853 12.4016 0.05721 12.4864 0.0904164 12.5651C0.123623 12.6438 0.172216 12.7148 0.233236 12.7738Z" fill="black"/>
</svg>
