<svg width="44" height="44" viewBox="0 0 44 44" fill="none" xmlns="http://www.w3.org/2000/svg">
<path opacity="0.7" d="M36.1429 0C40.3086 0 43.7173 3.24198 43.9833 7.34053L44 7.85714V36.1429C44 40.3086 40.758 43.7173 36.6595 43.9833L36.1429 44H7.85714C3.69134 44 0.282736 40.758 0.0167127 36.6595L0 36.1429V7.85714C0 3.69134 3.24198 0.282736 7.34053 0.0167127L7.85714 0H36.1429ZM40.8571 12.5714H3.14286V36.1429C3.14286 38.5933 5.0125 40.6071 7.40312 40.8356L7.85714 40.8571H36.1429C38.5933 40.8571 40.6071 38.9874 40.8356 36.5969L40.8571 36.1429V12.5714ZM12.5714 28.2857C14.3072 28.2857 15.7143 29.6928 15.7143 31.4286C15.7143 33.1644 14.3072 34.5714 12.5714 34.5714C10.8357 34.5714 9.42857 33.1644 9.42857 31.4286C9.42857 29.6928 10.8357 28.2857 12.5714 28.2857ZM22 28.2857C23.7358 28.2857 25.1429 29.6928 25.1429 31.4286C25.1429 33.1644 23.7358 34.5714 22 34.5714C20.2642 34.5714 18.8571 33.1644 18.8571 31.4286C18.8571 29.6928 20.2642 28.2857 22 28.2857ZM12.5714 18.8571C14.3072 18.8571 15.7143 20.2642 15.7143 22C15.7143 23.7358 14.3072 25.1429 12.5714 25.1429C10.8357 25.1429 9.42857 23.7358 9.42857 22C9.42857 20.2642 10.8357 18.8571 12.5714 18.8571ZM22 18.8571C23.7358 18.8571 25.1429 20.2642 25.1429 22C25.1429 23.7358 23.7358 25.1429 22 25.1429C20.2642 25.1429 18.8571 23.7358 18.8571 22C18.8571 20.2642 20.2642 18.8571 22 18.8571ZM31.4286 18.8571C33.1644 18.8571 34.5714 20.2642 34.5714 22C34.5714 23.7358 33.1644 25.1429 31.4286 25.1429C29.6928 25.1429 28.2857 23.7358 28.2857 22C28.2857 20.2642 29.6928 18.8571 31.4286 18.8571ZM36.1429 3.14286H7.85714C5.40666 3.14286 3.39287 5.0125 3.16444 7.40312L3.14286 7.85714V9.42857H40.8571V7.85714C40.8571 5.40666 38.9874 3.39287 36.5969 3.16444L36.1429 3.14286Z" fill="black" fill-opacity="0.8"/>
</svg>
