<svg width="278" height="58" viewBox="0 0 278 58" fill="none" xmlns="http://www.w3.org/2000/svg">
<path d="M0.611125 19.3203V2.31631H4.01713L7.03313 10.6363C7.22379 11.1736 7.40579 11.7283 7.57913 12.3003C7.76979 12.855 7.95179 13.4096 8.12513 13.9643H8.22913C8.41979 13.4096 8.60179 12.855 8.77513 12.3003C8.94846 11.7283 9.12179 11.1736 9.29513 10.6363L12.2331 2.31631H15.6651V19.3203H12.8831V11.5463C12.8831 11.009 12.9005 10.4283 12.9351 9.80431C12.9871 9.16298 13.0391 8.52165 13.0911 7.88031C13.1605 7.23898 13.2211 6.65831 13.2731 6.13831H13.1691L11.7911 10.0903L9.00913 17.7343H7.21513L4.40713 10.0903L3.05513 6.13831H2.95113C3.00313 6.65831 3.05513 7.23898 3.10713 7.88031C3.17646 8.52165 3.22846 9.16298 3.26313 9.80431C3.31513 10.4283 3.34113 11.009 3.34113 11.5463V19.3203H0.611125ZM22.8182 19.6323C21.7088 19.6323 20.7988 19.2856 20.0882 18.5923C19.3948 17.899 19.0482 16.9976 19.0482 15.8883C19.0482 14.519 19.6462 13.4616 20.8422 12.7163C22.0382 11.9536 23.9448 11.4336 26.5622 11.1563C26.5448 10.4803 26.3628 9.89965 26.0162 9.41431C25.6868 8.91165 25.0888 8.66031 24.2222 8.66031C23.5982 8.66031 22.9828 8.78165 22.3762 9.02431C21.7868 9.26698 21.2062 9.56165 20.6342 9.90831L19.5422 7.90631C20.2528 7.45565 21.0502 7.06565 21.9342 6.73631C22.8355 6.40698 23.7888 6.24231 24.7942 6.24231C26.3888 6.24231 27.5762 6.71898 28.3562 7.67231C29.1535 8.60831 29.5522 9.96898 29.5522 11.7543V19.3203H27.0822L26.8742 17.9163H26.7702C26.1982 18.4016 25.5828 18.809 24.9242 19.1383C24.2828 19.4676 23.5808 19.6323 22.8182 19.6323ZM23.7802 17.2923C24.3002 17.2923 24.7682 17.171 25.1842 16.9283C25.6175 16.6683 26.0768 16.3216 26.5622 15.8883V13.0283C24.8288 13.2536 23.6242 13.5916 22.9482 14.0423C22.2722 14.4756 21.9342 15.013 21.9342 15.6543C21.9342 16.2263 22.1075 16.6423 22.4542 16.9023C22.8008 17.1623 23.2428 17.2923 23.7802 17.2923ZM33.1304 19.3203V6.55431H35.6004L35.8084 8.27031H35.9124C36.4844 7.71565 37.1084 7.23898 37.7844 6.84031C38.4604 6.44165 39.2318 6.24231 40.0984 6.24231C41.4678 6.24231 42.4644 6.68431 43.0884 7.56831C43.7124 8.45231 44.0244 9.70031 44.0244 11.3123V19.3203H41.0344V11.7023C41.0344 10.645 40.8784 9.89965 40.5664 9.46631C40.2544 9.03298 39.7431 8.81631 39.0324 8.81631C38.4778 8.81631 37.9838 8.95498 37.5504 9.23231C37.1344 9.49231 36.6578 9.88231 36.1204 10.4023V19.3203H33.1304ZM50.7733 19.6323C49.6639 19.6323 48.7539 19.2856 48.0433 18.5923C47.3499 17.899 47.0033 16.9976 47.0033 15.8883C47.0033 14.519 47.6013 13.4616 48.7973 12.7163C49.9933 11.9536 51.8999 11.4336 54.5173 11.1563C54.4999 10.4803 54.3179 9.89965 53.9713 9.41431C53.6419 8.91165 53.0439 8.66031 52.1773 8.66031C51.5533 8.66031 50.9379 8.78165 50.3313 9.02431C49.7419 9.26698 49.1613 9.56165 48.5893 9.90831L47.4972 7.90631C48.2079 7.45565 49.0053 7.06565 49.8893 6.73631C50.7906 6.40698 51.7439 6.24231 52.7493 6.24231C54.3439 6.24231 55.5313 6.71898 56.3113 7.67231C57.1086 8.60831 57.5073 9.96898 57.5073 11.7543V19.3203H55.0373L54.8293 17.9163H54.7253C54.1533 18.4016 53.5379 18.809 52.8793 19.1383C52.2379 19.4676 51.5359 19.6323 50.7733 19.6323ZM51.7353 17.2923C52.2553 17.2923 52.7233 17.171 53.1393 16.9283C53.5726 16.6683 54.0319 16.3216 54.5173 15.8883V13.0283C52.7839 13.2536 51.5793 13.5916 50.9033 14.0423C50.2273 14.4756 49.8893 15.013 49.8893 15.6543C49.8893 16.2263 50.0626 16.6423 50.4093 16.9023C50.7559 17.1623 51.1979 17.2923 51.7353 17.2923ZM65.5315 24.9623C64.5262 24.9623 63.6162 24.841 62.8015 24.5983C62.0042 24.3556 61.3715 23.983 60.9035 23.4803C60.4528 22.995 60.2275 22.3796 60.2275 21.6343C60.2275 20.577 60.8342 19.667 62.0475 18.9043V18.8003C61.7182 18.5923 61.4408 18.315 61.2155 17.9683C61.0075 17.6216 60.9035 17.1883 60.9035 16.6683C60.9035 16.1656 61.0422 15.715 61.3195 15.3163C61.6142 14.9003 61.9435 14.5623 62.3075 14.3023V14.1983C61.8742 13.869 61.4842 13.4096 61.1375 12.8203C60.8082 12.231 60.6435 11.5636 60.6435 10.8183C60.6435 9.83031 60.8775 8.99831 61.3455 8.32231C61.8135 7.64631 62.4288 7.13498 63.1915 6.78831C63.9715 6.42431 64.8035 6.24231 65.6875 6.24231C66.0342 6.24231 66.3635 6.27698 66.6755 6.34631C67.0048 6.39831 67.2995 6.46765 67.5595 6.55431H72.1355V8.76431H69.7955C70.0035 9.00698 70.1768 9.31898 70.3155 9.70031C70.4542 10.0643 70.5235 10.4716 70.5235 10.9223C70.5235 11.8583 70.3068 12.6556 69.8735 13.3143C69.4402 13.9556 68.8595 14.441 68.1315 14.7703C67.4035 15.0996 66.5888 15.2643 65.6875 15.2643C65.4102 15.2643 65.1242 15.2383 64.8295 15.1863C64.5348 15.1343 64.2402 15.0476 63.9455 14.9263C63.7548 15.0996 63.5988 15.273 63.4775 15.4463C63.3735 15.6196 63.3215 15.8536 63.3215 16.1483C63.3215 16.5123 63.4688 16.7983 63.7635 17.0063C64.0755 17.2143 64.6215 17.3183 65.4015 17.3183H67.6635C69.2062 17.3183 70.3675 17.5696 71.1475 18.0723C71.9448 18.5576 72.3435 19.355 72.3435 20.4643C72.3435 21.2963 72.0662 22.0503 71.5115 22.7263C70.9568 23.4196 70.1682 23.9656 69.1455 24.3643C68.1228 24.763 66.9182 24.9623 65.5315 24.9623ZM65.6875 13.3923C66.2942 13.3923 66.8142 13.167 67.2475 12.7163C67.6808 12.2656 67.8975 11.633 67.8975 10.8183C67.8975 10.021 67.6808 9.40565 67.2475 8.97231C66.8315 8.52165 66.3115 8.29631 65.6875 8.29631C65.0635 8.29631 64.5348 8.51298 64.1015 8.94631C63.6682 9.37965 63.4515 10.0036 63.4515 10.8183C63.4515 11.633 63.6682 12.2656 64.1015 12.7163C64.5348 13.167 65.0635 13.3923 65.6875 13.3923ZM65.9995 23.0123C67.0222 23.0123 67.8542 22.8043 68.4955 22.3883C69.1368 21.9723 69.4575 21.4956 69.4575 20.9583C69.4575 20.4556 69.2582 20.1176 68.8595 19.9443C68.4782 19.771 67.9235 19.6843 67.1955 19.6843H65.4535C64.7602 19.6843 64.1795 19.6236 63.7115 19.5023C63.0528 20.005 62.7235 20.5683 62.7235 21.1923C62.7235 21.7643 63.0182 22.2063 63.6075 22.5183C64.1968 22.8476 64.9942 23.0123 65.9995 23.0123ZM79.6471 19.6323C78.4684 19.6323 77.4024 19.3723 76.4491 18.8523C75.4957 18.315 74.7417 17.5523 74.1871 16.5643C73.6324 15.559 73.3551 14.3543 73.3551 12.9503C73.3551 11.5636 73.6324 10.3676 74.1871 9.36231C74.7591 8.35698 75.4957 7.58565 76.3971 7.04831C77.2984 6.51098 78.2431 6.24231 79.2311 6.24231C80.3924 6.24231 81.3631 6.50231 82.1431 7.02231C82.9231 7.52498 83.5124 8.23564 83.9111 9.15431C84.3097 10.0556 84.5091 11.1043 84.5091 12.3003C84.5091 12.9243 84.4657 13.4096 84.3791 13.7563H76.2671C76.4057 14.883 76.8131 15.7583 77.4891 16.3823C78.1651 17.0063 79.0144 17.3183 80.0371 17.3183C80.5917 17.3183 81.1031 17.2403 81.5711 17.0843C82.0564 16.911 82.5331 16.677 83.0011 16.3823L84.0151 18.2543C83.4084 18.653 82.7324 18.9823 81.9871 19.2423C81.2417 19.5023 80.4617 19.6323 79.6471 19.6323ZM76.2411 11.7283H81.9091C81.9091 10.7403 81.6924 9.96898 81.2591 9.41431C80.8257 8.84231 80.1757 8.55631 79.3091 8.55631C78.5637 8.55631 77.8964 8.83364 77.3071 9.38831C76.7351 9.92565 76.3797 10.7056 76.2411 11.7283ZM95.6639 19.6323C94.5545 19.6323 93.6445 19.2856 92.9339 18.5923C92.2405 17.899 91.8939 16.9976 91.8939 15.8883C91.8939 14.519 92.4919 13.4616 93.6879 12.7163C94.8839 11.9536 96.7905 11.4336 99.4079 11.1563C99.3905 10.4803 99.2085 9.89965 98.8619 9.41431C98.5325 8.91165 97.9345 8.66031 97.0679 8.66031C96.4439 8.66031 95.8285 8.78165 95.2219 9.02431C94.6325 9.26698 94.0519 9.56165 93.4799 9.90831L92.3879 7.90631C93.0985 7.45565 93.8959 7.06565 94.7799 6.73631C95.6812 6.40698 96.6345 6.24231 97.6399 6.24231C99.2345 6.24231 100.422 6.71898 101.202 7.67231C101.999 8.60831 102.398 9.96898 102.398 11.7543V19.3203H99.9279L99.7199 17.9163H99.6159C99.0439 18.4016 98.4285 18.809 97.7699 19.1383C97.1285 19.4676 96.4265 19.6323 95.6639 19.6323ZM96.6259 17.2923C97.1459 17.2923 97.6139 17.171 98.0299 16.9283C98.4632 16.6683 98.9225 16.3216 99.4079 15.8883V13.0283C97.6745 13.2536 96.4699 13.5916 95.7939 14.0423C95.1179 14.4756 94.7799 15.013 94.7799 15.6543C94.7799 16.2263 94.9532 16.6423 95.2999 16.9023C95.6465 17.1623 96.0885 17.2923 96.6259 17.2923ZM108.888 19.6323C107.831 19.6323 107.077 19.3116 106.626 18.6703C106.193 18.029 105.976 17.1536 105.976 16.0443V0.964312H108.966V16.2003C108.966 16.5643 109.035 16.8243 109.174 16.9803C109.313 17.119 109.46 17.1883 109.616 17.1883C109.685 17.1883 109.746 17.1883 109.798 17.1883C109.867 17.171 109.963 17.1536 110.084 17.1363L110.474 19.3723C110.301 19.4416 110.075 19.5023 109.798 19.5543C109.538 19.6063 109.235 19.6323 108.888 19.6323ZM115.947 19.6323C114.889 19.6323 114.135 19.3116 113.685 18.6703C113.251 18.029 113.035 17.1536 113.035 16.0443V0.964312H116.025V16.2003C116.025 16.5643 116.094 16.8243 116.233 16.9803C116.371 17.119 116.519 17.1883 116.675 17.1883C116.744 17.1883 116.805 17.1883 116.857 17.1883C116.926 17.171 117.021 17.1536 117.143 17.1363L117.533 19.3723C117.359 19.4416 117.134 19.5023 116.857 19.5543C116.597 19.6063 116.293 19.6323 115.947 19.6323ZM126.156 24.5723C125.81 24.5723 125.506 24.5463 125.246 24.4943C124.986 24.4423 124.735 24.3816 124.492 24.3123L125.038 21.9723C125.16 22.007 125.298 22.0416 125.454 22.0763C125.628 22.1283 125.792 22.1543 125.948 22.1543C126.624 22.1543 127.162 21.9463 127.56 21.5303C127.976 21.1316 128.288 20.6116 128.496 19.9703L128.73 19.1643L123.712 6.55431H126.754L128.964 12.8203C129.155 13.375 129.337 13.9643 129.51 14.5883C129.701 15.195 129.892 15.8016 130.082 16.4083H130.186C130.342 15.819 130.498 15.221 130.654 14.6143C130.828 13.9903 130.992 13.3923 131.148 12.8203L133.072 6.55431H135.958L131.33 19.8923C130.793 21.331 130.143 22.4663 129.38 23.2983C128.618 24.1476 127.543 24.5723 126.156 24.5723ZM143.245 19.6323C142.188 19.6323 141.2 19.3723 140.281 18.8523C139.362 18.315 138.617 17.5523 138.045 16.5643C137.473 15.559 137.187 14.3543 137.187 12.9503C137.187 11.529 137.473 10.3243 138.045 9.33631C138.617 8.33098 139.362 7.56831 140.281 7.04831C141.2 6.51098 142.188 6.24231 143.245 6.24231C144.32 6.24231 145.316 6.51098 146.235 7.04831C147.154 7.56831 147.899 8.33098 148.471 9.33631C149.043 10.3243 149.329 11.529 149.329 12.9503C149.329 14.3543 149.043 15.559 148.471 16.5643C147.899 17.5523 147.154 18.315 146.235 18.8523C145.316 19.3723 144.32 19.6323 143.245 19.6323ZM143.245 17.1883C144.181 17.1883 144.918 16.7983 145.455 16.0183C145.992 15.2383 146.261 14.2156 146.261 12.9503C146.261 11.6676 145.992 10.6363 145.455 9.85631C144.918 9.07631 144.181 8.68631 143.245 8.68631C142.309 8.68631 141.572 9.07631 141.035 9.85631C140.515 10.6363 140.255 11.6676 140.255 12.9503C140.255 14.2156 140.515 15.2383 141.035 16.0183C141.572 16.7983 142.309 17.1883 143.245 17.1883ZM156.085 19.6323C154.715 19.6323 153.719 19.1903 153.095 18.3063C152.471 17.4223 152.159 16.1743 152.159 14.5623V6.55431H155.149V14.1723C155.149 15.2296 155.305 15.975 155.617 16.4083C155.929 16.8416 156.431 17.0583 157.125 17.0583C157.679 17.0583 158.165 16.9196 158.581 16.6423C159.014 16.365 159.473 15.9143 159.959 15.2903V6.55431H162.949V19.3203H160.505L160.271 17.4483H160.193C159.638 18.107 159.031 18.6356 158.373 19.0343C157.714 19.433 156.951 19.6323 156.085 19.6323ZM166.736 19.3203V6.55431H169.206L169.414 8.81631H169.518C169.969 7.98431 170.515 7.35165 171.156 6.91831C171.797 6.46765 172.456 6.24231 173.132 6.24231C173.739 6.24231 174.224 6.32898 174.588 6.50231L174.068 9.10231C173.843 9.03298 173.635 8.98098 173.444 8.94631C173.253 8.91165 173.019 8.89431 172.742 8.89431C172.239 8.89431 171.711 9.09365 171.156 9.49231C170.601 9.87365 170.125 10.5496 169.726 11.5203V19.3203H166.736ZM181.9 19.3203V2.31631H187.334C188.513 2.31631 189.553 2.44631 190.454 2.70631C191.373 2.96631 192.092 3.40831 192.612 4.03231C193.15 4.63898 193.418 5.46231 193.418 6.50231C193.418 7.29965 193.21 8.05365 192.794 8.76431C192.378 9.45765 191.798 9.93431 191.052 10.1943V10.2983C191.988 10.5063 192.76 10.9483 193.366 11.6243C193.99 12.283 194.302 13.1843 194.302 14.3283C194.302 15.455 194.016 16.391 193.444 17.1363C192.89 17.8816 192.118 18.4363 191.13 18.8003C190.142 19.147 189.024 19.3203 187.776 19.3203H181.9ZM184.916 9.33631H187.074C188.253 9.33631 189.111 9.11965 189.648 8.68631C190.186 8.25298 190.454 7.67231 190.454 6.94431C190.454 6.11231 190.177 5.52298 189.622 5.17631C189.068 4.82965 188.236 4.65631 187.126 4.65631H184.916V9.33631ZM184.916 16.9803H187.464C188.712 16.9803 189.674 16.755 190.35 16.3043C191.026 15.8363 191.364 15.1256 191.364 14.1723C191.364 13.271 191.035 12.621 190.376 12.2223C189.718 11.8063 188.747 11.5983 187.464 11.5983H184.916V16.9803ZM200.95 19.6323C199.581 19.6323 198.584 19.1903 197.96 18.3063C197.336 17.4223 197.024 16.1743 197.024 14.5623V6.55431H200.014V14.1723C200.014 15.2296 200.17 15.975 200.482 16.4083C200.794 16.8416 201.297 17.0583 201.99 17.0583C202.545 17.0583 203.03 16.9196 203.446 16.6423C203.879 16.365 204.339 15.9143 204.824 15.2903V6.55431H207.814V19.3203H205.37L205.136 17.4483H205.058C204.503 18.107 203.897 18.6356 203.238 19.0343C202.579 19.433 201.817 19.6323 200.95 19.6323ZM215.163 19.6323C214.296 19.6323 213.43 19.4676 212.563 19.1383C211.696 18.7916 210.951 18.367 210.327 17.8643L211.731 15.9403C212.303 16.3736 212.875 16.7203 213.447 16.9803C214.019 17.2403 214.626 17.3703 215.267 17.3703C215.96 17.3703 216.472 17.223 216.801 16.9283C217.13 16.6336 217.295 16.2696 217.295 15.8363C217.295 15.4723 217.156 15.1776 216.879 14.9523C216.619 14.7096 216.281 14.5016 215.865 14.3283C215.449 14.1376 215.016 13.9556 214.565 13.7823C214.01 13.5743 213.456 13.323 212.901 13.0283C212.364 12.7163 211.922 12.3263 211.575 11.8583C211.228 11.373 211.055 10.775 211.055 10.0643C211.055 8.93765 211.471 8.01898 212.303 7.30831C213.135 6.59765 214.262 6.24231 215.683 6.24231C216.584 6.24231 217.39 6.39831 218.101 6.71031C218.812 7.02231 219.427 7.37765 219.947 7.77631L218.569 9.59631C218.118 9.26698 217.659 9.00698 217.191 8.81631C216.74 8.60831 216.264 8.50431 215.761 8.50431C215.12 8.50431 214.643 8.64298 214.331 8.92031C214.019 9.18031 213.863 9.50965 213.863 9.90831C213.863 10.411 214.123 10.7923 214.643 11.0523C215.163 11.3123 215.77 11.5636 216.463 11.8063C217.052 12.0143 217.624 12.2743 218.179 12.5863C218.734 12.881 219.193 13.271 219.557 13.7563C219.938 14.2416 220.129 14.883 220.129 15.6803C220.129 16.7723 219.704 17.7083 218.855 18.4883C218.006 19.251 216.775 19.6323 215.163 19.6323ZM222.798 19.3203V6.55431H225.788V19.3203H222.798ZM224.306 4.31831C223.769 4.31831 223.336 4.16231 223.006 3.85031C222.677 3.53831 222.512 3.12231 222.512 2.60231C222.512 2.09964 222.677 1.69231 223.006 1.38031C223.336 1.06831 223.769 0.912312 224.306 0.912312C224.844 0.912312 225.277 1.06831 225.606 1.38031C225.936 1.69231 226.1 2.09964 226.1 2.60231C226.1 3.12231 225.936 3.53831 225.606 3.85031C225.277 4.16231 224.844 4.31831 224.306 4.31831ZM229.603 19.3203V6.55431H232.073L232.281 8.27031H232.385C232.957 7.71565 233.581 7.23898 234.257 6.84031C234.933 6.44165 235.704 6.24231 236.571 6.24231C237.94 6.24231 238.937 6.68431 239.561 7.56831C240.185 8.45231 240.497 9.70031 240.497 11.3123V19.3203H237.507V11.7023C237.507 10.645 237.351 9.89965 237.039 9.46631C236.727 9.03298 236.216 8.81631 235.505 8.81631C234.95 8.81631 234.456 8.95498 234.023 9.23231C233.607 9.49231 233.13 9.88231 232.593 10.4023V19.3203H229.603ZM249.612 19.6323C248.433 19.6323 247.367 19.3723 246.414 18.8523C245.461 18.315 244.707 17.5523 244.152 16.5643C243.597 15.559 243.32 14.3543 243.32 12.9503C243.32 11.5636 243.597 10.3676 244.152 9.36231C244.724 8.35698 245.461 7.58565 246.362 7.04831C247.263 6.51098 248.208 6.24231 249.196 6.24231C250.357 6.24231 251.328 6.50231 252.108 7.02231C252.888 7.52498 253.477 8.23564 253.876 9.15431C254.275 10.0556 254.474 11.1043 254.474 12.3003C254.474 12.9243 254.431 13.4096 254.344 13.7563H246.232C246.371 14.883 246.778 15.7583 247.454 16.3823C248.13 17.0063 248.979 17.3183 250.002 17.3183C250.557 17.3183 251.068 17.2403 251.536 17.0843C252.021 16.911 252.498 16.677 252.966 16.3823L253.98 18.2543C253.373 18.653 252.697 18.9823 251.952 19.2423C251.207 19.5023 250.427 19.6323 249.612 19.6323ZM246.206 11.7283H251.874C251.874 10.7403 251.657 9.96898 251.224 9.41431C250.791 8.84231 250.141 8.55631 249.274 8.55631C248.529 8.55631 247.861 8.83364 247.272 9.38831C246.7 9.92565 246.345 10.7056 246.206 11.7283ZM260.892 19.6323C260.025 19.6323 259.158 19.4676 258.292 19.1383C257.425 18.7916 256.68 18.367 256.056 17.8643L257.46 15.9403C258.032 16.3736 258.604 16.7203 259.176 16.9803C259.748 17.2403 260.354 17.3703 260.996 17.3703C261.689 17.3703 262.2 17.223 262.53 16.9283C262.859 16.6336 263.024 16.2696 263.024 15.8363C263.024 15.4723 262.885 15.1776 262.608 14.9523C262.348 14.7096 262.01 14.5016 261.594 14.3283C261.178 14.1376 260.744 13.9556 260.294 13.7823C259.739 13.5743 259.184 13.323 258.63 13.0283C258.092 12.7163 257.65 12.3263 257.304 11.8583C256.957 11.373 256.784 10.775 256.784 10.0643C256.784 8.93765 257.2 8.01898 258.032 7.30831C258.864 6.59765 259.99 6.24231 261.412 6.24231C262.313 6.24231 263.119 6.39831 263.83 6.71031C264.54 7.02231 265.156 7.37765 265.676 7.77631L264.298 9.59631C263.847 9.26698 263.388 9.00698 262.92 8.81631C262.469 8.60831 261.992 8.50431 261.49 8.50431C260.848 8.50431 260.372 8.64298 260.06 8.92031C259.748 9.18031 259.592 9.50965 259.592 9.90831C259.592 10.411 259.852 10.7923 260.372 11.0523C260.892 11.3123 261.498 11.5636 262.192 11.8063C262.781 12.0143 263.353 12.2743 263.908 12.5863C264.462 12.881 264.922 13.271 265.286 13.7563C265.667 14.2416 265.858 14.883 265.858 15.6803C265.858 16.7723 265.433 17.7083 264.584 18.4883C263.734 19.251 262.504 19.6323 260.892 19.6323ZM272.089 19.6323C271.222 19.6323 270.356 19.4676 269.489 19.1383C268.622 18.7916 267.877 18.367 267.253 17.8643L268.657 15.9403C269.229 16.3736 269.801 16.7203 270.373 16.9803C270.945 17.2403 271.552 17.3703 272.193 17.3703C272.886 17.3703 273.398 17.223 273.727 16.9283C274.056 16.6336 274.221 16.2696 274.221 15.8363C274.221 15.4723 274.082 15.1776 273.805 14.9523C273.545 14.7096 273.207 14.5016 272.791 14.3283C272.375 14.1376 271.942 13.9556 271.491 13.7823C270.936 13.5743 270.382 13.323 269.827 13.0283C269.29 12.7163 268.848 12.3263 268.501 11.8583C268.154 11.373 267.981 10.775 267.981 10.0643C267.981 8.93765 268.397 8.01898 269.229 7.30831C270.061 6.59765 271.188 6.24231 272.609 6.24231C273.51 6.24231 274.316 6.39831 275.027 6.71031C275.738 7.02231 276.353 7.37765 276.873 7.77631L275.495 9.59631C275.044 9.26698 274.585 9.00698 274.117 8.81631C273.666 8.60831 273.19 8.50431 272.687 8.50431C272.046 8.50431 271.569 8.64298 271.257 8.92031C270.945 9.18031 270.789 9.50965 270.789 9.90831C270.789 10.411 271.049 10.7923 271.569 11.0523C272.089 11.3123 272.696 11.5636 273.389 11.8063C273.978 12.0143 274.55 12.2743 275.105 12.5863C275.66 12.881 276.119 13.271 276.483 13.7563C276.864 14.2416 277.055 14.883 277.055 15.6803C277.055 16.7723 276.63 17.7083 275.781 18.4883C274.932 19.251 273.701 19.6323 272.089 19.6323ZM0.611125 52.3203V35.3163H3.62713V49.7723H10.6991V52.3203H0.611125ZM18.2978 52.6323C17.2405 52.6323 16.2525 52.3723 15.3338 51.8523C14.4152 51.315 13.6698 50.5523 13.0978 49.5643C12.5258 48.559 12.2398 47.3543 12.2398 45.9503C12.2398 44.529 12.5258 43.3243 13.0978 42.3363C13.6698 41.331 14.4152 40.5683 15.3338 40.0483C16.2525 39.511 17.2405 39.2423 18.2978 39.2423C19.3725 39.2423 20.3692 39.511 21.2878 40.0483C22.2065 40.5683 22.9518 41.331 23.5238 42.3363C24.0958 43.3243 24.3818 44.529 24.3818 45.9503C24.3818 47.3543 24.0958 48.559 23.5238 49.5643C22.9518 50.5523 22.2065 51.315 21.2878 51.8523C20.3692 52.3723 19.3725 52.6323 18.2978 52.6323ZM18.2978 50.1883C19.2338 50.1883 19.9705 49.7983 20.5078 49.0183C21.0452 48.2383 21.3138 47.2156 21.3138 45.9503C21.3138 44.6676 21.0452 43.6363 20.5078 42.8563C19.9705 42.0763 19.2338 41.6863 18.2978 41.6863C17.3618 41.6863 16.6252 42.0763 16.0878 42.8563C15.5678 43.6363 15.3078 44.6676 15.3078 45.9503C15.3078 47.2156 15.5678 48.2383 16.0878 49.0183C16.6252 49.7983 17.3618 50.1883 18.2978 50.1883ZM32.6714 52.6323C31.51 52.6323 30.4614 52.3723 29.5254 51.8523C28.6067 51.315 27.87 50.5523 27.3154 49.5643C26.778 48.559 26.5094 47.3543 26.5094 45.9503C26.5094 44.529 26.804 43.3243 27.3934 42.3363C27.9827 41.331 28.7627 40.5683 29.7334 40.0483C30.7214 39.511 31.7787 39.2423 32.9054 39.2423C33.72 39.2423 34.4307 39.381 35.0374 39.6583C35.644 39.9356 36.1814 40.2736 36.6494 40.6723L35.1934 42.6223C34.864 42.3276 34.526 42.1023 34.1794 41.9463C33.8327 41.773 33.46 41.6863 33.0614 41.6863C32.0387 41.6863 31.198 42.0763 30.5394 42.8563C29.898 43.6363 29.5774 44.6676 29.5774 45.9503C29.5774 47.2156 29.8894 48.2383 30.5134 49.0183C31.1547 49.7983 31.978 50.1883 32.9834 50.1883C33.486 50.1883 33.954 50.0843 34.3874 49.8763C34.838 49.651 35.2454 49.391 35.6094 49.0963L36.8314 51.0723C36.242 51.5923 35.5834 51.9823 34.8554 52.2423C34.1274 52.5023 33.3994 52.6323 32.6714 52.6323ZM42.1912 52.6323C41.0819 52.6323 40.1719 52.2856 39.4612 51.5923C38.7679 50.899 38.4212 49.9976 38.4212 48.8883C38.4212 47.519 39.0192 46.4616 40.2152 45.7163C41.4112 44.9536 43.3179 44.4336 45.9352 44.1563C45.9179 43.4803 45.7359 42.8996 45.3892 42.4143C45.0599 41.9116 44.4619 41.6603 43.5952 41.6603C42.9712 41.6603 42.3559 41.7816 41.7492 42.0243C41.1599 42.267 40.5792 42.5616 40.0072 42.9083L38.9152 40.9063C39.6259 40.4556 40.4232 40.0656 41.3072 39.7363C42.2086 39.407 43.1619 39.2423 44.1672 39.2423C45.7619 39.2423 46.9492 39.719 47.7292 40.6723C48.5266 41.6083 48.9252 42.969 48.9252 44.7543V52.3203H46.4552L46.2472 50.9163H46.1432C45.5712 51.4016 44.9559 51.809 44.2972 52.1383C43.6559 52.4676 42.9539 52.6323 42.1912 52.6323ZM43.1532 50.2923C43.6732 50.2923 44.1412 50.171 44.5572 49.9283C44.9906 49.6683 45.4499 49.3216 45.9352 48.8883V46.0283C44.2019 46.2536 42.9972 46.5916 42.3212 47.0423C41.6452 47.4756 41.3072 48.013 41.3072 48.6543C41.3072 49.2263 41.4806 49.6423 41.8272 49.9023C42.1739 50.1623 42.6159 50.2923 43.1532 50.2923ZM56.5952 52.6323C55.1219 52.6323 54.0732 52.2076 53.4492 51.3583C52.8426 50.4916 52.5392 49.3736 52.5392 48.0043V41.9203H50.7192V39.6843L52.6952 39.5543L53.0592 36.0703H55.5552V39.5543H58.8052V41.9203H55.5552V48.0043C55.5552 49.495 56.1532 50.2403 57.3492 50.2403C57.5746 50.2403 57.8086 50.2143 58.0512 50.1623C58.2939 50.093 58.5019 50.0236 58.6752 49.9543L59.1952 52.1643C58.8486 52.2856 58.4499 52.3896 57.9992 52.4763C57.5659 52.5803 57.0979 52.6323 56.5952 52.6323ZM61.4918 52.3203V39.5543H64.4818V52.3203H61.4918ZM62.9998 37.3183C62.4624 37.3183 62.0291 37.1623 61.6998 36.8503C61.3704 36.5383 61.2058 36.1223 61.2058 35.6023C61.2058 35.0996 61.3704 34.6923 61.6998 34.3803C62.0291 34.0683 62.4624 33.9123 62.9998 33.9123C63.5371 33.9123 63.9704 34.0683 64.2998 34.3803C64.6291 34.6923 64.7938 35.0996 64.7938 35.6023C64.7938 36.1223 64.6291 36.5383 64.2998 36.8503C63.9704 37.1623 63.5371 37.3183 62.9998 37.3183ZM73.5224 52.6323C72.4651 52.6323 71.4771 52.3723 70.5584 51.8523C69.6398 51.315 68.8944 50.5523 68.3224 49.5643C67.7504 48.559 67.4644 47.3543 67.4644 45.9503C67.4644 44.529 67.7504 43.3243 68.3224 42.3363C68.8944 41.331 69.6398 40.5683 70.5584 40.0483C71.4771 39.511 72.4651 39.2423 73.5224 39.2423C74.5971 39.2423 75.5938 39.511 76.5124 40.0483C77.4311 40.5683 78.1764 41.331 78.7484 42.3363C79.3204 43.3243 79.6064 44.529 79.6064 45.9503C79.6064 47.3543 79.3204 48.559 78.7484 49.5643C78.1764 50.5523 77.4311 51.315 76.5124 51.8523C75.5938 52.3723 74.5971 52.6323 73.5224 52.6323ZM73.5224 50.1883C74.4584 50.1883 75.1951 49.7983 75.7324 49.0183C76.2698 48.2383 76.5384 47.2156 76.5384 45.9503C76.5384 44.6676 76.2698 43.6363 75.7324 42.8563C75.1951 42.0763 74.4584 41.6863 73.5224 41.6863C72.5864 41.6863 71.8498 42.0763 71.3124 42.8563C70.7924 43.6363 70.5324 44.6676 70.5324 45.9503C70.5324 47.2156 70.7924 48.2383 71.3124 49.0183C71.8498 49.7983 72.5864 50.1883 73.5224 50.1883ZM82.566 52.3203V39.5543H85.036L85.244 41.2703H85.348C85.92 40.7156 86.544 40.239 87.22 39.8403C87.896 39.4416 88.6673 39.2423 89.534 39.2423C90.9033 39.2423 91.9 39.6843 92.524 40.5683C93.148 41.4523 93.46 42.7003 93.46 44.3123V52.3203H90.47V44.7023C90.47 43.645 90.314 42.8996 90.002 42.4663C89.69 42.033 89.1786 41.8163 88.468 41.8163C87.9133 41.8163 87.4193 41.955 86.986 42.2323C86.57 42.4923 86.0933 42.8823 85.556 43.4023V52.3203H82.566ZM100.677 52.6323C99.8101 52.6323 98.9435 52.4676 98.0768 52.1383C97.2101 51.7916 96.4648 51.367 95.8408 50.8643L97.2448 48.9403C97.8168 49.3736 98.3888 49.7203 98.9608 49.9803C99.5328 50.2403 100.139 50.3703 100.781 50.3703C101.474 50.3703 101.985 50.223 102.315 49.9283C102.644 49.6336 102.809 49.2696 102.809 48.8363C102.809 48.4723 102.67 48.1776 102.393 47.9523C102.133 47.7096 101.795 47.5016 101.379 47.3283C100.963 47.1376 100.529 46.9556 100.079 46.7823C99.5241 46.5743 98.9695 46.323 98.4148 46.0283C97.8775 45.7163 97.4355 45.3263 97.0888 44.8583C96.7421 44.373 96.5688 43.775 96.5688 43.0643C96.5688 41.9376 96.9848 41.019 97.8168 40.3083C98.6488 39.5976 99.7755 39.2423 101.197 39.2423C102.098 39.2423 102.904 39.3983 103.615 39.7103C104.325 40.0223 104.941 40.3776 105.461 40.7763L104.083 42.5963C103.632 42.267 103.173 42.007 102.705 41.8163C102.254 41.6083 101.777 41.5043 101.275 41.5043C100.633 41.5043 100.157 41.643 99.8448 41.9203C99.5328 42.1803 99.3768 42.5096 99.3768 42.9083C99.3768 43.411 99.6368 43.7923 100.157 44.0523C100.677 44.3123 101.283 44.5636 101.977 44.8063C102.566 45.0143 103.138 45.2743 103.693 45.5863C104.247 45.881 104.707 46.271 105.071 46.7563C105.452 47.2416 105.643 47.883 105.643 48.6803C105.643 49.7723 105.218 50.7083 104.369 51.4883C103.519 52.251 102.289 52.6323 100.677 52.6323ZM113.517 52.3203V39.5543H116.507V52.3203H113.517ZM115.025 37.3183C114.488 37.3183 114.054 37.1623 113.725 36.8503C113.396 36.5383 113.231 36.1223 113.231 35.6023C113.231 35.0996 113.396 34.6923 113.725 34.3803C114.054 34.0683 114.488 33.9123 115.025 33.9123C115.562 33.9123 115.996 34.0683 116.325 34.3803C116.654 34.6923 116.819 35.0996 116.819 35.6023C116.819 36.1223 116.654 36.5383 116.325 36.8503C115.996 37.1623 115.562 37.3183 115.025 37.3183ZM120.322 52.3203V39.5543H122.792L123 41.2703H123.104C123.676 40.7156 124.3 40.239 124.976 39.8403C125.652 39.4416 126.423 39.2423 127.29 39.2423C128.659 39.2423 129.656 39.6843 130.28 40.5683C130.904 41.4523 131.216 42.7003 131.216 44.3123V52.3203H128.226V44.7023C128.226 43.645 128.07 42.8996 127.758 42.4663C127.446 42.033 126.934 41.8163 126.224 41.8163C125.669 41.8163 125.175 41.955 124.742 42.2323C124.326 42.4923 123.849 42.8823 123.312 43.4023V52.3203H120.322ZM145.302 52.6323C144.244 52.6323 143.256 52.3723 142.338 51.8523C141.419 51.315 140.674 50.5523 140.102 49.5643C139.53 48.559 139.244 47.3543 139.244 45.9503C139.244 44.529 139.53 43.3243 140.102 42.3363C140.674 41.331 141.419 40.5683 142.338 40.0483C143.256 39.511 144.244 39.2423 145.302 39.2423C146.376 39.2423 147.373 39.511 148.292 40.0483C149.21 40.5683 149.956 41.331 150.528 42.3363C151.1 43.3243 151.386 44.529 151.386 45.9503C151.386 47.3543 151.1 48.559 150.528 49.5643C149.956 50.5523 149.21 51.315 148.292 51.8523C147.373 52.3723 146.376 52.6323 145.302 52.6323ZM145.302 50.1883C146.238 50.1883 146.974 49.7983 147.512 49.0183C148.049 48.2383 148.318 47.2156 148.318 45.9503C148.318 44.6676 148.049 43.6363 147.512 42.8563C146.974 42.0763 146.238 41.6863 145.302 41.6863C144.366 41.6863 143.629 42.0763 143.092 42.8563C142.572 43.6363 142.312 44.6676 142.312 45.9503C142.312 47.2156 142.572 48.2383 143.092 49.0183C143.629 49.7983 144.366 50.1883 145.302 50.1883ZM154.345 52.3203V39.5543H156.815L157.023 41.2703H157.127C157.699 40.7156 158.323 40.239 158.999 39.8403C159.675 39.4416 160.447 39.2423 161.313 39.2423C162.683 39.2423 163.679 39.6843 164.303 40.5683C164.927 41.4523 165.239 42.7003 165.239 44.3123V52.3203H162.249V44.7023C162.249 43.645 162.093 42.8996 161.781 42.4663C161.469 42.033 160.958 41.8163 160.247 41.8163C159.693 41.8163 159.199 41.955 158.765 42.2323C158.349 42.4923 157.873 42.8823 157.335 43.4023V52.3203H154.345ZM174.354 52.6323C173.175 52.6323 172.109 52.3723 171.156 51.8523C170.203 51.315 169.449 50.5523 168.894 49.5643C168.339 48.559 168.062 47.3543 168.062 45.9503C168.062 44.5636 168.339 43.3676 168.894 42.3623C169.466 41.357 170.203 40.5856 171.104 40.0483C172.005 39.511 172.95 39.2423 173.938 39.2423C175.099 39.2423 176.07 39.5023 176.85 40.0223C177.63 40.525 178.219 41.2356 178.618 42.1543C179.017 43.0556 179.216 44.1043 179.216 45.3003C179.216 45.9243 179.173 46.4096 179.086 46.7563H170.974C171.113 47.883 171.52 48.7583 172.196 49.3823C172.872 50.0063 173.721 50.3183 174.744 50.3183C175.299 50.3183 175.81 50.2403 176.278 50.0843C176.763 49.911 177.24 49.677 177.708 49.3823L178.722 51.2543C178.115 51.653 177.439 51.9823 176.694 52.2423C175.949 52.5023 175.169 52.6323 174.354 52.6323ZM170.948 44.7283H176.616C176.616 43.7403 176.399 42.969 175.966 42.4143C175.533 41.8423 174.883 41.5563 174.016 41.5563C173.271 41.5563 172.603 41.8336 172.014 42.3883C171.442 42.9256 171.087 43.7056 170.948 44.7283ZM187.277 57.3643V39.5543H189.747L189.955 40.9063H190.059C190.596 40.4556 191.194 40.0656 191.853 39.7363C192.529 39.407 193.214 39.2423 193.907 39.2423C195.502 39.2423 196.732 39.8316 197.599 41.0103C198.483 42.189 198.925 43.7663 198.925 45.7423C198.925 47.1983 198.665 48.4463 198.145 49.4863C197.625 50.509 196.949 51.289 196.117 51.8263C195.302 52.3636 194.418 52.6323 193.465 52.6323C192.91 52.6323 192.356 52.511 191.801 52.2683C191.246 52.0083 190.709 51.6616 190.189 51.2283L190.267 53.3603V57.3643H187.277ZM192.841 50.1623C193.69 50.1623 194.401 49.7896 194.973 49.0443C195.545 48.299 195.831 47.207 195.831 45.7683C195.831 44.4856 195.614 43.489 195.181 42.7783C194.748 42.0676 194.046 41.7123 193.075 41.7123C192.174 41.7123 191.238 42.189 190.267 43.1423V49.0963C190.735 49.4776 191.186 49.755 191.619 49.9283C192.052 50.0843 192.46 50.1623 192.841 50.1623ZM204.865 52.6323C203.807 52.6323 203.053 52.3116 202.603 51.6703C202.169 51.029 201.953 50.1536 201.953 49.0443V33.9643H204.943V49.2003C204.943 49.5643 205.012 49.8243 205.151 49.9803C205.289 50.119 205.437 50.1883 205.593 50.1883C205.662 50.1883 205.723 50.1883 205.775 50.1883C205.844 50.171 205.939 50.1536 206.061 50.1363L206.451 52.3723C206.277 52.4416 206.052 52.5023 205.775 52.5543C205.515 52.6063 205.211 52.6323 204.865 52.6323ZM212.105 52.6323C210.996 52.6323 210.086 52.2856 209.375 51.5923C208.682 50.899 208.335 49.9976 208.335 48.8883C208.335 47.519 208.933 46.4616 210.129 45.7163C211.325 44.9536 213.232 44.4336 215.849 44.1563C215.832 43.4803 215.65 42.8996 215.303 42.4143C214.974 41.9116 214.376 41.6603 213.509 41.6603C212.885 41.6603 212.27 41.7816 211.663 42.0243C211.074 42.267 210.493 42.5616 209.921 42.9083L208.829 40.9063C209.54 40.4556 210.337 40.0656 211.221 39.7363C212.123 39.407 213.076 39.2423 214.081 39.2423C215.676 39.2423 216.863 39.719 217.643 40.6723C218.441 41.6083 218.839 42.969 218.839 44.7543V52.3203H216.369L216.161 50.9163H216.057C215.485 51.4016 214.87 51.809 214.211 52.1383C213.57 52.4676 212.868 52.6323 212.105 52.6323ZM213.067 50.2923C213.587 50.2923 214.055 50.171 214.471 49.9283C214.905 49.6683 215.364 49.3216 215.849 48.8883V46.0283C214.116 46.2536 212.911 46.5916 212.235 47.0423C211.559 47.4756 211.221 48.013 211.221 48.6543C211.221 49.2263 211.395 49.6423 211.741 49.9023C212.088 50.1623 212.53 50.2923 213.067 50.2923ZM227.748 52.6323C226.586 52.6323 225.538 52.3723 224.602 51.8523C223.683 51.315 222.946 50.5523 222.392 49.5643C221.854 48.559 221.586 47.3543 221.586 45.9503C221.586 44.529 221.88 43.3243 222.47 42.3363C223.059 41.331 223.839 40.5683 224.81 40.0483C225.798 39.511 226.855 39.2423 227.982 39.2423C228.796 39.2423 229.507 39.381 230.114 39.6583C230.72 39.9356 231.258 40.2736 231.726 40.6723L230.27 42.6223C229.94 42.3276 229.602 42.1023 229.256 41.9463C228.909 41.773 228.536 41.6863 228.138 41.6863C227.115 41.6863 226.274 42.0763 225.616 42.8563C224.974 43.6363 224.654 44.6676 224.654 45.9503C224.654 47.2156 224.966 48.2383 225.59 49.0183C226.231 49.7983 227.054 50.1883 228.06 50.1883C228.562 50.1883 229.03 50.0843 229.464 49.8763C229.914 49.651 230.322 49.391 230.686 49.0963L231.908 51.0723C231.318 51.5923 230.66 51.9823 229.932 52.2423C229.204 52.5023 228.476 52.6323 227.748 52.6323ZM239.253 52.6323C238.074 52.6323 237.008 52.3723 236.055 51.8523C235.101 51.315 234.347 50.5523 233.793 49.5643C233.238 48.559 232.961 47.3543 232.961 45.9503C232.961 44.5636 233.238 43.3676 233.793 42.3623C234.365 41.357 235.101 40.5856 236.003 40.0483C236.904 39.511 237.849 39.2423 238.837 39.2423C239.998 39.2423 240.969 39.5023 241.749 40.0223C242.529 40.525 243.118 41.2356 243.517 42.1543C243.915 43.0556 244.115 44.1043 244.115 45.3003C244.115 45.9243 244.071 46.4096 243.985 46.7563H235.873C236.011 47.883 236.419 48.7583 237.095 49.3823C237.771 50.0063 238.62 50.3183 239.643 50.3183C240.197 50.3183 240.709 50.2403 241.177 50.0843C241.662 49.911 242.139 49.677 242.607 49.3823L243.621 51.2543C243.014 51.653 242.338 51.9823 241.593 52.2423C240.847 52.5023 240.067 52.6323 239.253 52.6323ZM235.847 44.7283H241.515C241.515 43.7403 241.298 42.969 240.865 42.4143C240.431 41.8423 239.781 41.5563 238.915 41.5563C238.169 41.5563 237.502 41.8336 236.913 42.3883C236.341 42.9256 235.985 43.7056 235.847 44.7283Z" fill="#FFAA00"/>
</svg>
