<svg xmlns="http://www.w3.org/2000/svg" width="30" height="25" viewBox="0 0 18.814 14.298">
  <g id="Camera" transform="translate(-5.646 -65.305)">
    <path id="Path_381" data-name="Path 381" d="M22.955,67.563H19.842l-1.809-1.814-.006-.006,0,0h0a1.5,1.5,0,0,0-1.058-.435H13.2a1.5,1.5,0,0,0-1.1.487v0l-1.772,1.775H7.151a1.505,1.505,0,0,0-1.505,1.505V78.1A1.505,1.505,0,0,0,7.151,79.6h15.8A1.505,1.505,0,0,0,24.46,78.1V69.068A1.505,1.505,0,0,0,22.955,67.563ZM23.707,78.1a.754.754,0,0,1-.753.753H7.151A.754.754,0,0,1,6.4,78.1V69.068a.753.753,0,0,1,.753-.753h3.488l.221-.221.911-.913.018.055.864-.934a.743.743,0,0,1,.55-.245h3.763a.754.754,0,0,1,.534.223l1.809,1.814.22.221h3.425a.754.754,0,0,1,.753.753Z" fill="#222222"/>
    <path id="Path_382" data-name="Path 382" d="M130.757,145.451a4.892,4.892,0,1,0,4.892,4.891A4.891,4.891,0,0,0,130.757,145.451Zm0,9.031a4.139,4.139,0,1,1,4.139-4.14A4.144,4.144,0,0,1,130.757,154.482Z" transform="translate(-115.704 -77.136)" fill="#222222"/>
    <path id="Path_383" data-name="Path 383" d="M169.324,185.524a3.386,3.386,0,1,0,3.386,3.386A3.386,3.386,0,0,0,169.324,185.524Zm0,6.02a2.634,2.634,0,1,1,2.634-2.635A2.638,2.638,0,0,1,169.324,191.544Z" transform="translate(-154.272 -115.704)" fill="#222222"/>
  </g>
</svg>
