<svg xmlns="http://www.w3.org/2000/svg" width="16" height="16" viewBox="0 0 24.52 20.552">
  <path id="Path_194" data-name="Path 194" d="M124.61,126.187a3.35,3.35,0,1,1-3.35-3.35,3.35,3.35,0,0,1,3.35,3.35m-8.423,0a5.073,5.073,0,1,1,5.073,5.073A5.073,5.073,0,0,1,116.187,126.187Zm15.642-3.365h1.691v8.934a3.8,3.8,0,0,1-3.8,3.8H113.551v-1.691H129.42a2.409,2.409,0,0,0,2.409-2.409Zm-14.844-3.93a1.711,1.711,0,0,1-1.252.55l-5.043.014v16.1H109V119.621a1.857,1.857,0,0,1,1.857-1.857h4.868l2.126-2.341a1.287,1.287,0,0,1,.956-.422l5.182.01a1.288,1.288,0,0,1,.943.413l2.163,2.34h6.426v1.691l-6.442-.02a1.711,1.711,0,0,1-1.251-.55l-2.029-2.195H119.02l-2.034,2.2Z" transform="translate(-109 -115.001)" fill="#631ab8" fill-rule="evenodd"/>
</svg>
