<svg xmlns="http://www.w3.org/2000/svg" width="16" height="16" viewBox="0 0 60.14 60.14">
  <g id="completed" transform="translate(-1.94 -1.94)">
    <path id="Path_111" data-name="Path 111" d="M32.01,62.08A30.07,30.07,0,1,1,62.08,32.01,30.1,30.1,0,0,1,32.01,62.08Zm0-54.253A24.182,24.182,0,1,0,56.193,32.01,24.211,24.211,0,0,0,32.01,7.828Z" fill="#000"/>
    <path id="Path_112" data-name="Path 112" d="M28.43,56.38l-9.9-12.407a2.943,2.943,0,1,1,4.6-3.673l6.3,7.89L53.332,29.827A2.945,2.945,0,1,1,56.917,34.5Z" transform="translate(-5.968 -10.211)" fill="#000"/>
  </g>
</svg>
