<svg xmlns="http://www.w3.org/2000/svg" width="16" height="16" viewBox="0 0 45.489 49.661">
  <g id="Status_icons-_Confirmed" data-name="Status icons-@Confirmed" transform="translate(0 -0.015)">
    <path id="Path_120" data-name="Path 120" d="M59.4,6.217c-.435.042-.846.109-1.208.157.356-.6.707-1.208,1.057-1.854a13.486,13.486,0,0,1,.151,1.7Z" transform="translate(-31.353 -2.98)" fill="#000" opacity="0.1"/>
    <path id="Path_121" data-name="Path 121" d="M91.5,54.313c-.066.1-.127.211-.187.32l-.115.211c-.06-.248-.127-.5-.2-.749q-.314-.3,0-.091a2.688,2.688,0,0,1,.332.2Z" transform="translate(-48.2 -27.129)" fill="#000" opacity="0.1"/>
    <path id="Path_122" data-name="Path 122" d="M83.33,89.432a1.7,1.7,0,0,0,0-.175C83.6,89.142,83.33,89.233,83.33,89.432Z" transform="translate(-45.226 -44.841)" fill="#000" opacity="0.1"/>
    <g id="Group_2073" data-name="Group 2073" transform="translate(2.126 0.892)" opacity="0.1">
      <path id="Path_123" data-name="Path 123" d="M17.663,75.765H10.416A2.416,2.416,0,0,1,8,73.349V46.776a2.416,2.416,0,0,1,2.416-2.416h7.247a4.367,4.367,0,0,1,4.36,4.367V71.4A4.367,4.367,0,0,1,17.663,75.765ZM10.416,46.776h0V73.349h7.247A1.945,1.945,0,0,0,19.608,71.4V48.727a1.951,1.951,0,0,0-1.945-1.951Z" transform="translate(-8 -27.971)" fill="#000"/>
      <path id="Path_124" data-name="Path 124" d="M43.386,51.386a79.827,79.827,0,0,1-15.711-2.033l-.734-.175V26.751l.646-.232c.929-.324,3.429-1.544,4.182-3.34v-.046c.2-.432,2-4.21,3.532-5.717,1.269-1.678,4.41-6.433,4.461-9.263V8.065L40,5.533A2.125,2.125,0,0,1,41.62,3.577a4.632,4.632,0,0,1,3.318.443l.1.072c.144.118,3.518,2.944,2.277,9.69A13.214,13.214,0,0,1,45.286,18.6a6.538,6.538,0,0,0-.465,3.283c2.723-.335,9.062-.875,12.082.844a3.147,3.147,0,0,1,1.445,2.058,6.765,6.765,0,0,1-.651,5.146.2.2,0,0,0,0,.206c1.464,2.429,1.315,4.873-.4,6.536a.2.2,0,0,0-.046.2c1.162,2.717.678,5.146-1.324,6.644a.751.751,0,0,0-.293.69c.232,1.817.116,2.938-.386,3.6-.428.777-2.184,2.83-8.95,3.484C45.351,51.35,44.38,51.386,43.386,51.386ZM28.8,47.505c2.556.551,11.241,2.285,17.315,1.7,5.976-.571,7.342-2.223,7.51-2.475l.06-.262.125-.051a5.6,5.6,0,0,0-.037-1.93,2.879,2.879,0,0,1,1.078-2.676c1.218-.916,1.445-2.28.688-4.06a2.4,2.4,0,0,1,.511-2.63c1-.978,1.032-2.269.079-3.844a2.454,2.454,0,0,1,.074-2.573,4.611,4.611,0,0,0,.344-3.422,1.09,1.09,0,0,0-.493-.72c-2.128-1.215-7.147-1.112-11.153-.612a1.761,1.761,0,0,1-1.859-1.513,8.781,8.781,0,0,1,.627-4.848l.093-.165a11.079,11.079,0,0,0,1.738-4.04c.929-5.095-1.185-7.292-1.515-7.6A3.145,3.145,0,0,0,41.95,5.6a.132.132,0,0,0-.088.124l-.237,2.491c-.112,4.21-4.745,10.328-4.944,10.586l-.107.118a23.492,23.492,0,0,0-3.141,5.146c-.929,2.264-3.439,3.6-4.647,4.153ZM53.614,46.77ZM53.614,46.77ZM53.79,46.481Z" transform="translate(-15.501 -3.447)" fill="#000"/>
    </g>
    <path id="Path_125" data-name="Path 125" d="M42.014,51.656a59.307,59.307,0,0,1-14.245-2l-1.809-.45-.15-23.893,1.178-.75a11.39,11.39,0,0,0,2.338-1.935V22.59l.117-.295a26.5,26.5,0,0,1,4.264-7.273,14.514,14.514,0,0,0,2.478-3.528,13.3,13.3,0,0,0,1.211-3.4l.21-1.914A4.52,4.52,0,0,1,41.654,2,5.179,5.179,0,0,1,44.87,3l.3.212.229.3A12.732,12.732,0,0,1,47.4,8.055a14.632,14.632,0,0,1-1.8,10.78,5.453,5.453,0,0,0-.388.941c6.339-.7,10.449.16,12.23,2.586l.154.212.108.238a8.869,8.869,0,0,1,.2,6.461.443.443,0,0,0-.033.134c.5,1.842.846,4.474-.341,6.637.729,2.974.159,5.628-1.571,7.3a.526.526,0,0,0-.168.29c-.056,2.312-.468,3.74-1.351,4.614C53.86,48.8,50.6,51.656,42.014,51.656ZM30.6,45.045c13.871,3.1,19.28.316,20.406-.435a9.136,9.136,0,0,0,.089-1.138,5.782,5.782,0,0,1,1.767-4.045c.467-.471.206-1.748.108-2.126a5.177,5.177,0,0,1,.51-3.942,4.009,4.009,0,0,0-.126-2.483,5.945,5.945,0,0,1,.182-3.59,3.1,3.1,0,0,0,.061-1.821c-.753-.517-3.4-1.107-8.471-.481a4.045,4.045,0,0,1-3.506-1.355A4.956,4.956,0,0,1,40.4,19.8a10.078,10.078,0,0,1,1.22-3.745,9.182,9.182,0,0,0,1.258-6.538,8.384,8.384,0,0,0-.739-2.11l-.164,1.505a18.37,18.37,0,0,1-1.706,5.023,19.565,19.565,0,0,1-3.315,4.78,20.992,20.992,0,0,0-3.17,5.462,8.677,8.677,0,0,1-3.305,4.061Z" transform="translate(-12.928 -1.98)" fill="#000"/>
    <path id="Path_126" data-name="Path 126" d="M16.414,75.425H11.582a7.1,7.1,0,0,1-7.1-7.084V48.084A7.1,7.1,0,0,1,11.576,41h4.832a7.1,7.1,0,0,1,7.108,7.084V68.34A7.1,7.1,0,0,1,16.414,75.425ZM11.582,47.039A1.063,1.063,0,0,0,10.525,48.1V68.34a1.057,1.057,0,0,0,1.051,1.045h4.832a1.057,1.057,0,0,0,1.069-1.045V48.084a1.057,1.057,0,0,0-1.063-1.045Z" transform="translate(-4.479 -25.749)" fill="#000"/>
  </g>
</svg>
