<svg id="bp-confirm-m" xmlns="http://www.w3.org/2000/svg" width="21.828" height="21.828" viewBox="0 0 16.706 16.706">
  <path id="Path_384" data-name="Path 384" d="M134.411,136.206a.7.7,0,0,0-.984,0l-2.988,2.988-1.248-1.248a.7.7,0,0,0-.984.984l1.74,1.74a.7.7,0,0,0,.984,0l3.48-3.48A.7.7,0,0,0,134.411,136.206Z" transform="translate(-122.434 -130.085)" fill="#000"/>
  <path id="Path_385" data-name="Path 385" d="M16.01,7.657a.7.7,0,0,0-.7.7,6.96,6.96,0,1,1-2.021-4.9.7.7,0,1,0,.988-.981,8.353,8.353,0,1,0,2.425,5.885A.7.7,0,0,0,16.01,7.657Z" fill="#000"/>
</svg>
