<svg xmlns="http://www.w3.org/2000/svg" width="25.174" height="25.174" viewBox="0 0 16.174 16.174">
  <path id="Icon_metro-cross" data-name="Icon metro-cross" d="M18.6,14.922h0L13.69,10.015,18.6,5.108h0a.507.507,0,0,0,0-.715L16.279,2.076a.507.507,0,0,0-.715,0h0L10.658,6.982,5.751,2.076h0a.507.507,0,0,0-.715,0L2.718,4.394a.507.507,0,0,0,0,.715h0l4.907,4.907L2.718,14.922h0a.507.507,0,0,0,0,.715l2.318,2.318a.507.507,0,0,0,.715,0h0l4.907-4.907,4.907,4.907h0a.506.506,0,0,0,.715,0L18.6,15.636a.506.506,0,0,0,0-.715Z" transform="translate(-2.571 -1.928)" fill="#631ab8"/>
</svg>
