<svg width="30" height="23" viewBox="0 0 30 23" fill="none" xmlns="http://www.w3.org/2000/svg">
<path d="M13.2509 5.55C13.2509 8.11861 11.2982 10.1009 9 10.1009C6.70181 10.1009 4.7491 8.11861 4.7491 5.55C4.7491 2.98139 6.70181 0.999105 9 0.999105C11.2982 0.999105 13.2509 2.98139 13.2509 5.55ZM9 14.4777C10.2402 14.4777 11.4005 14.1787 12.4428 13.6848H12.6C14.9779 13.6848 17.0009 15.7414 17.0009 18.3943V19.8214C17.0009 20.6358 16.3888 21.2009 15.75 21.2009H2.25C1.61119 21.2009 0.999105 20.6358 0.999105 19.8214V18.3943C0.999105 15.7414 3.02213 13.6848 5.4 13.6848H5.55806C6.6022 14.178 7.75846 14.4777 9 14.4777ZM26.0009 6.34286C26.0009 8.47044 24.381 10.1009 22.5 10.1009C20.619 10.1009 18.9991 8.47044 18.9991 6.34286C18.9991 4.21527 20.619 2.58482 22.5 2.58482C24.381 2.58482 26.0009 4.21527 26.0009 6.34286ZM22.5 14.0812C23.3095 14.0812 24.0591 13.9191 24.7432 13.6848H24.75C27.0482 13.6848 29.0009 15.6671 29.0009 18.2357C29.0009 19.0501 28.3888 19.6152 27.75 19.6152H20.4991V18.3943C20.4991 16.7088 20.0071 15.1481 19.1788 13.843C19.524 13.7401 19.8818 13.6848 20.25 13.6848H20.2568C20.9409 13.9191 21.6905 14.0812 22.5 14.0812Z" stroke="white" stroke-width="1.99821"/>
</svg>
