<svg xmlns="http://www.w3.org/2000/svg" width="16.498" height="16.498" viewBox="0 0 16.498 16.498">
  <g id="Fill_stroke-10" transform="translate(-1.21 -1.21)">
    <g id="Group_2062" data-name="Group 2062" transform="translate(1.21 1.21)">
      <path id="Path_74" data-name="Path 74" d="M9.459,17.708a8.249,8.249,0,1,1,8.249-8.249A8.259,8.259,0,0,1,9.459,17.708Zm0-14.807a6.558,6.558,0,1,0,6.558,6.558A6.566,6.566,0,0,0,9.459,2.9Z" transform="translate(-1.21 -1.21)" fill="#000"/>
      <path id="Path_75" data-name="Path 75" d="M48.145,26.255a.837.837,0,0,1-.49-.157L45,24.2V19.255a.845.845,0,1,1,1.691,0V23.33l1.946,1.391a.845.845,0,0,1-.492,1.533Z" transform="translate(-37.596 -15.502)" fill="#000"/>
    </g>
  </g>
</svg>
