<svg width="18" height="9" viewBox="0 0 18 9" fill="none" xmlns="http://www.w3.org/2000/svg">
<path d="M15.9691 0.448298L9.52725 6.78842C9.3867 6.92747 9.19697 7.00547 8.99925 7.00547C8.80154 7.00547 8.6118 6.92747 8.47125 6.78842L2.02937 0.449673C1.88795 0.310694 1.69759 0.232819 1.49931 0.232819C1.30103 0.232819 1.11067 0.310694 0.969246 0.449673C0.899605 0.517566 0.844257 0.598713 0.806467 0.688331C0.768677 0.777949 0.749208 0.874226 0.749208 0.971486C0.749208 1.06875 0.768677 1.16502 0.806467 1.25464C0.844257 1.34426 0.899605 1.4254 0.969246 1.4933L7.40975 7.83205C7.83397 8.24857 8.40473 8.48193 8.99925 8.48193C9.59377 8.48193 10.1645 8.24857 10.5888 7.83205L17.0293 1.4933C17.0991 1.42538 17.1546 1.34415 17.1925 1.25441C17.2305 1.16466 17.25 1.06822 17.25 0.970797C17.25 0.873372 17.2305 0.776936 17.1925 0.68719C17.1546 0.597445 17.0991 0.516212 17.0293 0.448298C16.8878 0.309319 16.6975 0.231443 16.4992 0.231443C16.3009 0.231443 16.1106 0.309319 15.9691 0.448298Z" fill="black"/>
</svg>
