<svg width="13" height="7" viewBox="0 0 13 7" fill="none" xmlns="http://www.w3.org/2000/svg">
<path fill-rule="evenodd" clip-rule="evenodd" d="M0.187133 0.233236C-0.0656404 0.490958 -0.0656404 0.907769 0.187133 1.16486L5.54333 6.61394C5.6614 6.73592 5.8035 6.83304 5.96099 6.89941C6.11849 6.96578 6.28809 7 6.45947 7C6.63086 7 6.80046 6.96578 6.95795 6.89941C7.11545 6.83304 7.25755 6.73592 7.37562 6.61394L12.7714 1.1254C12.8919 1.00084 12.9597 0.835881 12.9609 0.664032C12.9621 0.492182 12.8967 0.326326 12.7778 0.200145C12.7192 0.137637 12.648 0.0876231 12.5689 0.0531991C12.4897 0.0187752 12.4042 0.000674706 12.3176 1.85053e-05C12.231 -0.000637695 12.1452 0.0161644 12.0655 0.0493842C11.9858 0.0826041 11.9139 0.131534 11.8542 0.193145L6.91738 5.21651C6.85835 5.27755 6.78728 5.32615 6.7085 5.35937C6.62972 5.39258 6.54488 5.40971 6.45915 5.40971C6.37342 5.40971 6.28858 5.39258 6.2098 5.35937C6.13103 5.32615 6.05996 5.27755 6.00092 5.21651L1.10295 0.233236C1.04397 0.172216 0.972955 0.123623 0.894232 0.0904164C0.815508 0.05721 0.730723 0.0400853 0.645042 0.0400853C0.559361 0.0400853 0.474575 0.05721 0.395852 0.0904164C0.317128 0.123623 0.246113 0.172216 0.187133 0.233236Z" fill="black"/>
</svg>
