<svg width="30" height="30" viewBox="0 0 30 30" fill="none" xmlns="http://www.w3.org/2000/svg">
<path d="M4.69729 0H14.0919C15.3377 0 16.5324 0.499059 17.4133 1.38739C18.2943 2.27572 18.7891 3.48055 18.7891 4.73684V11.0526H17.2234V4.73684C17.2234 3.89932 16.8935 3.09609 16.3062 2.50387C15.7189 1.91165 14.9224 1.57895 14.0919 1.57895H4.69729C3.86675 1.57895 3.07024 1.91165 2.48296 2.50387C1.89569 3.09609 1.56576 3.89932 1.56576 4.73684V25.2632C1.56576 26.1007 1.89569 26.9039 2.48296 27.4961C3.07024 28.0883 3.86675 28.4211 4.69729 28.4211H14.0919C14.9224 28.4211 15.7189 28.0883 16.3062 27.4961C16.8935 26.9039 17.2234 26.1007 17.2234 25.2632V18.9474H18.7891V25.2632C18.7891 26.5194 18.2943 27.7243 17.4133 28.6126C16.5324 29.5009 15.3377 30 14.0919 30H4.69729C3.45149 30 2.25672 29.5009 1.3758 28.6126C0.494891 27.7243 0 26.5194 0 25.2632V4.73684C0 3.48055 0.494891 2.27572 1.3758 1.38739C2.25672 0.499059 3.45149 0 4.69729 0ZM9.39457 14.2105H27.0094L21.9207 9.07895L22.9541 7.89474L30 15L22.9541 22.1053L21.9207 20.9211L27.0094 15.7895H9.39457V14.2105Z" fill="#E51717"/>
</svg>
