<svg width="39" height="39" viewBox="0 0 39 39" fill="none" xmlns="http://www.w3.org/2000/svg">
<path d="M19.6732 38.8487C30.1716 38.8487 38.6822 30.3381 38.6822 19.8397C38.6822 9.34123 30.1716 0.830566 19.6732 0.830566C9.17472 0.830566 0.664062 9.34123 0.664062 19.8397C0.664062 30.3381 9.17472 38.8487 19.6732 38.8487Z" fill="#3C5A9A"/>
<path d="M25.8569 6.66504H21.646C19.147 6.66504 16.3675 7.71606 16.3675 11.3384C16.3797 12.6005 16.3675 13.8093 16.3675 15.1697H13.4766V19.77H16.457V33.0136H21.9336V19.6826H25.5483L25.8754 15.1568H21.8392C21.8392 15.1568 21.8482 13.1435 21.8392 12.5588C21.8392 11.1274 23.3287 11.2093 23.4183 11.2093C24.1271 11.2093 25.5052 11.2114 25.859 11.2093V6.66504H25.8569Z" fill="white"/>
</svg>
