<svg xmlns="http://www.w3.org/2000/svg" xmlns:xlink="http://www.w3.org/1999/xlink" width="30" height="25" viewBox="0 0 22 14">
  <defs>
    <clipPath id="clip-path">
      <rect id="Rectangle_293" data-name="Rectangle 293" width="22" height="14" transform="translate(-68.563 12.614)" fill="#222222" stroke="#707070" stroke-width="1"/>
    </clipPath>
  </defs>
  <g id="Gallery" transform="translate(68.563 -12.614)" clip-path="url(#clip-path)">
    <path id="_290132_gallery_image_photo_photography_picture_icon" data-name="290132_gallery_image_photo_photography_picture_icon" d="M40.839,179.447H25.284a1.637,1.637,0,0,1-1.637-1.637V167.167a1.637,1.637,0,0,1,1.637-1.637H40.839a1.637,1.637,0,0,1,1.637,1.637V177.81A1.637,1.637,0,0,1,40.839,179.447Zm.819-12.28a.819.819,0,0,0-.819-.819H25.284a.819.819,0,0,0-.819.819V177.81a.819.819,0,0,0,.819.819H40.839a.819.819,0,0,0,.819-.819Zm-1.5,9.708-2.593-2.593-1.481,1.481,1.365,1.365a.4.4,0,1,1-.565.565l-5.868-5.868-5.049,5.049a.4.4,0,1,1-.565-.565l5.283-5.283a.367.367,0,0,1,.039-.059.376.376,0,0,1,.624.059l4.171,4.171,1.715-1.715a.418.418,0,0,1,.039-.059.43.43,0,0,1,.585,0,.418.418,0,0,1,.039.059l2.827,2.827a.4.4,0,0,1-.565.565Zm-5.049-6.433a1.637,1.637,0,1,1,1.637-1.637A1.637,1.637,0,0,1,35.109,170.442Zm0-2.456a.819.819,0,1,0,.819.819A.819.819,0,0,0,35.109,167.985Z" transform="translate(-90.807 -152.662)" fill="#222222" fill-rule="evenodd"/>
  </g>
</svg>
