<svg width="36" height="36" viewBox="0 0 36 36" fill="none" xmlns="http://www.w3.org/2000/svg">
<g clip-path="url(#clip0_276_6824)">
<path d="M35.2553 18.1692C35.2553 16.727 35.1355 15.6745 34.8763 14.5831H18.0234V21.0925H27.9157C27.7163 22.7102 26.6393 25.1464 24.246 26.7835L24.2124 27.0014L29.541 31.0352L29.9102 31.0712C33.3006 28.0114 35.2553 23.5093 35.2553 18.1692Z" fill="#4285F4"/>
<path d="M18.0196 35.3198C22.866 35.3198 26.9345 33.7606 29.9063 31.0711L24.2421 26.7833C22.7264 27.8163 20.692 28.5374 18.0196 28.5374C13.2729 28.5374 9.24418 25.4776 7.80806 21.2484L7.59756 21.2659L2.05683 25.4561L1.98438 25.653C4.93609 31.3828 10.9992 35.3198 18.0196 35.3198Z" fill="#34A853"/>
<path d="M7.8086 21.2485C7.42966 20.1571 7.21036 18.9876 7.21036 17.7793C7.21036 16.5709 7.42966 15.4016 7.78866 14.3102L7.77862 14.0778L2.16847 9.82019L1.98491 9.90551C0.768368 12.2833 0.0703125 14.9534 0.0703125 17.7793C0.0703125 20.6053 0.768368 23.2753 1.98491 25.653L7.8086 21.2485Z" fill="#FBBC05"/>
<path d="M18.0196 7.02107C21.3901 7.02107 23.6637 8.4438 24.9601 9.63274L30.0259 4.79931C26.9147 1.97334 22.866 0.23877 18.0196 0.23877C10.9991 0.23877 4.93609 4.17562 1.98438 9.90549L7.78812 14.3102C9.24418 10.081 13.2729 7.02107 18.0196 7.02107Z" fill="#EB4335"/>
</g>
<defs>
<clipPath id="clip0_276_6824">
<rect width="35.202" height="35.202" fill="white" transform="translate(0.0703125 0.23877)"/>
</clipPath>
</defs>
</svg>
