<svg width="40" height="40" viewBox="0 0 40 40" fill="none" xmlns="http://www.w3.org/2000/svg">
<circle cx="20" cy="20" r="20" fill="#F4F4F4"/>
<g clip-path="url(#clip0_70_7517)">
<path d="M24.5144 25.5487C24.379 25.4608 24.2142 25.4302 24.0562 25.4634C23.8982 25.4966 23.7598 25.591 23.6711 25.7259C22.8095 27.0459 21.2268 28.6652 19.8152 29.2091C18.4036 29.7529 17.2976 29.5574 16.8576 29.2091C16.6682 29.0441 16.1732 28.598 16.5948 27.0764C16.8759 26.062 18.6236 21.2834 19.0392 20.1223L17.707 20.2934C17.2854 21.43 15.6965 25.6954 15.4093 26.7586C14.9938 28.2802 15.2016 29.3863 16.0754 30.1563C16.6862 30.5842 17.42 30.8009 18.1653 30.7734C18.8886 30.7634 19.6036 30.6184 20.2735 30.3457C21.9784 29.6796 23.7689 27.828 24.71 26.392C24.7526 26.3238 24.7814 26.2479 24.7947 26.1686C24.808 26.0893 24.8054 26.0081 24.7873 25.9298C24.7691 25.8514 24.7357 25.7774 24.6888 25.712C24.642 25.6466 24.5827 25.5911 24.5144 25.5487Z" fill="black"/>
<path d="M20.7971 16.7275C21.341 16.7275 21.8728 16.5662 22.325 16.264C22.7773 15.9618 23.1298 15.5323 23.338 15.0297C23.5461 14.5272 23.6006 13.9742 23.4945 13.4407C23.3883 12.9072 23.1264 12.4172 22.7418 12.0326C22.3572 11.6479 21.8671 11.386 21.3336 11.2799C20.8001 11.1738 20.2472 11.2282 19.7446 11.4364C19.2421 11.6446 18.8126 11.9971 18.5104 12.4493C18.2082 12.9016 18.0469 13.4333 18.0469 13.9773C18.0469 14.7067 18.3366 15.4062 18.8524 15.922C19.3682 16.4377 20.0677 16.7275 20.7971 16.7275ZM20.7971 12.4494C21.0993 12.4494 21.3947 12.539 21.6459 12.7069C21.8972 12.8748 22.093 13.1134 22.2087 13.3926C22.3243 13.6718 22.3546 13.979 22.2956 14.2753C22.2367 14.5717 22.0912 14.844 21.8775 15.0577C21.6638 15.2713 21.3915 15.4169 21.0952 15.4758C20.7988 15.5348 20.4916 15.5045 20.2124 15.3889C19.9332 15.2732 19.6946 15.0774 19.5267 14.8261C19.3588 14.5749 19.2692 14.2795 19.2692 13.9773C19.2692 13.572 19.4302 13.1834 19.7167 12.8969C20.0032 12.6103 20.3919 12.4494 20.7971 12.4494Z" fill="black"/>
<path d="M16.213 19.1657C16.2497 19.1657 20.0445 18.6646 20.9366 18.5546C21.3338 18.4935 21.6333 18.5546 21.731 18.6462C21.8288 18.7379 21.8594 19.1351 21.6883 19.6729C21.3155 20.8095 19.4334 26.3947 18.8834 28.0508C19.1522 27.9956 19.4159 27.9179 19.6717 27.8186C19.9164 27.7174 20.1515 27.5947 20.3744 27.4519C21.1261 25.2765 22.5316 21.06 22.8493 20.0945C23.1671 19.129 23.0876 18.3957 22.666 17.8946C22.4255 17.6507 22.1244 17.4752 21.7936 17.3861C21.4629 17.297 21.1144 17.2974 20.7839 17.3874C19.91 17.4791 16.2191 17.9618 16.0602 17.9985C15.8982 18.0196 15.7511 18.1041 15.6514 18.2336C15.5517 18.3631 15.5075 18.5269 15.5286 18.689C15.5497 18.8511 15.6342 18.9981 15.7637 19.0978C15.8932 19.1975 16.057 19.2417 16.2191 19.2207L16.213 19.1657Z" fill="black"/>
</g>
<defs>
<clipPath id="clip0_70_7517">
<rect width="22" height="22" fill="white" transform="translate(9 10)"/>
</clipPath>
</defs>
</svg>
