<svg xmlns="http://www.w3.org/2000/svg" width="20.875" height="20.875" viewBox="0 0 14.875 14.875">
  <path id="Vector" d="M8.79,11.494q.165,0,.328-.01-.079.089-.164.174L6.925,13.687A4.057,4.057,0,0,1,1.188,7.95L3.217,5.921q.085-.085.174-.164A4.06,4.06,0,0,1,9.747,7.04a1.354,1.354,0,0,1-1.354.338,2.7,2.7,0,0,0-4.22-.5l-.609.609L2.144,8.906a2.7,2.7,0,0,0,3.825,3.825l1.419-1.42A5.425,5.425,0,0,0,8.79,11.494Zm4.9-10.306a4.057,4.057,0,0,0-5.737,0L5.921,3.217q-.085.085-.164.174a5.415,5.415,0,0,1,1.729.173L8.906,2.145a2.7,2.7,0,0,1,3.825,3.825l-1.42,1.419L10.7,8a2.7,2.7,0,0,1-4.22-.5,1.35,1.35,0,0,0-1.354.338,4.057,4.057,0,0,0,6.356,1.283q.089-.079.174-.164l2.028-2.028A4.057,4.057,0,0,0,13.687,1.188Z" fill="#fff"/>
</svg>
