<svg width="30" height="30" viewBox="0 0 30 30" fill="none" xmlns="http://www.w3.org/2000/svg">
<path d="M0.473684 10C0.473684 4.73876 4.73876 0.473684 10 0.473684H20C25.2612 0.473684 29.5263 4.73876 29.5263 10V20C29.5263 25.2612 25.2612 29.5263 20 29.5263H10C4.73876 29.5263 0.473684 25.2612 0.473684 20V10Z" stroke="#631AB8" stroke-width="0.947368"/>
<path d="M14.4716 7.36572C11.2698 7.37186 9.59438 7.44993 8.52333 8.52186C7.36719 9.678 7.36719 11.5385 7.36719 15.2605C7.36719 18.9815 7.36719 20.8429 8.52333 21.9991C9.67947 23.1552 11.54 23.1552 15.2602 23.1552C18.9821 23.1552 20.8426 23.1552 21.9988 21.9991C23.0689 20.928 23.1479 19.2508 23.154 16.0499M22.7672 7.80081L14.4286 16.1903M18.7988 7.41748C19.4154 7.40871 22.3347 7.36835 22.7681 7.80169C23.2014 8.2359 23.161 11.1587 23.1523 11.7762" stroke="#631AB8" stroke-width="1.89474" stroke-linecap="round" stroke-linejoin="round"/>
</svg>
