<svg width="14" height="19" viewBox="0 0 14 19" fill="none" xmlns="http://www.w3.org/2000/svg">
<path d="M6.65006 1.69116e-06C5.77659 -0.00062144 4.91156 0.170962 4.10446 0.504938C3.29735 0.838914 2.56401 1.32873 1.94637 1.94637C1.32873 2.56401 0.838914 3.29735 0.504938 4.10446C0.170962 4.91156 -0.00062144 5.77659 1.69116e-06 6.65006C1.69116e-06 11.6379 6.65006 19 6.65006 19C6.65006 19 13.3001 11.6379 13.3001 6.65006C13.3007 5.77659 13.1292 4.91156 12.7952 4.10446C12.4612 3.29735 11.9714 2.56401 11.3538 1.94637C10.7361 1.32873 10.0028 0.838914 9.19566 0.504938C8.38856 0.170962 7.52353 -0.00062144 6.65006 1.69116e-06ZM6.65006 9.0255C6.18141 9.0255 5.72329 8.88653 5.33363 8.62617C4.94396 8.3658 4.64025 7.99573 4.46091 7.56276C4.28157 7.12979 4.23464 6.65336 4.32607 6.19371C4.4175 5.73407 4.64317 5.31186 4.97456 4.98048C5.30594 4.6491 5.72815 4.42342 6.18779 4.33199C6.64743 4.24056 7.12386 4.28749 7.55684 4.46683C7.98981 4.64618 8.35988 4.94988 8.62024 5.33955C8.88061 5.72921 9.01958 6.18734 9.01958 6.65598C9.01802 7.28394 8.76787 7.88573 8.32384 8.32976C7.8798 8.77379 7.27802 9.02394 6.65006 9.0255Z" fill="white"/>
</svg>
