<svg width="21" height="29" viewBox="0 0 21 29" fill="none" xmlns="http://www.w3.org/2000/svg">
<path d="M10.3663 1.41533e-05C9.06735 -0.000718679 7.781 0.254587 6.58079 0.751333C5.38058 1.24808 4.29006 1.97652 3.37157 2.89502C2.45307 3.81351 1.72463 4.90403 1.22788 6.10424C0.731136 7.30445 0.475831 8.5908 0.476564 9.88975C0.476564 17.307 10.3663 28.2588 10.3663 28.2588C10.3663 28.2588 20.2672 17.307 20.2672 9.88975C20.2679 8.58986 20.0122 7.3026 19.5148 6.10166C19.0174 4.90073 18.2879 3.8097 17.3682 2.89107C16.4486 1.97243 15.3567 1.24422 14.1552 0.748126C12.9537 0.252037 11.6662 -0.00218552 10.3663 1.41533e-05ZM10.3663 13.4242C9.6678 13.4242 8.98499 13.2171 8.40422 12.829C7.82344 12.4409 7.37078 11.8894 7.10348 11.244C6.83617 10.5987 6.76624 9.88862 6.90251 9.20354C7.03877 8.51847 7.37513 7.88919 7.86904 7.39528C8.36295 6.90137 8.99223 6.56501 9.67731 6.42874C10.3624 6.29248 11.0725 6.36241 11.7178 6.62972C12.3631 6.89702 12.9147 7.34968 13.3028 7.93045C13.6908 8.51123 13.8979 9.19404 13.8979 9.89253C13.8972 10.829 13.5249 11.7268 12.8627 12.389C12.2006 13.0511 11.3027 13.4234 10.3663 13.4242Z" fill="#631AB8"/>
</svg>
