<svg width="19" height="15" viewBox="0 0 19 15" fill="none" xmlns="http://www.w3.org/2000/svg">
<rect width="19" height="15" rx="2" fill="#3E943E"/>
<path d="M5 7.55733C5 6.50994 5 5.98681 5.32962 5.66137C5.65925 5.33594 6.18912 5.33594 7.25 5.33594H11.75C12.8109 5.33594 13.3407 5.33594 13.6704 5.66137C14 5.98681 14 6.50994 14 7.55733V8.66802C14 10.2385 14 11.0244 13.5056 11.512C13.0117 12.0001 12.2158 12.0001 10.625 12.0001H8.375C6.78425 12.0001 5.98831 12.0001 5.49444 11.512C5 11.0244 5 10.2385 5 8.66802V7.55733Z" stroke="white"/>
<path d="M11.75 4.77674V4.22139C11.75 3.63224 11.5129 3.06722 11.091 2.65063C10.669 2.23404 10.0967 2 9.5 2C8.90326 2 8.33097 2.23404 7.90901 2.65063C7.48705 3.06722 7.25 3.63224 7.25 4.22139V4.77674" stroke="white" stroke-linecap="round"/>
<path d="M9.5 9.77998C10.1213 9.77998 10.625 9.28271 10.625 8.66929C10.625 8.05587 10.1213 7.55859 9.5 7.55859C8.87868 7.55859 8.375 8.05587 8.375 8.66929C8.375 9.28271 8.87868 9.77998 9.5 9.77998Z" fill="white"/>
</svg>
