<svg width="11" height="12" viewBox="0 0 11 12" fill="none" xmlns="http://www.w3.org/2000/svg">
<path d="M1 6.55733C1 5.50994 1 4.98681 1.32962 4.66137C1.65925 4.33594 2.18912 4.33594 3.25 4.33594H7.75C8.81088 4.33594 9.34075 4.33594 9.67037 4.66137C10 4.98681 10 5.50994 10 6.55733V7.66802C10 9.23855 10 10.0244 9.50556 10.512C9.01169 11.0001 8.21575 11.0001 6.625 11.0001H4.375C2.78425 11.0001 1.98831 11.0001 1.49444 10.512C1 10.0244 1 9.23855 1 7.66802V6.55733Z" stroke="white"/>
<path d="M7.75 3.77674V3.22139C7.75 2.63224 7.51295 2.06722 7.09099 1.65063C6.66903 1.23404 6.09674 1 5.5 1C4.90326 1 4.33097 1.23404 3.90901 1.65063C3.48705 2.06722 3.25 2.63224 3.25 3.22139V3.77674" stroke="white" stroke-linecap="round"/>
<path d="M5.5 8.77998C6.12132 8.77998 6.625 8.28271 6.625 7.66929C6.625 7.05587 6.12132 6.55859 5.5 6.55859C4.87868 6.55859 4.375 7.05587 4.375 7.66929C4.375 8.28271 4.87868 8.77998 5.5 8.77998Z" fill="white"/>
</svg>
