<svg width="467" height="78" viewBox="0 0 467 78" fill="none" xmlns="http://www.w3.org/2000/svg">
<path d="M11.952 68.432C9.984 68.432 8.232 67.928 6.696 66.92C5.184 65.912 3.996 64.484 3.132 62.636C2.292 60.788 1.872 58.604 1.872 56.084C1.872 53.564 2.292 51.404 3.132 49.604C3.996 47.78 5.184 46.388 6.696 45.428C8.232 44.444 9.984 43.952 11.952 43.952C13.944 43.952 15.696 44.444 17.208 45.428C18.72 46.388 19.908 47.78 20.772 49.604C21.636 51.404 22.068 53.564 22.068 56.084C22.068 58.604 21.636 60.788 20.772 62.636C19.908 64.484 18.72 65.912 17.208 66.92C15.696 67.928 13.944 68.432 11.952 68.432ZM11.952 65.804C13.368 65.804 14.592 65.408 15.624 64.616C16.68 63.8 17.496 62.672 18.072 61.232C18.648 59.768 18.936 58.052 18.936 56.084C18.936 53.156 18.3 50.84 17.028 49.136C15.756 47.432 14.064 46.58 11.952 46.58C9.84 46.58 8.148 47.432 6.876 49.136C5.604 50.84 4.968 53.156 4.968 56.084C4.968 58.052 5.256 59.768 5.832 61.232C6.408 62.672 7.224 63.8 8.28 64.616C9.336 65.408 10.56 65.804 11.952 65.804ZM26.8583 68V50.504H29.3063L29.5583 53.024H29.6663C30.5063 52.184 31.3943 51.488 32.3303 50.936C33.2663 50.36 34.3343 50.072 35.5343 50.072C37.3823 50.072 38.7263 50.66 39.5663 51.836C40.4303 52.988 40.8623 54.68 40.8623 56.912V68H37.9103V57.308C37.9103 55.676 37.6463 54.488 37.1183 53.744C36.5903 53 35.7503 52.628 34.5983 52.628C33.7103 52.628 32.9063 52.856 32.1863 53.312C31.4903 53.768 30.6983 54.44 29.8103 55.328V68H26.8583ZM53.6378 68.432C52.0778 68.432 50.6618 68.072 49.3898 67.352C48.1178 66.608 47.1098 65.552 46.3658 64.184C45.6218 62.816 45.2498 61.184 45.2498 59.288C45.2498 57.368 45.6218 55.724 46.3658 54.356C47.1338 52.988 48.1178 51.932 49.3178 51.188C50.5178 50.444 51.7778 50.072 53.0977 50.072C55.3298 50.072 57.0458 50.816 58.2458 52.304C59.4698 53.792 60.0818 55.784 60.0818 58.28C60.0818 58.592 60.0698 58.904 60.0458 59.216C60.0458 59.504 60.0218 59.756 59.9738 59.972H48.1658C48.2858 61.82 48.8618 63.296 49.8938 64.4C50.9498 65.504 52.3178 66.056 53.9978 66.056C54.8378 66.056 55.6058 65.936 56.3018 65.696C57.0218 65.432 57.7058 65.096 58.3538 64.688L59.3978 66.632C58.6538 67.112 57.8018 67.532 56.8418 67.892C55.9058 68.252 54.8378 68.432 53.6378 68.432ZM48.1298 57.848H57.4898C57.4898 56.072 57.1058 54.728 56.3378 53.816C55.5938 52.88 54.5378 52.412 53.1698 52.412C51.9458 52.412 50.8418 52.892 49.8578 53.852C48.8978 54.788 48.3218 56.12 48.1298 57.848ZM71.9002 68V44.384H78.6322C80.4082 44.384 81.9562 44.6 83.2762 45.032C84.5962 45.464 85.6282 46.196 86.3722 47.228C87.1162 48.236 87.4882 49.604 87.4882 51.332C87.4882 53.804 86.6842 55.64 85.0762 56.84C83.4682 58.04 81.3682 58.64 78.7762 58.64H74.8882V68H71.9002ZM74.8882 56.192H78.4162C80.4802 56.192 82.0042 55.808 82.9882 55.04C83.9962 54.248 84.5002 53.012 84.5002 51.332C84.5002 49.628 83.9722 48.452 82.9162 47.804C81.8842 47.132 80.3362 46.796 78.2722 46.796H74.8882V56.192ZM95.1348 68.432C94.0308 68.432 93.2268 68.096 92.7228 67.424C92.2428 66.728 92.0028 65.744 92.0028 64.472V42.368H94.9548V64.688C94.9548 65.144 95.0388 65.48 95.2068 65.696C95.3748 65.888 95.5668 65.984 95.7828 65.984C95.8788 65.984 95.9628 65.984 96.0348 65.984C96.1308 65.96 96.2628 65.936 96.4308 65.912L96.8268 68.144C96.6348 68.24 96.4068 68.312 96.1428 68.36C95.8788 68.408 95.5428 68.432 95.1348 68.432ZM105.211 68.432C103.747 68.432 102.523 68 101.539 67.136C100.579 66.248 100.099 65.024 100.099 63.464C100.099 61.544 100.951 60.08 102.655 59.072C104.383 58.04 107.107 57.32 110.827 56.912C110.827 56.168 110.719 55.46 110.503 54.788C110.311 54.116 109.951 53.576 109.423 53.168C108.919 52.736 108.187 52.52 107.227 52.52C106.219 52.52 105.271 52.712 104.383 53.096C103.495 53.48 102.703 53.912 102.007 54.392L100.855 52.34C101.671 51.812 102.667 51.308 103.843 50.828C105.043 50.324 106.339 50.072 107.731 50.072C109.867 50.072 111.415 50.732 112.375 52.052C113.335 53.348 113.815 55.088 113.815 57.272V68H111.367L111.115 65.912H111.007C110.191 66.584 109.291 67.172 108.307 67.676C107.347 68.18 106.315 68.432 105.211 68.432ZM106.075 66.056C106.915 66.056 107.707 65.852 108.451 65.444C109.195 65.036 109.987 64.46 110.827 63.716V58.856C107.923 59.216 105.883 59.756 104.707 60.476C103.555 61.196 102.979 62.12 102.979 63.248C102.979 64.232 103.279 64.952 103.879 65.408C104.479 65.84 105.211 66.056 106.075 66.056ZM124.335 68.432C122.463 68.432 121.155 67.892 120.411 66.812C119.691 65.732 119.331 64.328 119.331 62.6V52.916H116.739V50.684L119.475 50.504L119.835 45.608H122.319V50.504H127.035V52.916H122.319V62.636C122.319 63.716 122.511 64.556 122.895 65.156C123.303 65.732 124.011 66.02 125.019 66.02C125.331 66.02 125.667 65.972 126.027 65.876C126.387 65.756 126.711 65.648 126.999 65.552L127.575 67.784C127.095 67.952 126.567 68.096 125.991 68.216C125.439 68.36 124.887 68.432 124.335 68.432ZM131.495 68V52.916H129.119V50.684L131.495 50.504V47.732C131.495 45.956 131.903 44.552 132.719 43.52C133.559 42.464 134.855 41.936 136.607 41.936C137.159 41.936 137.687 41.996 138.191 42.116C138.695 42.212 139.139 42.344 139.523 42.512L138.875 44.78C138.227 44.492 137.567 44.348 136.895 44.348C135.263 44.348 134.447 45.476 134.447 47.732V50.504H138.155V52.916H134.447V68H131.495ZM147.955 68.432C146.539 68.432 145.207 68.072 143.959 67.352C142.735 66.632 141.739 65.588 140.971 64.22C140.227 62.852 139.855 61.208 139.855 59.288C139.855 57.32 140.227 55.652 140.971 54.284C141.739 52.916 142.735 51.872 143.959 51.152C145.207 50.432 146.539 50.072 147.955 50.072C149.395 50.072 150.727 50.432 151.951 51.152C153.175 51.872 154.159 52.916 154.903 54.284C155.671 55.652 156.055 57.32 156.055 59.288C156.055 61.208 155.671 62.852 154.903 64.22C154.159 65.588 153.175 66.632 151.951 67.352C150.727 68.072 149.395 68.432 147.955 68.432ZM147.955 65.984C149.467 65.984 150.679 65.372 151.591 64.148C152.527 62.9 152.995 61.28 152.995 59.288C152.995 57.272 152.527 55.64 151.591 54.392C150.679 53.144 149.467 52.52 147.955 52.52C146.467 52.52 145.255 53.144 144.319 54.392C143.383 55.64 142.915 57.272 142.915 59.288C142.915 61.28 143.383 62.9 144.319 64.148C145.255 65.372 146.467 65.984 147.955 65.984ZM160.663 68V50.504H163.111L163.363 53.672H163.471C164.071 52.568 164.803 51.692 165.667 51.044C166.531 50.396 167.455 50.072 168.439 50.072C169.135 50.072 169.759 50.192 170.311 50.432L169.735 53.024C169.447 52.928 169.183 52.856 168.943 52.808C168.703 52.76 168.403 52.736 168.043 52.736C167.299 52.736 166.519 53.036 165.703 53.636C164.911 54.236 164.215 55.28 163.615 56.768V68H160.663ZM173.143 68V50.504H175.591L175.843 53.024H175.951C176.719 52.184 177.559 51.488 178.471 50.936C179.383 50.36 180.355 50.072 181.387 50.072C182.731 50.072 183.775 50.372 184.519 50.972C185.287 51.548 185.851 52.364 186.211 53.42C187.123 52.436 188.047 51.632 188.983 51.008C189.919 50.384 190.915 50.072 191.971 50.072C193.771 50.072 195.103 50.66 195.967 51.836C196.855 52.988 197.299 54.68 197.299 56.912V68H194.347V57.308C194.347 55.676 194.083 54.488 193.555 53.744C193.027 53 192.211 52.628 191.107 52.628C189.811 52.628 188.347 53.528 186.715 55.328V68H183.763V57.308C183.763 55.676 183.499 54.488 182.971 53.744C182.443 53 181.615 52.628 180.487 52.628C179.191 52.628 177.727 53.528 176.095 55.328V68H173.143ZM204.539 68.432C203.939 68.432 203.423 68.228 202.991 67.82C202.583 67.388 202.379 66.848 202.379 66.2C202.379 65.504 202.583 64.952 202.991 64.544C203.423 64.112 203.939 63.896 204.539 63.896C205.115 63.896 205.607 64.112 206.015 64.544C206.447 64.952 206.663 65.504 206.663 66.2C206.663 66.848 206.447 67.388 206.015 67.82C205.607 68.228 205.115 68.432 204.539 68.432ZM219.451 68V44.384H233.059V46.904H222.439V54.896H231.439V57.416H222.439V68H219.451ZM243.264 68.432C241.848 68.432 240.516 68.072 239.268 67.352C238.044 66.632 237.048 65.588 236.28 64.22C235.536 62.852 235.164 61.208 235.164 59.288C235.164 57.32 235.536 55.652 236.28 54.284C237.048 52.916 238.044 51.872 239.268 51.152C240.516 50.432 241.848 50.072 243.264 50.072C244.704 50.072 246.036 50.432 247.26 51.152C248.484 51.872 249.468 52.916 250.212 54.284C250.98 55.652 251.364 57.32 251.364 59.288C251.364 61.208 250.98 62.852 250.212 64.22C249.468 65.588 248.484 66.632 247.26 67.352C246.036 68.072 244.704 68.432 243.264 68.432ZM243.264 65.984C244.776 65.984 245.988 65.372 246.9 64.148C247.836 62.9 248.304 61.28 248.304 59.288C248.304 57.272 247.836 55.64 246.9 54.392C245.988 53.144 244.776 52.52 243.264 52.52C241.776 52.52 240.564 53.144 239.628 54.392C238.692 55.64 238.224 57.272 238.224 59.288C238.224 61.28 238.692 62.9 239.628 64.148C240.564 65.372 241.776 65.984 243.264 65.984ZM255.972 68V50.504H258.42L258.672 53.672H258.78C259.38 52.568 260.112 51.692 260.976 51.044C261.84 50.396 262.764 50.072 263.748 50.072C264.444 50.072 265.068 50.192 265.62 50.432L265.044 53.024C264.756 52.928 264.492 52.856 264.252 52.808C264.012 52.76 263.712 52.736 263.352 52.736C262.608 52.736 261.828 53.036 261.012 53.636C260.22 54.236 259.524 55.28 258.924 56.768V68H255.972ZM279.691 68.432C278.227 68.432 277.003 68 276.019 67.136C275.059 66.248 274.579 65.024 274.579 63.464C274.579 61.544 275.431 60.08 277.135 59.072C278.863 58.04 281.587 57.32 285.307 56.912C285.307 56.168 285.199 55.46 284.983 54.788C284.791 54.116 284.431 53.576 283.903 53.168C283.399 52.736 282.667 52.52 281.707 52.52C280.699 52.52 279.751 52.712 278.863 53.096C277.975 53.48 277.183 53.912 276.487 54.392L275.335 52.34C276.151 51.812 277.147 51.308 278.323 50.828C279.523 50.324 280.819 50.072 282.211 50.072C284.347 50.072 285.895 50.732 286.855 52.052C287.815 53.348 288.295 55.088 288.295 57.272V68H285.847L285.595 65.912H285.487C284.671 66.584 283.771 67.172 282.787 67.676C281.827 68.18 280.795 68.432 279.691 68.432ZM280.555 66.056C281.395 66.056 282.187 65.852 282.931 65.444C283.675 65.036 284.467 64.46 285.307 63.716V58.856C282.403 59.216 280.363 59.756 279.187 60.476C278.035 61.196 277.459 62.12 277.459 63.248C277.459 64.232 277.759 64.952 278.359 65.408C278.959 65.84 279.691 66.056 280.555 66.056ZM293.8 68V50.504H296.248L296.5 53.024H296.608C297.448 52.184 298.336 51.488 299.272 50.936C300.208 50.36 301.276 50.072 302.476 50.072C304.324 50.072 305.668 50.66 306.508 51.836C307.372 52.988 307.804 54.68 307.804 56.912V68H304.852V57.308C304.852 55.676 304.588 54.488 304.06 53.744C303.532 53 302.692 52.628 301.54 52.628C300.652 52.628 299.848 52.856 299.128 53.312C298.432 53.768 297.64 54.44 296.752 55.328V68H293.8ZM313.775 75.524C313.391 75.524 313.019 75.488 312.659 75.416C312.323 75.344 312.011 75.26 311.723 75.164L312.299 72.824C312.491 72.872 312.707 72.92 312.947 72.968C313.187 73.04 313.415 73.076 313.631 73.076C314.615 73.076 315.431 72.716 316.079 71.996C316.727 71.3 317.231 70.412 317.591 69.332L317.987 68.036L310.967 50.504H314.027L317.591 60.188C317.855 60.932 318.131 61.736 318.419 62.6C318.731 63.464 319.019 64.304 319.283 65.12H319.427C319.691 64.328 319.943 63.5 320.183 62.636C320.423 61.772 320.663 60.956 320.903 60.188L324.035 50.504H326.915L320.327 69.44C319.919 70.592 319.427 71.624 318.851 72.536C318.299 73.448 317.603 74.168 316.763 74.696C315.947 75.248 314.951 75.524 313.775 75.524ZM337.787 68V44.384H344.807C346.415 44.384 347.819 44.576 349.019 44.96C350.243 45.344 351.191 45.956 351.863 46.796C352.559 47.636 352.907 48.752 352.907 50.144C352.907 51.32 352.607 52.388 352.007 53.348C351.431 54.284 350.579 54.932 349.451 55.292V55.436C350.867 55.7 352.019 56.3 352.907 57.236C353.819 58.172 354.275 59.456 354.275 61.088C354.275 62.624 353.891 63.908 353.123 64.94C352.379 65.972 351.335 66.74 349.991 67.244C348.647 67.748 347.087 68 345.311 68H337.787ZM340.775 54.428H344.267C346.283 54.428 347.735 54.08 348.623 53.384C349.511 52.688 349.955 51.74 349.955 50.54C349.955 49.172 349.487 48.2 348.551 47.624C347.639 47.048 346.259 46.76 344.411 46.76H340.775V54.428ZM340.775 65.624H344.879C346.919 65.624 348.503 65.252 349.631 64.508C350.759 63.74 351.323 62.564 351.323 60.98C351.323 59.516 350.759 58.448 349.631 57.776C348.527 57.08 346.943 56.732 344.879 56.732H340.775V65.624ZM363.775 68.432C361.927 68.432 360.571 67.856 359.707 66.704C358.843 65.528 358.411 63.824 358.411 61.592V50.504H361.399V61.196C361.399 62.828 361.651 64.016 362.155 64.76C362.683 65.504 363.523 65.876 364.675 65.876C365.587 65.876 366.391 65.648 367.087 65.192C367.807 64.712 368.575 63.956 369.391 62.924V50.504H372.343V68H369.895L369.643 65.264H369.535C368.719 66.224 367.855 66.992 366.943 67.568C366.031 68.144 364.975 68.432 363.775 68.432ZM382.817 68.432C381.569 68.432 380.381 68.204 379.253 67.748C378.125 67.268 377.141 66.692 376.301 66.02L377.777 64.04C378.545 64.64 379.337 65.144 380.153 65.552C380.969 65.936 381.893 66.128 382.925 66.128C384.077 66.128 384.941 65.864 385.517 65.336C386.093 64.784 386.381 64.136 386.381 63.392C386.381 62.792 386.177 62.288 385.769 61.88C385.385 61.472 384.881 61.136 384.257 60.872C383.657 60.584 383.033 60.32 382.385 60.08C381.569 59.768 380.765 59.42 379.973 59.036C379.181 58.628 378.533 58.112 378.029 57.488C377.525 56.84 377.273 56.024 377.273 55.04C377.273 53.624 377.801 52.448 378.857 51.512C379.937 50.552 381.425 50.072 383.321 50.072C384.401 50.072 385.409 50.264 386.345 50.648C387.281 51.032 388.085 51.5 388.757 52.052L387.317 53.924C386.717 53.468 386.093 53.096 385.445 52.808C384.797 52.52 384.089 52.376 383.321 52.376C382.217 52.376 381.401 52.628 380.873 53.132C380.369 53.636 380.117 54.224 380.117 54.896C380.117 55.448 380.297 55.904 380.657 56.264C381.017 56.6 381.485 56.9 382.061 57.164C382.637 57.404 383.249 57.656 383.897 57.92C384.737 58.232 385.565 58.592 386.381 59C387.197 59.384 387.869 59.912 388.397 60.584C388.949 61.232 389.225 62.108 389.225 63.212C389.225 64.148 388.973 65.012 388.469 65.804C387.989 66.596 387.269 67.232 386.309 67.712C385.373 68.192 384.209 68.432 382.817 68.432ZM393.327 68V50.504H396.279V68H393.327ZM394.839 46.904C394.263 46.904 393.783 46.736 393.399 46.4C393.039 46.04 392.859 45.56 392.859 44.96C392.859 44.384 393.039 43.916 393.399 43.556C393.783 43.196 394.263 43.016 394.839 43.016C395.415 43.016 395.883 43.196 396.243 43.556C396.627 43.916 396.819 44.384 396.819 44.96C396.819 45.56 396.627 46.04 396.243 46.4C395.883 46.736 395.415 46.904 394.839 46.904ZM402.186 68V50.504H404.634L404.886 53.024H404.994C405.834 52.184 406.722 51.488 407.658 50.936C408.594 50.36 409.662 50.072 410.862 50.072C412.71 50.072 414.054 50.66 414.894 51.836C415.758 52.988 416.19 54.68 416.19 56.912V68H413.238V57.308C413.238 55.676 412.974 54.488 412.446 53.744C411.918 53 411.078 52.628 409.926 52.628C409.038 52.628 408.234 52.856 407.514 53.312C406.818 53.768 406.026 54.44 405.138 55.328V68H402.186ZM428.966 68.432C427.406 68.432 425.99 68.072 424.718 67.352C423.446 66.608 422.438 65.552 421.694 64.184C420.95 62.816 420.578 61.184 420.578 59.288C420.578 57.368 420.95 55.724 421.694 54.356C422.462 52.988 423.446 51.932 424.646 51.188C425.846 50.444 427.106 50.072 428.426 50.072C430.658 50.072 432.374 50.816 433.574 52.304C434.798 53.792 435.41 55.784 435.41 58.28C435.41 58.592 435.398 58.904 435.374 59.216C435.374 59.504 435.35 59.756 435.302 59.972H423.494C423.614 61.82 424.19 63.296 425.222 64.4C426.278 65.504 427.646 66.056 429.326 66.056C430.166 66.056 430.934 65.936 431.63 65.696C432.35 65.432 433.034 65.096 433.682 64.688L434.726 66.632C433.982 67.112 433.13 67.532 432.17 67.892C431.234 68.252 430.166 68.432 428.966 68.432ZM423.458 57.848H432.818C432.818 56.072 432.434 54.728 431.666 53.816C430.922 52.88 429.866 52.412 428.498 52.412C427.274 52.412 426.17 52.892 425.186 53.852C424.226 54.788 423.65 56.12 423.458 57.848ZM444.305 68.432C443.057 68.432 441.869 68.204 440.741 67.748C439.613 67.268 438.629 66.692 437.789 66.02L439.265 64.04C440.033 64.64 440.825 65.144 441.641 65.552C442.457 65.936 443.381 66.128 444.413 66.128C445.565 66.128 446.429 65.864 447.005 65.336C447.581 64.784 447.869 64.136 447.869 63.392C447.869 62.792 447.665 62.288 447.257 61.88C446.873 61.472 446.369 61.136 445.745 60.872C445.145 60.584 444.521 60.32 443.873 60.08C443.057 59.768 442.253 59.42 441.461 59.036C440.669 58.628 440.021 58.112 439.517 57.488C439.013 56.84 438.761 56.024 438.761 55.04C438.761 53.624 439.289 52.448 440.345 51.512C441.425 50.552 442.913 50.072 444.809 50.072C445.889 50.072 446.897 50.264 447.833 50.648C448.769 51.032 449.573 51.5 450.245 52.052L448.805 53.924C448.205 53.468 447.581 53.096 446.933 52.808C446.285 52.52 445.577 52.376 444.809 52.376C443.705 52.376 442.889 52.628 442.361 53.132C441.857 53.636 441.605 54.224 441.605 54.896C441.605 55.448 441.785 55.904 442.145 56.264C442.505 56.6 442.973 56.9 443.549 57.164C444.125 57.404 444.737 57.656 445.385 57.92C446.225 58.232 447.053 58.592 447.869 59C448.685 59.384 449.357 59.912 449.885 60.584C450.437 61.232 450.713 62.108 450.713 63.212C450.713 64.148 450.461 65.012 449.957 65.804C449.477 66.596 448.757 67.232 447.797 67.712C446.861 68.192 445.697 68.432 444.305 68.432ZM459.387 68.432C458.139 68.432 456.951 68.204 455.823 67.748C454.695 67.268 453.711 66.692 452.871 66.02L454.347 64.04C455.115 64.64 455.907 65.144 456.723 65.552C457.539 65.936 458.463 66.128 459.495 66.128C460.647 66.128 461.511 65.864 462.087 65.336C462.663 64.784 462.951 64.136 462.951 63.392C462.951 62.792 462.747 62.288 462.339 61.88C461.955 61.472 461.451 61.136 460.827 60.872C460.227 60.584 459.603 60.32 458.955 60.08C458.139 59.768 457.335 59.42 456.543 59.036C455.751 58.628 455.103 58.112 454.599 57.488C454.095 56.84 453.843 56.024 453.843 55.04C453.843 53.624 454.371 52.448 455.427 51.512C456.507 50.552 457.995 50.072 459.891 50.072C460.971 50.072 461.979 50.264 462.915 50.648C463.851 51.032 464.655 51.5 465.327 52.052L463.887 53.924C463.287 53.468 462.663 53.096 462.015 52.808C461.367 52.52 460.659 52.376 459.891 52.376C458.787 52.376 457.971 52.628 457.443 53.132C456.939 53.636 456.687 54.224 456.687 54.896C456.687 55.448 456.867 55.904 457.227 56.264C457.587 56.6 458.055 56.9 458.631 57.164C459.207 57.404 459.819 57.656 460.467 57.92C461.307 58.232 462.135 58.592 462.951 59C463.767 59.384 464.439 59.912 464.967 60.584C465.519 61.232 465.795 62.108 465.795 63.212C465.795 64.148 465.543 65.012 465.039 65.804C464.559 66.596 463.839 67.232 462.879 67.712C461.943 68.192 460.779 68.432 459.387 68.432Z" fill="#434343"/>
<path d="M59.66 20V6.92H61.98V12.18H67.28V6.92H69.6V20H67.28V14.2H61.98V20H59.66ZM72.9217 20V6.92H80.8017V8.88H75.2417V12.22H79.9417V14.18H75.2417V18.04H81.0017V20H72.9217ZM83.6834 20V6.92H88.1034C89.0101 6.92 89.8234 7.04 90.5434 7.28C91.2768 7.52 91.8501 7.92667 92.2634 8.5C92.6901 9.06 92.9034 9.82667 92.9034 10.8C92.9034 11.8 92.6634 12.6067 92.1834 13.22C91.7168 13.8333 91.0901 14.2733 90.3034 14.54L93.4234 20H90.8234L88.0034 14.88H86.0034V20H83.6834ZM86.0034 13.04H87.8634C88.7568 13.04 89.4368 12.8533 89.9034 12.48C90.3834 12.0933 90.6234 11.5333 90.6234 10.8C90.6234 10.0533 90.3834 9.53333 89.9034 9.24C89.4368 8.93333 88.7568 8.78 87.8634 8.78H86.0034V13.04ZM95.5194 20V6.92H103.399V8.88H97.8394V12.22H102.539V14.18H97.8394V18.04H103.599V20H95.5194ZM110.285 20V6.92H112.605V20H110.285ZM119.75 20.24C118.87 20.24 118.016 20.0733 117.19 19.74C116.376 19.4067 115.656 18.9333 115.03 18.32L116.39 16.74C116.856 17.18 117.39 17.54 117.99 17.82C118.59 18.0867 119.19 18.22 119.79 18.22C120.536 18.22 121.103 18.0667 121.49 17.76C121.876 17.4533 122.07 17.0467 122.07 16.54C122.07 15.9933 121.876 15.6 121.49 15.36C121.116 15.12 120.636 14.8733 120.05 14.62L118.25 13.84C117.823 13.6533 117.403 13.4133 116.99 13.12C116.59 12.8267 116.256 12.4533 115.99 12C115.736 11.5467 115.61 11 115.61 10.36C115.61 9.66667 115.796 9.04667 116.17 8.5C116.556 7.94 117.076 7.5 117.73 7.18C118.396 6.84667 119.156 6.68 120.01 6.68C120.77 6.68 121.503 6.83333 122.21 7.14C122.916 7.43333 123.523 7.83333 124.03 8.34L122.85 9.82C122.436 9.47333 121.996 9.2 121.53 9C121.076 8.8 120.57 8.7 120.01 8.7C119.396 8.7 118.896 8.84 118.51 9.12C118.136 9.38667 117.95 9.76 117.95 10.24C117.95 10.5733 118.043 10.8533 118.23 11.08C118.43 11.2933 118.69 11.48 119.01 11.64C119.33 11.7867 119.67 11.9333 120.03 12.08L121.81 12.82C122.583 13.1533 123.216 13.5933 123.71 14.14C124.203 14.6733 124.45 15.4133 124.45 16.36C124.45 17.0667 124.263 17.7133 123.89 18.3C123.516 18.8867 122.976 19.36 122.27 19.72C121.576 20.0667 120.736 20.24 119.75 20.24ZM132.132 20L129.532 6.92H131.912L133.052 13.52C133.159 14.2133 133.265 14.9133 133.372 15.62C133.492 16.3133 133.599 17.0067 133.692 17.7H133.772C133.919 17.0067 134.059 16.3133 134.192 15.62C134.339 14.9133 134.485 14.2133 134.632 13.52L136.232 6.92H138.252L139.852 13.52C139.999 14.2 140.145 14.8933 140.292 15.6C140.439 16.2933 140.585 16.9933 140.732 17.7H140.812C140.919 16.9933 141.025 16.2933 141.132 15.6C141.239 14.9067 141.339 14.2133 141.432 13.52L142.572 6.92H144.792L142.292 20H139.412L137.792 13.12C137.685 12.6133 137.579 12.1067 137.472 11.6C137.379 11.0933 137.292 10.5933 137.212 10.1H137.132C137.039 10.5933 136.939 11.0933 136.832 11.6C136.739 12.1067 136.639 12.6133 136.532 13.12L134.952 20H132.132ZM146.828 20V6.92H149.148V12.18H154.448V6.92H156.768V20H154.448V14.2H149.148V20H146.828ZM162.77 13.04L162.31 14.64H165.65L165.19 13.04C164.976 12.3467 164.77 11.6333 164.57 10.9C164.383 10.1667 164.196 9.44 164.01 8.72H163.93C163.756 9.45333 163.57 10.1867 163.37 10.92C163.183 11.64 162.983 12.3467 162.77 13.04ZM158.39 20L162.65 6.92H165.37L169.63 20H167.19L166.17 16.46H161.77L160.75 20H158.39ZM172.593 20V8.88H168.813V6.92H178.693V8.88H174.913V20H172.593ZM184.875 20V6.92H188.995C189.968 6.92 190.835 7.04667 191.595 7.3C192.355 7.55333 192.955 7.97333 193.395 8.56C193.835 9.14667 194.055 9.94667 194.055 10.96C194.055 11.92 193.835 12.7133 193.395 13.34C192.955 13.9667 192.362 14.4333 191.615 14.74C190.868 15.0467 190.022 15.2 189.075 15.2H187.195V20H184.875ZM187.195 13.34H188.895C190.815 13.34 191.775 12.5467 191.775 10.96C191.775 10.1333 191.522 9.56667 191.015 9.26C190.522 8.94 189.788 8.78 188.815 8.78H187.195V13.34ZM196.515 20V6.92H198.835V20H196.515ZM207.38 20.24C206.287 20.24 205.293 19.98 204.4 19.46C203.507 18.94 202.793 18.18 202.26 17.18C201.74 16.1667 201.48 14.94 201.48 13.5C201.48 12.0733 201.747 10.8533 202.28 9.84C202.827 8.81333 203.553 8.03333 204.46 7.5C205.367 6.95333 206.367 6.68 207.46 6.68C208.287 6.68 209.02 6.84667 209.66 7.18C210.3 7.51333 210.827 7.9 211.24 8.34L210 9.84C209.667 9.49333 209.293 9.22 208.88 9.02C208.48 8.80667 208.027 8.7 207.52 8.7C206.813 8.7 206.18 8.89333 205.62 9.28C205.073 9.65333 204.64 10.1933 204.32 10.9C204.013 11.6067 203.86 12.4533 203.86 13.44C203.86 14.9333 204.187 16.1067 204.84 16.96C205.493 17.8 206.367 18.22 207.46 18.22C208.047 18.22 208.567 18.1 209.02 17.86C209.473 17.6067 209.887 17.28 210.26 16.88L211.5 18.34C210.967 18.9533 210.353 19.4267 209.66 19.76C208.98 20.08 208.22 20.24 207.38 20.24ZM213.683 20V6.92H216.003V12.86H216.063L220.723 6.92H223.303L219.283 12.02L223.983 20H221.423L217.883 13.84L216.003 16.18V20H213.683ZM227.808 20V8.88H224.028V6.92H233.908V8.88H230.128V20H227.808ZM236.086 20V6.92H238.406V20H236.086ZM241.73 20V6.92H244.35L246.67 13.32C246.817 13.7333 246.957 14.16 247.09 14.6C247.237 15.0267 247.377 15.4533 247.51 15.88H247.59C247.737 15.4533 247.877 15.0267 248.01 14.6C248.144 14.16 248.277 13.7333 248.41 13.32L250.67 6.92H253.31V20H251.17V14.02C251.17 13.6067 251.184 13.16 251.21 12.68C251.25 12.1867 251.29 11.6933 251.33 11.2C251.384 10.7067 251.43 10.26 251.47 9.86H251.39L250.33 12.9L248.19 18.78H246.81L244.65 12.9L243.61 9.86H243.53C243.57 10.26 243.61 10.7067 243.65 11.2C243.704 11.6933 243.744 12.1867 243.77 12.68C243.81 13.16 243.83 13.6067 243.83 14.02V20H241.73ZM256.633 20V6.92H264.513V8.88H258.953V12.22H263.653V14.18H258.953V18.04H264.713V20H256.633ZM276.618 20.24C275.525 20.24 274.532 19.98 273.638 19.46C272.745 18.94 272.032 18.18 271.498 17.18C270.978 16.1667 270.718 14.94 270.718 13.5C270.718 12.0733 270.985 10.8533 271.518 9.84C272.065 8.81333 272.792 8.03333 273.698 7.5C274.605 6.95333 275.605 6.68 276.698 6.68C277.525 6.68 278.258 6.84667 278.898 7.18C279.538 7.51333 280.065 7.9 280.478 8.34L279.238 9.84C278.905 9.49333 278.532 9.22 278.118 9.02C277.718 8.80667 277.265 8.7 276.758 8.7C276.052 8.7 275.418 8.89333 274.858 9.28C274.312 9.65333 273.878 10.1933 273.558 10.9C273.252 11.6067 273.098 12.4533 273.098 13.44C273.098 14.9333 273.425 16.1067 274.078 16.96C274.732 17.8 275.605 18.22 276.698 18.22C277.285 18.22 277.805 18.1 278.258 17.86C278.712 17.6067 279.125 17.28 279.498 16.88L280.738 18.34C280.205 18.9533 279.592 19.4267 278.898 19.76C278.218 20.08 277.458 20.24 276.618 20.24ZM285.602 13.04L285.142 14.64H288.482L288.022 13.04C287.808 12.3467 287.602 11.6333 287.402 10.9C287.215 10.1667 287.028 9.44 286.842 8.72H286.762C286.588 9.45333 286.402 10.1867 286.202 10.92C286.015 11.64 285.815 12.3467 285.602 13.04ZM281.222 20L285.482 6.92H288.202L292.462 20H290.022L289.002 16.46H284.602L283.582 20H281.222ZM294.074 20V6.92H296.454L300.534 14.28L301.874 17.06H301.954C301.901 16.3933 301.834 15.6667 301.754 14.88C301.687 14.0933 301.654 13.3333 301.654 12.6V6.92H303.874V20H301.494L297.414 12.64L296.074 9.86H295.994C296.047 10.5533 296.107 11.28 296.174 12.04C296.254 12.8 296.294 13.5467 296.294 14.28V20H294.074ZM311.203 20V6.92H314.703C316.703 6.92 318.263 7.46 319.383 8.54C320.503 9.62 321.063 11.24 321.063 13.4C321.063 15.5733 320.51 17.22 319.403 18.34C318.296 19.4467 316.77 20 314.823 20H311.203ZM313.523 18.12H314.543C315.863 18.12 316.883 17.74 317.603 16.98C318.323 16.2067 318.683 15.0133 318.683 13.4C318.683 11.8 318.323 10.6333 317.603 9.9C316.883 9.16667 315.863 8.8 314.543 8.8H313.523V18.12ZM328.783 20.24C327.65 20.24 326.65 19.9667 325.783 19.42C324.916 18.86 324.236 18.0733 323.743 17.06C323.263 16.0333 323.023 14.8133 323.023 13.4C323.023 11.9867 323.263 10.78 323.743 9.78C324.236 8.78 324.916 8.01333 325.783 7.48C326.65 6.94667 327.65 6.68 328.783 6.68C329.93 6.68 330.936 6.94667 331.803 7.48C332.67 8.01333 333.343 8.78 333.823 9.78C334.316 10.78 334.563 11.9867 334.563 13.4C334.563 14.8133 334.316 16.0333 333.823 17.06C333.343 18.0733 332.67 18.86 331.803 19.42C330.936 19.9667 329.93 20.24 328.783 20.24ZM328.783 18.22C329.81 18.22 330.63 17.7867 331.243 16.92C331.856 16.04 332.163 14.8667 332.163 13.4C332.163 11.9333 331.856 10.7867 331.243 9.96C330.63 9.12 329.81 8.7 328.783 8.7C327.756 8.7 326.936 9.12 326.323 9.96C325.71 10.7867 325.403 11.9333 325.403 13.4C325.403 14.8667 325.71 16.04 326.323 16.92C326.936 17.7867 327.756 18.22 328.783 18.22ZM341.183 20V6.92H349.083V8.88H343.503V12.58H348.263V14.54H343.503V20H341.183ZM356.263 20.24C355.13 20.24 354.13 19.9667 353.263 19.42C352.397 18.86 351.717 18.0733 351.223 17.06C350.743 16.0333 350.503 14.8133 350.503 13.4C350.503 11.9867 350.743 10.78 351.223 9.78C351.717 8.78 352.397 8.01333 353.263 7.48C354.13 6.94667 355.13 6.68 356.263 6.68C357.41 6.68 358.417 6.94667 359.283 7.48C360.15 8.01333 360.823 8.78 361.303 9.78C361.797 10.78 362.043 11.9867 362.043 13.4C362.043 14.8133 361.797 16.0333 361.303 17.06C360.823 18.0733 360.15 18.86 359.283 19.42C358.417 19.9667 357.41 20.24 356.263 20.24ZM356.263 18.22C357.29 18.22 358.11 17.7867 358.723 16.92C359.337 16.04 359.643 14.8667 359.643 13.4C359.643 11.9333 359.337 10.7867 358.723 9.96C358.11 9.12 357.29 8.7 356.263 8.7C355.237 8.7 354.417 9.12 353.803 9.96C353.19 10.7867 352.883 11.9333 352.883 13.4C352.883 14.8667 353.19 16.04 353.803 16.92C354.417 17.7867 355.237 18.22 356.263 18.22ZM364.66 20V6.92H369.08C369.987 6.92 370.8 7.04 371.52 7.28C372.253 7.52 372.827 7.92667 373.24 8.5C373.667 9.06 373.88 9.82667 373.88 10.8C373.88 11.8 373.64 12.6067 373.16 13.22C372.693 13.8333 372.067 14.2733 371.28 14.54L374.4 20H371.8L368.98 14.88H366.98V20H364.66ZM366.98 13.04H368.84C369.733 13.04 370.413 12.8533 370.88 12.48C371.36 12.0933 371.6 11.5333 371.6 10.8C371.6 10.0533 371.36 9.53333 370.88 9.24C370.413 8.93333 369.733 8.78 368.84 8.78H366.98V13.04ZM382.68 20V15.14L378.76 6.92H381.24L382.66 10.26C382.847 10.7533 383.033 11.2333 383.22 11.7C383.407 12.1533 383.607 12.6333 383.82 13.14H383.9C384.113 12.6333 384.32 12.1533 384.52 11.7C384.72 11.2333 384.913 10.7533 385.1 10.26L386.52 6.92H388.94L385 15.14V20H382.68ZM395.287 20.24C394.154 20.24 393.154 19.9667 392.287 19.42C391.42 18.86 390.74 18.0733 390.247 17.06C389.767 16.0333 389.527 14.8133 389.527 13.4C389.527 11.9867 389.767 10.78 390.247 9.78C390.74 8.78 391.42 8.01333 392.287 7.48C393.154 6.94667 394.154 6.68 395.287 6.68C396.434 6.68 397.44 6.94667 398.307 7.48C399.174 8.01333 399.847 8.78 400.327 9.78C400.82 10.78 401.067 11.9867 401.067 13.4C401.067 14.8133 400.82 16.0333 400.327 17.06C399.847 18.0733 399.174 18.86 398.307 19.42C397.44 19.9667 396.434 20.24 395.287 20.24ZM395.287 18.22C396.314 18.22 397.134 17.7867 397.747 16.92C398.36 16.04 398.667 14.8667 398.667 13.4C398.667 11.9333 398.36 10.7867 397.747 9.96C397.134 9.12 396.314 8.7 395.287 8.7C394.26 8.7 393.44 9.12 392.827 9.96C392.214 10.7867 391.907 11.9333 391.907 13.4C391.907 14.8667 392.214 16.04 392.827 16.92C393.44 17.7867 394.26 18.22 395.287 18.22ZM408.583 20.24C407.583 20.24 406.71 20.04 405.963 19.64C405.217 19.24 404.637 18.6 404.223 17.72C403.823 16.84 403.623 15.6867 403.623 14.26V6.92H405.943V14.44C405.943 15.3867 406.05 16.14 406.263 16.7C406.49 17.2467 406.803 17.64 407.203 17.88C407.603 18.1067 408.063 18.22 408.583 18.22C409.117 18.22 409.583 18.1067 409.983 17.88C410.397 17.64 410.717 17.2467 410.943 16.7C411.183 16.14 411.303 15.3867 411.303 14.44V6.92H413.523V14.26C413.523 15.6867 413.323 16.84 412.923 17.72C412.523 18.6 411.95 19.24 411.203 19.64C410.47 20.04 409.597 20.24 408.583 20.24Z" fill="#631AB8"/>
</svg>
