<svg width="125" height="36" viewBox="0 0 125 36" fill="none" xmlns="http://www.w3.org/2000/svg">
<path d="M33.9701 35.7138H1.49855C1.10275 35.7138 0.723016 35.5561 0.442256 35.2751C0.161495 34.9941 0.00250674 34.6127 0 34.214L0 1.50931C0 1.10902 0.157882 0.725117 0.438914 0.442067C0.719946 0.159016 1.10111 0 1.49855 0L33.972 0C34.3695 0 34.7506 0.159016 35.0317 0.442067C35.3127 0.725117 35.4706 1.10902 35.4706 1.50931V34.2161C35.4686 34.615 35.3095 34.9969 35.0281 35.2777C34.7467 35.5585 34.3662 35.7154 33.9701 35.7138Z" fill="#631AB8"/>
<path d="M29.9584 3.20117H5.76388C5.15164 3.20316 4.56504 3.449 4.13211 3.88504C3.69919 4.32107 3.4551 4.91189 3.45312 5.52853V29.8968C3.4551 30.5135 3.69919 31.1043 4.13211 31.5403C4.56504 31.9764 5.15164 32.2222 5.76388 32.2242H29.9584C30.5708 32.2225 31.1577 31.9767 31.5908 31.5407C32.024 31.1046 32.2682 30.5137 32.2702 29.8968V5.52853C32.2682 4.91189 32.0241 4.32107 31.5912 3.88504C31.1583 3.449 30.5717 3.20316 29.9594 3.20117H29.9584ZM26.5577 23.5769C26.5577 23.6884 26.5359 23.7988 26.4935 23.9018C26.4512 24.0049 26.3891 24.0985 26.3108 24.1774C26.2325 24.2562 26.1395 24.3188 26.0372 24.3614C25.9349 24.4041 25.8253 24.4261 25.7145 24.4261C25.6038 24.4261 25.4942 24.4041 25.3919 24.3614C25.2896 24.3188 25.1966 24.2562 25.1183 24.1774C25.04 24.0985 24.9779 24.0049 24.9355 23.9018C24.8932 23.7988 24.8714 23.6884 24.8714 23.5769V19.5938C24.8708 19.4168 24.8008 19.2471 24.6765 19.1219C24.5522 18.9968 24.3838 18.9262 24.208 18.9257H24.158C23.9819 18.9257 23.813 18.996 23.6883 19.1212C23.5636 19.2465 23.4932 19.4164 23.4927 19.5938V24.6122C23.502 24.9381 23.4463 25.2625 23.3289 25.5663C23.2115 25.8701 23.0348 26.1471 22.8093 26.3809C22.5837 26.6147 22.3139 26.8006 22.0157 26.9275C21.7176 27.0544 21.3972 27.1198 21.0735 27.1198C20.7499 27.1198 20.4295 27.0544 20.1313 26.9275C19.8332 26.8006 19.5634 26.6147 19.3378 26.3809C19.1123 26.1471 18.9356 25.8701 18.8182 25.5663C18.7008 25.2625 18.6451 24.9381 18.6544 24.6122V15.6812C18.6529 15.4896 18.5765 15.3063 18.4416 15.1712C18.3067 15.0361 18.1243 14.9601 17.9341 14.9597H17.9026C17.7127 14.9602 17.5306 15.0364 17.3962 15.1715C17.2617 15.3066 17.1857 15.4898 17.1848 15.6812V22.2215C17.1951 22.8678 16.95 23.4918 16.5035 23.9562C16.057 24.4205 15.4456 24.6872 14.8039 24.6975C14.1621 24.7079 13.5426 24.461 13.0816 24.0113C12.6205 23.5616 12.3558 22.9458 12.3455 22.2995V19.6094C12.3443 19.4396 12.2768 19.2771 12.1575 19.1571C12.0381 19.0371 11.8767 18.9694 11.7081 18.9684H11.5832C11.414 18.969 11.2518 19.0369 11.1321 19.1575C11.0124 19.278 10.9449 19.4414 10.9444 19.6119V26.1522C10.9335 26.3825 10.8351 26.5998 10.6694 26.7589C10.5038 26.918 10.2836 27.0068 10.0547 27.0068C9.82581 27.0068 9.60569 26.918 9.44004 26.7589C9.27439 26.5998 9.17592 26.3825 9.16509 26.1522V19.6622C9.16509 19.3421 9.22768 19.0251 9.34931 18.7294C9.47093 18.4337 9.6492 18.165 9.87393 17.9386C10.0987 17.7123 10.3655 17.5327 10.6591 17.4102C10.9527 17.2877 11.2674 17.2247 11.5852 17.2247C11.9031 17.2247 12.2178 17.2877 12.5114 17.4102C12.805 17.5327 13.0718 17.7123 13.2965 17.9386C13.5213 18.165 13.6995 18.4337 13.8212 18.7294C13.9428 19.0251 14.0054 19.3421 14.0054 19.6622V19.9067V22.2114C14.0051 22.4049 14.0811 22.5906 14.2166 22.7277C14.3521 22.8649 14.5361 22.9423 14.7282 22.9429H14.7721C14.9621 22.9411 15.1437 22.8643 15.2781 22.729C15.4124 22.5937 15.4886 22.4108 15.4905 22.2195V15.66C15.5113 15.0259 15.7768 14.4249 16.2307 13.9848C16.6845 13.5447 17.2908 13.3001 17.9208 13.3032C18.5508 13.3062 19.1547 13.5565 19.6044 14.0009C20.054 14.4453 20.3139 15.0488 20.3288 15.6832V24.6384C20.3293 24.8225 20.4021 24.9989 20.5314 25.1291C20.6606 25.2593 20.8358 25.3327 21.0186 25.3332C21.2014 25.3327 21.3765 25.2593 21.5058 25.1291C21.635 24.9989 21.7079 24.8225 21.7084 24.6384V19.6768C21.7084 19.0303 21.9634 18.4103 22.4173 17.9532C22.8711 17.4961 23.4867 17.2393 24.1286 17.2393C24.7704 17.2393 25.386 17.4961 25.8399 17.9532C26.2937 18.4103 26.5487 19.0303 26.5487 19.6768L26.5577 23.5769ZM11.5053 12.9407C11.8535 12.9407 12.1938 13.0447 12.4833 13.2395C12.7728 13.4344 12.9984 13.7113 13.1316 14.0352C13.2648 14.3592 13.2997 14.7156 13.2318 15.0596C13.1639 15.4035 12.9962 15.7194 12.75 15.9673C12.5038 16.2153 12.1902 16.3841 11.8487 16.4526C11.5073 16.521 11.1533 16.4859 10.8317 16.3517C10.51 16.2175 10.2351 15.9902 10.0417 15.6987C9.84826 15.4071 9.74502 15.0643 9.74502 14.7137C9.74502 14.2435 9.93048 13.7925 10.2606 13.46C10.5907 13.1275 11.0385 12.9407 11.5053 12.9407ZM10.2915 7.68282V5.75945C10.292 5.62472 10.3454 5.49565 10.44 5.40038C10.5346 5.3051 10.6627 5.25135 10.7965 5.25082H11.5653C11.699 5.25135 11.8272 5.3051 11.9218 5.40038C12.0164 5.49565 12.0697 5.62472 12.0703 5.75945V7.68282C12.0697 7.81755 12.0164 7.94662 11.9218 8.04189C11.8272 8.13716 11.699 8.19092 11.5653 8.19145H10.798C10.664 8.19132 10.5354 8.13774 10.4405 8.04242C10.3456 7.94711 10.292 7.81781 10.2915 7.68282ZM16.1628 10.7175C16.1628 10.3669 16.266 10.0241 16.4595 9.73254C16.6529 9.44099 16.9278 9.21375 17.2495 9.07956C17.5711 8.94537 17.925 8.91026 18.2665 8.97867C18.608 9.04707 18.9216 9.21593 19.1678 9.46388C19.414 9.71183 19.5816 10.0277 19.6496 10.3717C19.7175 10.7156 19.6826 11.072 19.5494 11.396C19.4162 11.72 19.1905 11.9969 18.9011 12.1917C18.6116 12.3865 18.2712 12.4905 17.9231 12.4905C17.4562 12.4905 17.0085 12.3037 16.6784 11.9712C16.3483 11.6387 16.1628 11.1877 16.1628 10.7175ZM24.1835 12.9407C24.5317 12.9407 24.872 13.0447 25.1615 13.2395C25.451 13.4344 25.6766 13.7113 25.8098 14.0352C25.9431 14.3592 25.9779 14.7156 25.91 15.0596C25.8421 15.4035 25.6744 15.7194 25.4282 15.9673C25.1821 16.2153 24.8684 16.3841 24.5269 16.4526C24.1855 16.521 23.8315 16.4859 23.5099 16.3517C23.1882 16.2175 22.9133 15.9902 22.7199 15.6987C22.5265 15.4071 22.4232 15.0643 22.4232 14.7137C22.4232 14.2435 22.6087 13.7925 22.9388 13.46C23.2689 13.1275 23.7167 12.9407 24.1835 12.9407ZM23.7454 7.68282V5.75945C23.746 5.62472 23.7993 5.49565 23.8939 5.40038C23.9885 5.3051 24.1167 5.25135 24.2505 5.25082H25.0177C25.1515 5.25135 25.2796 5.3051 25.3742 5.40038C25.4688 5.49565 25.5222 5.62472 25.5227 5.75945V7.68282C25.5222 7.81755 25.4688 7.94662 25.3742 8.04189C25.2796 8.13716 25.1515 8.19092 25.0177 8.19145H24.2505C24.1167 8.19092 23.9885 8.13716 23.8939 8.04189C23.7993 7.94662 23.746 7.81755 23.7454 7.68282Z" fill="#E5E6E6"/>
<path d="M28.1626 5.02734H7.56953C6.96161 5.03382 6.38067 5.28113 5.95242 5.71575C5.52417 6.15037 5.28305 6.73735 5.28125 7.34967V28.0745C5.28254 28.687 5.52348 29.2743 5.95184 29.709C6.38021 30.1437 6.96145 30.3909 7.56953 30.3968H28.1626C28.7735 30.395 29.3589 30.1497 29.7909 29.7146C30.223 29.2795 30.4665 28.6898 30.4683 28.0745V7.34967C30.4665 6.73432 30.223 6.14471 29.7909 5.70959C29.3589 5.27447 28.7735 5.0292 28.1626 5.02734ZM23.7448 5.75936C23.7448 5.62427 23.798 5.49469 23.8926 5.39898C23.9873 5.30328 24.1157 5.24924 24.2499 5.24871H25.0171C25.1509 5.24924 25.279 5.303 25.3736 5.39827C25.4682 5.49354 25.5216 5.62261 25.5221 5.75735V7.68071C25.5223 7.81588 25.4692 7.94559 25.3745 8.04141C25.2798 8.13723 25.1513 8.19133 25.0171 8.19186H24.2499C24.1161 8.19133 23.9879 8.13757 23.8933 8.0423C23.7987 7.94703 23.7454 7.81796 23.7448 7.68323V5.75936ZM24.1829 12.9407C24.5311 12.9407 24.8714 13.0446 25.1609 13.2394C25.4504 13.4343 25.676 13.7112 25.8092 14.0351C25.9424 14.3591 25.9773 14.7156 25.9094 15.0595C25.8415 15.4034 25.6738 15.7193 25.4276 15.9672C25.1814 16.2152 24.8678 16.3841 24.5263 16.4525C24.1849 16.5209 23.8309 16.4858 23.5093 16.3516C23.1876 16.2174 22.9127 15.9901 22.7193 15.6986C22.5259 15.407 22.4226 15.0642 22.4226 14.7136C22.4226 14.4808 22.4682 14.2502 22.5566 14.0351C22.6451 13.82 22.7747 13.6246 22.9382 13.4599C23.1017 13.2953 23.2957 13.1647 23.5093 13.0756C23.7229 12.9865 23.9518 12.9407 24.1829 12.9407ZM17.915 8.95205C18.2632 8.95205 18.6035 9.05603 18.893 9.25085C19.1824 9.44566 19.4081 9.72255 19.5413 10.0465C19.6745 10.3705 19.7094 10.727 19.6415 11.0709C19.5735 11.4148 19.4059 11.7307 19.1597 11.9786C18.9135 12.2266 18.5999 12.3954 18.2584 12.4639C17.917 12.5323 17.563 12.4972 17.2414 12.363C16.9197 12.2288 16.6448 12.0015 16.4514 11.71C16.2579 11.4184 16.1547 11.0756 16.1547 10.725C16.1547 10.4922 16.2002 10.2616 16.2887 10.0465C16.3772 9.83141 16.5068 9.63597 16.6703 9.47133C16.8337 9.3067 17.0278 9.17611 17.2414 9.08701C17.4549 8.99791 17.6838 8.95205 17.915 8.95205ZM10.2924 5.76137C10.2929 5.62664 10.3463 5.49757 10.4409 5.4023C10.5355 5.30702 10.6636 5.25326 10.7974 5.25273H11.5647C11.6984 5.25326 11.8266 5.30702 11.9212 5.4023C12.0158 5.49757 12.0691 5.62664 12.0697 5.76137V7.68323C12.0691 7.81796 12.0158 7.94703 11.9212 8.0423C11.8266 8.13757 11.6984 8.19133 11.5647 8.19186H10.7974C10.6636 8.19133 10.5355 8.13757 10.4409 8.0423C10.3463 7.94703 10.2929 7.81796 10.2924 7.68323V5.76137ZM11.5052 12.9412C11.8534 12.9412 12.1937 13.0451 12.4832 13.24C12.7727 13.4348 12.9983 13.7117 13.1315 14.0356C13.2647 14.3596 13.2996 14.7161 13.2317 15.06C13.1638 15.4039 12.9961 15.7198 12.7499 15.9677C12.5037 16.2157 12.1901 16.3846 11.8486 16.453C11.5072 16.5214 11.1532 16.4863 10.8316 16.3521C10.5099 16.2179 10.235 15.9906 10.0416 15.6991C9.84816 15.4075 9.74492 15.0647 9.74492 14.7141C9.74486 14.4813 9.79032 14.2507 9.87872 14.0356C9.96713 13.8205 10.0967 13.625 10.2601 13.4603C10.4236 13.2956 10.6176 13.165 10.8311 13.0758C11.0447 12.9866 11.2735 12.9407 11.5047 12.9407L11.5052 12.9412ZM26.5571 23.5773C26.5571 23.8025 26.4683 24.0185 26.3102 24.1778C26.152 24.337 25.9376 24.4265 25.7139 24.4265C25.4903 24.4265 25.2758 24.337 25.1177 24.1778C24.9596 24.0185 24.8708 23.8025 24.8708 23.5773V19.5937C24.8702 19.4167 24.8002 19.247 24.6759 19.1218C24.5516 18.9967 24.3832 18.9261 24.2074 18.9256H24.1574C23.9813 18.9256 23.8124 18.9959 23.6877 19.1211C23.563 19.2464 23.4926 19.4163 23.4921 19.5937V24.6121C23.5014 24.938 23.4457 25.2624 23.3283 25.5662C23.2109 25.87 23.0342 26.147 22.8087 26.3808C22.5831 26.6146 22.3133 26.8005 22.0151 26.9274C21.717 27.0543 21.3966 27.1197 21.0729 27.1197C20.7493 27.1197 20.4289 27.0543 20.1307 26.9274C19.8326 26.8005 19.5628 26.6146 19.3372 26.3808C19.1117 26.147 18.935 25.87 18.8176 25.5662C18.7002 25.2624 18.6445 24.938 18.6538 24.6121V15.6816C18.6527 15.4899 18.5766 15.3064 18.4418 15.171C18.3071 15.0356 18.1248 14.9593 17.9345 14.9586H17.903C17.713 14.959 17.5308 15.0351 17.3962 15.1702C17.2617 15.3054 17.1856 15.4886 17.1847 15.6801V22.2204C17.1898 22.5404 17.1322 22.8583 17.0153 23.156C16.8984 23.4536 16.7245 23.7251 16.5034 23.9551C16.2823 24.185 16.0184 24.3688 15.7268 24.496C15.4352 24.6232 15.1215 24.6913 14.8038 24.6964C14.486 24.7015 14.1704 24.6436 13.8749 24.5258C13.5793 24.4081 13.3098 24.2329 13.0815 24.0102C12.8532 23.7875 12.6707 23.5217 12.5444 23.228C12.4181 22.9343 12.3505 22.6184 12.3454 22.2984V19.6098C12.3445 19.4396 12.2768 19.2766 12.1572 19.1563C12.0375 19.0361 11.8755 18.9684 11.7065 18.9678H11.5816C11.4124 18.9684 11.2502 19.0363 11.1305 19.1569C11.0108 19.2774 10.9433 19.4408 10.9428 19.6113V26.1516C10.9319 26.3819 10.8335 26.5992 10.6678 26.7583C10.5022 26.9174 10.282 27.0062 10.0531 27.0062C9.82421 27.0062 9.60409 26.9174 9.43844 26.7583C9.27279 26.5992 9.17432 26.3819 9.16348 26.1516V19.6616C9.16348 19.3415 9.22608 19.0245 9.34771 18.7288C9.46933 18.4331 9.6476 18.1644 9.87233 17.938C10.0971 17.7117 10.3639 17.5321 10.6575 17.4096C10.9511 17.2871 11.2658 17.2241 11.5836 17.2241C11.9015 17.2241 12.2162 17.2871 12.5098 17.4096C12.8034 17.5321 13.0702 17.7117 13.2949 17.938C13.5197 18.1644 13.6979 18.4331 13.8196 18.7288C13.9412 19.0245 14.0038 19.3415 14.0038 19.6616V19.9061V22.2108C14.0043 22.4039 14.0807 22.5889 14.2162 22.7254C14.3518 22.8619 14.5354 22.9388 14.7271 22.9393H14.772C14.962 22.9375 15.1436 22.8607 15.2779 22.7254C15.4123 22.5901 15.4885 22.4072 15.4903 22.2159V15.6604C15.5112 15.0263 15.7767 14.4253 16.2305 13.9852C16.6844 13.5451 17.2907 13.3005 17.9207 13.3036C18.5507 13.3066 19.1546 13.5569 19.6043 14.0013C20.0539 14.4457 20.3138 15.0492 20.3287 15.6836V24.6388C20.3287 24.8228 20.4009 24.9994 20.5297 25.1299C20.6585 25.2605 20.8333 25.3344 21.016 25.3356C21.1988 25.3351 21.3739 25.2617 21.5032 25.1315C21.6324 25.0013 21.7053 24.8249 21.7058 24.6408V19.6772C21.7058 19.0307 21.9608 18.4107 22.4147 17.9536C22.8685 17.4965 23.4841 17.2397 24.126 17.2397C24.7678 17.2397 25.3834 17.4965 25.8373 17.9536C26.2911 18.4107 26.5461 19.0307 26.5461 19.6772L26.5571 23.5773Z" fill="#F4F4F4"/>
<path d="M11.3975 1.6875H10.9584C10.5887 1.6875 10.2891 1.98933 10.2891 2.36166V5.47184C10.2891 5.84417 10.5887 6.146 10.9584 6.146H11.3975C11.7672 6.146 12.0668 5.84417 12.0668 5.47184V2.36166C12.0668 1.98933 11.7672 1.6875 11.3975 1.6875Z" fill="#F4F4F4"/>
<path d="M24.8506 1.6875H24.4115C24.0419 1.6875 23.7422 1.98933 23.7422 2.36166V5.47184C23.7422 5.84417 24.0419 6.146 24.4115 6.146H24.8506C25.2203 6.146 25.52 5.84417 25.52 5.47184V2.36166C25.52 1.98933 25.2203 1.6875 24.8506 1.6875Z" fill="#F4F4F4"/>
<path d="M44.7564 25.6952H41.5391V9.54561H47.9583C48.5323 9.54343 49.1038 9.62097 49.6567 9.77603C50.1914 9.92626 50.7044 10.1461 51.1827 10.4301C52.1338 10.9963 52.9265 11.7966 53.4865 12.7559C53.9469 13.5483 54.2341 14.4306 54.3289 15.3438C54.4236 16.2569 54.3236 17.1799 54.0357 18.0511C53.7478 18.9222 53.2785 19.7214 52.6592 20.3952C52.04 21.069 51.2851 21.6019 50.4449 21.9582C49.6589 22.2979 48.8117 22.4705 47.9563 22.4653H44.7549L44.7564 25.6952ZM44.7564 12.7775V19.2424H47.9653C48.3917 19.2455 48.8141 19.1599 49.2061 18.9909C49.7867 18.7426 50.2819 18.3278 50.6301 17.798C50.9782 17.2683 51.1638 16.647 51.1638 16.0117C51.1638 15.3765 50.9782 14.7552 50.6301 14.2255C50.2819 13.6957 49.7867 13.2809 49.2061 13.0326C48.8141 12.8636 48.3917 12.778 47.9653 12.7811L44.7564 12.7775Z" fill="#631AB8"/>
<path d="M58.9604 10.3541C58.963 10.6291 58.9078 10.9015 58.7985 11.1535C58.6948 11.3962 58.5448 11.6161 58.357 11.8005C58.1682 11.9865 57.9469 12.1356 57.7041 12.2402C57.2049 12.4533 56.6422 12.4586 56.1392 12.255C55.6361 12.0513 55.2336 11.6553 55.0197 11.1535C54.9157 10.9053 54.8612 10.639 54.8594 10.3696C54.8576 10.1002 54.9085 9.83307 55.0092 9.5835C55.1099 9.33393 55.2585 9.10678 55.4463 8.91503C55.6342 8.72328 55.8577 8.57068 56.1042 8.46595C56.3571 8.35855 56.6289 8.30322 56.9034 8.30322C57.1779 8.30322 57.4496 8.35855 57.7026 8.46595C57.9454 8.5706 58.1667 8.71969 58.3555 8.90566C58.5394 9.09319 58.6847 9.31546 58.7831 9.5597C58.8967 9.8091 58.9571 10.0797 58.9604 10.3541ZM58.4324 25.6937H55.3504V13.6389H58.4324V25.6937Z" fill="#631AB8"/>
<path d="M70.6446 16.0309L68.4078 18.2949C68.3016 17.9889 68.1471 17.7021 67.9502 17.4457C67.7648 17.2017 67.5441 16.9871 67.2953 16.8092C67.0546 16.6367 66.7884 16.5033 66.5066 16.4138C66.2249 16.3239 65.931 16.2784 65.6355 16.279C65.2278 16.2769 64.8246 16.3652 64.4546 16.5376C64.0873 16.7096 63.7599 16.9572 63.4935 17.2646C63.212 17.5909 62.9935 17.9673 62.8492 18.3744C62.6889 18.8296 62.6096 19.3097 62.6149 19.7927C62.6126 20.1987 62.6923 20.6009 62.8492 20.9749C63.0012 21.3362 63.2198 21.6652 63.4935 21.9444C63.7746 22.2275 64.1086 22.4517 64.4763 22.6038C64.844 22.756 65.238 22.8332 65.6355 22.8309C65.9268 22.8311 66.2166 22.7893 66.4961 22.7066C66.7696 22.6255 67.0308 22.507 67.2724 22.3545C67.7632 22.0416 68.1504 21.5887 68.3848 21.0534L70.6221 23.3174C70.3414 23.7204 70.0128 24.0872 69.6436 24.4096C69.2777 24.7307 68.8753 25.0068 68.4447 25.2322C68.0163 25.4573 67.5625 25.6292 67.093 25.7444C66.6155 25.8623 66.1256 25.9218 65.634 25.9215C64.8174 25.9259 64.0084 25.7631 63.2563 25.443C61.7917 24.8214 60.6233 23.6523 59.9964 22.1814C59.6738 21.4276 59.5102 20.6145 59.5159 19.7937C59.5082 18.9054 59.6714 18.024 59.9964 17.1981C60.3004 16.4213 60.7463 15.7089 61.3111 15.0977C61.8616 14.5019 62.5224 14.0201 63.2563 13.6794C64.0015 13.3329 64.8132 13.1557 65.634 13.1602C66.13 13.16 66.6239 13.2244 67.1035 13.3519C67.5833 13.479 68.0452 13.6667 68.4782 13.9104C68.9165 14.1538 69.3228 14.4516 69.6875 14.7968C70.0616 15.1624 70.3833 15.5788 70.6431 16.034L70.6446 16.0309Z" fill="#631AB8"/>
<path d="M74.6453 25.6935H71.5703V8.83301H74.6453V19.4696L79.1969 13.6477H82.7085L78.7379 18.6697L82.7095 25.688H79.1979L76.7708 21.3075L74.6463 24.1439L74.6453 25.6935Z" fill="#631AB8"/>
<path d="M89.3434 25.6935C88.6291 25.6985 87.9214 25.5548 87.2649 25.2714C85.9789 24.7201 84.9547 23.689 84.4066 22.3942C84.1254 21.7321 83.9828 21.0188 83.9876 20.2987V16.7166H82.5V13.6477H83.9886V8.83301H87.0301V13.6477H91.6611V16.7166H87.0301V20.2977C87.0259 20.7563 87.1576 21.2058 87.4085 21.5886C87.6593 21.9714 88.0179 22.2701 88.4382 22.4465C88.7244 22.568 89.0324 22.6283 89.3429 22.6236H91.6591V25.687L89.3434 25.6935Z" fill="#631AB8"/>
<path d="M96.3938 10.3545C96.3956 10.6294 96.3405 10.9017 96.2319 11.154C96.1282 11.3967 95.9782 11.6165 95.7903 11.801C95.6012 11.9874 95.3791 12.1365 95.1355 12.2407C94.6366 12.4538 94.0742 12.4592 93.5714 12.2555C93.0686 12.0518 92.6665 11.6557 92.4531 11.154C92.3449 10.9021 92.2891 10.6307 92.2891 10.3563C92.2891 10.0819 92.3449 9.81043 92.4531 9.55862C92.6585 9.06567 93.0477 8.67352 93.537 8.46638C93.7899 8.3587 94.0617 8.30322 94.3362 8.30322C94.6108 8.30322 94.8826 8.3587 95.1355 8.46638C95.3791 8.57054 95.6012 8.71968 95.7903 8.90609C95.9811 9.09487 96.1328 9.31995 96.2364 9.56826C96.3401 9.81657 96.3938 10.0831 96.3943 10.3525L96.3938 10.3545ZM95.8658 25.6941H92.7928V13.6393H95.8693L95.8658 25.6941Z" fill="#631AB8"/>
<path d="M112.855 25.6941H109.814V18.0358C109.815 17.8308 109.775 17.6276 109.696 17.4386C109.58 17.1584 109.385 16.919 109.134 16.7507C108.884 16.5825 108.589 16.4931 108.288 16.4938C108.086 16.4924 107.886 16.5323 107.7 16.611C107.519 16.6885 107.356 16.8018 107.219 16.9441C107.081 17.0869 106.971 17.2547 106.896 17.4386C106.817 17.6276 106.776 17.8308 106.778 18.0358V25.6941H103.719V18.0358C103.718 17.7331 103.63 17.4372 103.465 17.1841C103.3 16.931 103.065 16.7317 102.79 16.6105C102.602 16.5321 102.4 16.4923 102.197 16.4933C101.998 16.4909 101.8 16.5297 101.617 16.6071C101.433 16.6845 101.267 16.7991 101.129 16.9436C100.991 17.0864 100.881 17.2542 100.805 17.4381C100.727 17.6274 100.687 17.8304 100.687 18.0353V25.6936H97.625V13.6392H98.3623L99.1895 14.5629C99.6092 14.2063 100.085 13.9228 100.598 13.7242C101.105 13.5239 101.645 13.4215 102.191 13.4224C102.752 13.4232 103.308 13.5302 103.829 13.7378C104.389 13.9665 104.875 14.344 105.238 14.8301C105.415 14.5839 105.627 14.3648 105.866 14.1795C106.099 14.0029 106.353 13.8552 106.621 13.7398C106.885 13.6281 107.161 13.5466 107.443 13.4968C107.721 13.4499 108.003 13.4263 108.285 13.4264C108.897 13.4193 109.503 13.5392 110.067 13.7786C110.898 14.1305 111.606 14.7229 112.102 15.4807C112.597 16.2384 112.858 17.1274 112.852 18.0348L112.855 25.6941Z" fill="#631AB8"/>
<path d="M119.273 22.7437C119.386 22.78 119.504 22.8043 119.622 22.8162C119.742 22.8267 119.862 22.8338 119.972 22.8338C120.264 22.8342 120.555 22.7923 120.835 22.7095C121.108 22.6284 121.369 22.5099 121.611 22.3573C122.102 22.0445 122.489 21.5916 122.723 21.0563L124.961 23.3203C124.68 23.7232 124.351 24.0901 123.982 24.4125C123.616 24.7336 123.214 25.0097 122.783 25.2351C122.355 25.4601 121.901 25.6321 121.432 25.7472C120.954 25.8653 120.463 25.9248 119.971 25.9243C118.762 25.9315 117.579 25.5726 116.575 24.8941C115.572 24.2155 114.794 23.2488 114.343 22.1194C114.019 21.3038 113.861 20.4315 113.876 19.5535C113.865 18.6592 114.028 17.7714 114.357 16.9404C114.648 16.1955 115.087 15.5179 115.646 14.9487C116.205 14.3794 116.873 13.9305 117.609 13.629C118.363 13.3183 119.171 13.1609 119.986 13.1661C120.48 13.1642 120.972 13.2237 121.452 13.3432C122.887 13.7038 124.146 14.5728 124.998 15.7913L119.273 22.7437ZM120.838 16.4046C120.703 16.3532 120.562 16.3193 120.419 16.304C120.276 16.288 120.132 16.2803 119.988 16.2809C119.583 16.2781 119.182 16.3564 118.808 16.5113C118.446 16.6614 118.118 16.886 117.847 17.1708C117.567 17.4676 117.349 17.8178 117.205 18.2007C117.042 18.6346 116.962 19.0954 116.969 19.5591C116.967 19.6869 116.973 19.8148 116.986 19.9419C116.997 20.087 117.015 20.2315 117.041 20.3746C117.067 20.5215 117.099 20.6619 117.136 20.7982C117.171 20.921 117.22 21.0392 117.282 21.1504L120.838 16.4046Z" fill="#631AB8"/>
</svg>
