<svg width="35" height="35" viewBox="0 0 35 35" fill="none" xmlns="http://www.w3.org/2000/svg">
<path d="M17.5026 4.375C15.8984 4.375 14.5859 5.6875 14.5859 7.29167C14.5859 8.89583 15.8984 10.2083 17.5026 10.2083C19.1068 10.2083 20.4193 8.89583 20.4193 7.29167C20.4193 5.6875 19.1068 4.375 17.5026 4.375ZM17.5026 24.7917C15.8984 24.7917 14.5859 26.1042 14.5859 27.7083C14.5859 29.3125 15.8984 30.625 17.5026 30.625C19.1068 30.625 20.4193 29.3125 20.4193 27.7083C20.4193 26.1042 19.1068 24.7917 17.5026 24.7917ZM17.5026 14.5833C15.8984 14.5833 14.5859 15.8958 14.5859 17.5C14.5859 19.1042 15.8984 20.4167 17.5026 20.4167C19.1068 20.4167 20.4193 19.1042 20.4193 17.5C20.4193 15.8958 19.1068 14.5833 17.5026 14.5833Z" fill="black" fill-opacity="0.5"/>
</svg>
