<svg xmlns="http://www.w3.org/2000/svg" width="16" height="16" viewBox="0 0 56.991 56.991">
  <g id="new" transform="translate(-2.96 -2.96)">
    <path id="Path_113" data-name="Path 113" d="M31.456,59.951a28.5,28.5,0,1,1,28.5-28.5A28.526,28.526,0,0,1,31.456,59.951Zm0-51.418A22.922,22.922,0,1,0,54.378,31.456,22.948,22.948,0,0,0,31.456,8.533Z" fill="#000"/>
    <path id="Path_114" data-name="Path 114" d="M54.389,50.973H18.9a2.787,2.787,0,1,1,0-5.573H54.389a2.787,2.787,0,1,1,0,5.573Z" transform="translate(-5.184 -16.731)" fill="#000"/>
    <path id="Path_115" data-name="Path 115" d="M48.517,56.945a2.787,2.787,0,0,1-2.787-2.787V18.667a2.787,2.787,0,1,1,5.573,0V54.159A2.787,2.787,0,0,1,48.517,56.945Z" transform="translate(-16.86 -5.094)" fill="#000"/>
  </g>
</svg>
