<svg width="212" height="156" viewBox="0 0 212 156" fill="none" xmlns="http://www.w3.org/2000/svg">
<path d="M14.568 146H12.888L3.6 131.888V146H1.92V129.224H3.6L12.888 143.312V129.224H14.568V146ZM24.1091 146.192C22.8771 146.192 21.7651 145.92 20.7731 145.376C19.7971 144.816 19.0211 144.032 18.4451 143.024C17.8851 142 17.6051 140.808 17.6051 139.448C17.6051 138.088 17.8931 136.904 18.4691 135.896C19.0451 134.872 19.8291 134.088 20.8211 133.544C21.8131 132.984 22.9251 132.704 24.1571 132.704C25.3891 132.704 26.5011 132.984 27.4931 133.544C28.5011 134.088 29.2851 134.872 29.8451 135.896C30.4211 136.904 30.7091 138.088 30.7091 139.448C30.7091 140.792 30.4211 141.976 29.8451 143C29.2691 144.024 28.4771 144.816 27.4691 145.376C26.4611 145.92 25.3411 146.192 24.1091 146.192ZM24.1091 144.728C24.9731 144.728 25.7731 144.536 26.5091 144.152C27.2451 143.752 27.8371 143.16 28.2851 142.376C28.7491 141.576 28.9811 140.6 28.9811 139.448C28.9811 138.296 28.7571 137.328 28.3091 136.544C27.8611 135.744 27.2691 135.152 26.5331 134.768C25.7971 134.368 24.9971 134.168 24.1331 134.168C23.2691 134.168 22.4691 134.368 21.7331 134.768C20.9971 135.152 20.4051 135.744 19.9571 136.544C19.5251 137.328 19.3091 138.296 19.3091 139.448C19.3091 140.6 19.5251 141.576 19.9571 142.376C20.4051 143.16 20.9891 143.752 21.7091 144.152C22.4451 144.536 23.2451 144.728 24.1091 144.728ZM45.3255 129.224C47.1815 129.224 48.7735 129.56 50.1015 130.232C51.4295 130.904 52.4455 131.872 53.1495 133.136C53.8535 134.4 54.2055 135.904 54.2055 137.648C54.2055 139.376 53.8535 140.872 53.1495 142.136C52.4455 143.384 51.4295 144.344 50.1015 145.016C48.7735 145.672 47.1815 146 45.3255 146H40.3575V129.224H45.3255ZM45.3255 144.608C47.6615 144.608 49.4375 144 50.6535 142.784C51.8855 141.552 52.5015 139.84 52.5015 137.648C52.5015 135.44 51.8855 133.72 50.6535 132.488C49.4375 131.24 47.6615 130.616 45.3255 130.616H42.0375V144.608H45.3255ZM56.5348 139.424C56.5348 138.08 56.7988 136.904 57.3268 135.896C57.8708 134.872 58.6148 134.088 59.5588 133.544C60.5188 132.984 61.5988 132.704 62.7988 132.704C64.0468 132.704 65.1188 132.992 66.0148 133.568C66.9268 134.144 67.5828 134.88 67.9828 135.776V132.896H69.6628V146H67.9828V143.096C67.5668 143.992 66.9028 144.736 65.9908 145.328C65.0948 145.904 64.0228 146.192 62.7748 146.192C61.5908 146.192 60.5188 145.912 59.5588 145.352C58.6148 144.792 57.8708 144 57.3268 142.976C56.7988 141.952 56.5348 140.768 56.5348 139.424ZM67.9828 139.448C67.9828 138.392 67.7668 137.464 67.3348 136.664C66.9028 135.864 66.3108 135.248 65.5588 134.816C64.8228 134.384 64.0068 134.168 63.1108 134.168C62.1828 134.168 61.3508 134.376 60.6148 134.792C59.8788 135.208 59.2948 135.816 58.8628 136.616C58.4468 137.4 58.2388 138.336 58.2388 139.424C58.2388 140.496 58.4468 141.44 58.8628 142.256C59.2948 143.056 59.8788 143.672 60.6148 144.104C61.3508 144.52 62.1828 144.728 63.1108 144.728C64.0068 144.728 64.8228 144.512 65.5588 144.08C66.3108 143.648 66.9028 143.032 67.3348 142.232C67.7668 141.432 67.9828 140.504 67.9828 139.448ZM75.6821 134.312V142.448C75.6821 143.248 75.8341 143.8 76.1381 144.104C76.4421 144.408 76.9781 144.56 77.7461 144.56H79.2821V146H77.4821C76.2981 146 75.4181 145.728 74.8421 145.184C74.2661 144.624 73.9781 143.712 73.9781 142.448V134.312H72.1541V132.896H73.9781V129.608H75.6821V132.896H79.2821V134.312H75.6821ZM81.2848 139.424C81.2848 138.08 81.5488 136.904 82.0768 135.896C82.6208 134.872 83.3648 134.088 84.3088 133.544C85.2688 132.984 86.3488 132.704 87.5488 132.704C88.7968 132.704 89.8688 132.992 90.7648 133.568C91.6768 134.144 92.3328 134.88 92.7328 135.776V132.896H94.4128V146H92.7328V143.096C92.3168 143.992 91.6528 144.736 90.7408 145.328C89.8448 145.904 88.7728 146.192 87.5248 146.192C86.3408 146.192 85.2688 145.912 84.3088 145.352C83.3648 144.792 82.6208 144 82.0768 142.976C81.5488 141.952 81.2848 140.768 81.2848 139.424ZM92.7328 139.448C92.7328 138.392 92.5168 137.464 92.0848 136.664C91.6528 135.864 91.0608 135.248 90.3088 134.816C89.5728 134.384 88.7568 134.168 87.8608 134.168C86.9328 134.168 86.1008 134.376 85.3648 134.792C84.6288 135.208 84.0448 135.816 83.6128 136.616C83.1968 137.4 82.9888 138.336 82.9888 139.424C82.9888 140.496 83.1968 141.44 83.6128 142.256C84.0448 143.056 84.6288 143.672 85.3648 144.104C86.1008 144.52 86.9328 144.728 87.8608 144.728C88.7568 144.728 89.5728 144.512 90.3088 144.08C91.0608 143.648 91.6528 143.032 92.0848 142.232C92.5168 141.432 92.7328 140.504 92.7328 139.448ZM114.554 142.016H106.922L105.458 146H103.682L109.802 129.44H111.698L117.794 146H116.018L114.554 142.016ZM114.05 140.624L110.738 131.552L107.426 140.624H114.05ZM125.146 144.368L129.562 132.896H131.338L126.082 146H124.186L118.93 132.896H120.73L125.146 144.368ZM132.847 139.424C132.847 138.08 133.111 136.904 133.639 135.896C134.183 134.872 134.927 134.088 135.871 133.544C136.831 132.984 137.911 132.704 139.111 132.704C140.359 132.704 141.431 132.992 142.327 133.568C143.239 134.144 143.895 134.88 144.295 135.776V132.896H145.975V146H144.295V143.096C143.879 143.992 143.215 144.736 142.303 145.328C141.407 145.904 140.335 146.192 139.087 146.192C137.903 146.192 136.831 145.912 135.871 145.352C134.927 144.792 134.183 144 133.639 142.976C133.111 141.952 132.847 140.768 132.847 139.424ZM144.295 139.448C144.295 138.392 144.079 137.464 143.647 136.664C143.215 135.864 142.623 135.248 141.871 134.816C141.135 134.384 140.319 134.168 139.423 134.168C138.495 134.168 137.663 134.376 136.927 134.792C136.191 135.208 135.607 135.816 135.175 136.616C134.759 137.4 134.551 138.336 134.551 139.424C134.551 140.496 134.759 141.44 135.175 142.256C135.607 143.056 136.191 143.672 136.927 144.104C137.663 144.52 138.495 144.728 139.423 144.728C140.319 144.728 141.135 144.512 141.871 144.08C142.623 143.648 143.215 143.032 143.647 142.232C144.079 141.432 144.295 140.504 144.295 139.448ZM150.651 130.424C150.315 130.424 150.027 130.304 149.787 130.064C149.547 129.824 149.427 129.528 149.427 129.176C149.427 128.824 149.547 128.536 149.787 128.312C150.027 128.072 150.315 127.952 150.651 127.952C150.987 127.952 151.275 128.072 151.515 128.312C151.755 128.536 151.875 128.824 151.875 129.176C151.875 129.528 151.755 129.824 151.515 130.064C151.275 130.304 150.987 130.424 150.651 130.424ZM151.491 132.896V146H149.811V132.896H151.491ZM156.975 128.24V146H155.295V128.24H156.975ZM160.011 139.424C160.011 138.08 160.275 136.904 160.803 135.896C161.347 134.872 162.091 134.088 163.035 133.544C163.995 132.984 165.075 132.704 166.275 132.704C167.523 132.704 168.595 132.992 169.491 133.568C170.403 134.144 171.059 134.88 171.459 135.776V132.896H173.139V146H171.459V143.096C171.043 143.992 170.379 144.736 169.467 145.328C168.571 145.904 167.499 146.192 166.251 146.192C165.067 146.192 163.995 145.912 163.035 145.352C162.091 144.792 161.347 144 160.803 142.976C160.275 141.952 160.011 140.768 160.011 139.424ZM171.459 139.448C171.459 138.392 171.243 137.464 170.811 136.664C170.379 135.864 169.787 135.248 169.035 134.816C168.299 134.384 167.483 134.168 166.587 134.168C165.659 134.168 164.827 134.376 164.091 134.792C163.355 135.208 162.771 135.816 162.339 136.616C161.923 137.4 161.715 138.336 161.715 139.424C161.715 140.496 161.923 141.44 162.339 142.256C162.771 143.056 163.355 143.672 164.091 144.104C164.827 144.52 165.659 144.728 166.587 144.728C167.483 144.728 168.299 144.512 169.035 144.08C169.787 143.648 170.379 143.032 170.811 142.232C171.243 141.432 171.459 140.504 171.459 139.448ZM178.631 135.8C179.063 134.888 179.727 134.144 180.623 133.568C181.535 132.992 182.607 132.704 183.839 132.704C185.039 132.704 186.111 132.984 187.055 133.544C187.999 134.088 188.735 134.872 189.263 135.896C189.807 136.904 190.079 138.08 190.079 139.424C190.079 140.768 189.807 141.952 189.263 142.976C188.735 144 187.991 144.792 187.031 145.352C186.087 145.912 185.023 146.192 183.839 146.192C182.591 146.192 181.511 145.912 180.599 145.352C179.703 144.776 179.047 144.032 178.631 143.12V146H176.975V128.24H178.631V135.8ZM188.375 139.424C188.375 138.336 188.159 137.4 187.727 136.616C187.311 135.816 186.735 135.208 185.999 134.792C185.263 134.376 184.431 134.168 183.503 134.168C182.607 134.168 181.783 134.384 181.031 134.816C180.295 135.248 179.711 135.864 179.279 136.664C178.847 137.464 178.631 138.392 178.631 139.448C178.631 140.504 178.847 141.432 179.279 142.232C179.711 143.032 180.295 143.648 181.031 144.08C181.783 144.512 182.607 144.728 183.503 144.728C184.431 144.728 185.263 144.52 185.999 144.104C186.735 143.672 187.311 143.056 187.727 142.256C188.159 141.44 188.375 140.496 188.375 139.424ZM194.85 128.24V146H193.17V128.24H194.85ZM210.51 138.776C210.51 139.352 210.494 139.792 210.462 140.096H199.59C199.638 141.088 199.878 141.936 200.31 142.64C200.742 143.344 201.31 143.88 202.014 144.248C202.718 144.6 203.486 144.776 204.318 144.776C205.406 144.776 206.318 144.512 207.054 143.984C207.806 143.456 208.302 142.744 208.542 141.848H210.318C209.998 143.128 209.31 144.176 208.254 144.992C207.214 145.792 205.902 146.192 204.318 146.192C203.086 146.192 201.982 145.92 201.006 145.376C200.03 144.816 199.262 144.032 198.702 143.024C198.158 142 197.886 140.808 197.886 139.448C197.886 138.088 198.158 136.896 198.702 135.872C199.246 134.848 200.006 134.064 200.982 133.52C201.958 132.976 203.07 132.704 204.318 132.704C205.566 132.704 206.654 132.976 207.582 133.52C208.526 134.064 209.246 134.8 209.742 135.728C210.254 136.64 210.51 137.656 210.51 138.776ZM208.806 138.728C208.822 137.752 208.622 136.92 208.206 136.232C207.806 135.544 207.254 135.024 206.55 134.672C205.846 134.32 205.078 134.144 204.246 134.144C202.998 134.144 201.934 134.544 201.054 135.344C200.174 136.144 199.686 137.272 199.59 138.728H208.806Z" fill="black"/>
<path d="M63.0909 51.5909H79.4545C80.1137 51.5909 80.4687 51.7997 80.6527 51.9837C80.8366 52.1676 81.0455 52.5227 81.0455 53.1818V85.9091C81.0455 86.5682 80.8366 86.9233 80.6527 87.1072C80.4687 87.2912 80.1137 87.5 79.4545 87.5H63.0909C62.4318 87.5 62.0767 87.2912 61.8928 87.1072C61.7088 86.9233 61.5 86.5682 61.5 85.9091V53.1818C61.5 52.5227 61.7088 52.1676 61.8928 51.9837C62.0767 51.7997 62.4318 51.5909 63.0909 51.5909ZM128.545 35.2273H144.909C145.568 35.2273 145.923 35.4361 146.107 35.62C146.291 35.804 146.5 36.159 146.5 36.8182V85.9091C146.5 86.5682 146.291 86.9233 146.107 87.1072C145.923 87.2912 145.568 87.5 144.909 87.5H128.545C127.886 87.5 127.531 87.2912 127.347 87.1072C127.163 86.9233 126.955 86.5682 126.955 85.9091V36.8182C126.955 36.159 127.163 35.804 127.347 35.62C127.531 35.4361 127.886 35.2273 128.545 35.2273ZM95.8182 2.5H112.182C112.841 2.5 113.196 2.70881 113.38 2.89277C113.564 3.07673 113.773 3.43176 113.773 4.09091V85.9091C113.773 86.5682 113.564 86.9233 113.38 87.1072C113.196 87.2912 112.841 87.5 112.182 87.5H95.8182C95.159 87.5 94.804 87.2912 94.62 87.1072C94.4361 86.9233 94.2273 86.5682 94.2273 85.9091V4.09091C94.2273 3.43176 94.4361 3.07673 94.62 2.89277C94.804 2.70881 95.159 2.5 95.8182 2.5Z" stroke="black" stroke-opacity="0.5" stroke-width="5"/>
</svg>
