<svg width="209" height="145" viewBox="0 0 209 145" fill="none" xmlns="http://www.w3.org/2000/svg">
<path d="M113.944 68.1111H115.944V66.1111V56.6667V54.6667H113.944H80.8889H78.8889V56.6667V66.1111V68.1111H80.8889H113.944ZM128.111 49.2222H130.111V47.2222V37.7778V35.7778H128.111H80.8889H78.8889V37.7778V47.2222V49.2222H80.8889H128.111ZM128.111 30.3333H130.111V28.3333V18.8889V16.8889H128.111H80.8889H78.8889V18.8889V28.3333V30.3333H80.8889H128.111ZM71.4444 2H137.556C141.645 2 145 5.35457 145 9.44444V75.5556C145 79.6454 141.645 83 137.556 83H71.4444C67.3546 83 64 79.6454 64 75.5556V9.44444C64 5.35457 67.3546 2 71.4444 2Z" stroke="#7F7F7F" stroke-width="4"/>
<path d="M12.14 137H10.74L3 125.24V137H1.6V123.02H3L10.74 134.76V123.02H12.14V137ZM20.0909 137.16C19.0643 137.16 18.1376 136.933 17.3109 136.48C16.4976 136.013 15.8509 135.36 15.3709 134.52C14.9043 133.667 14.6709 132.673 14.6709 131.54C14.6709 130.407 14.9109 129.42 15.3909 128.58C15.8709 127.727 16.5243 127.073 17.3509 126.62C18.1776 126.153 19.1043 125.92 20.1309 125.92C21.1576 125.92 22.0843 126.153 22.9109 126.62C23.7509 127.073 24.4043 127.727 24.8709 128.58C25.3509 129.42 25.5909 130.407 25.5909 131.54C25.5909 132.66 25.3509 133.647 24.8709 134.5C24.3909 135.353 23.7309 136.013 22.8909 136.48C22.0509 136.933 21.1176 137.16 20.0909 137.16ZM20.0909 135.94C20.8109 135.94 21.4776 135.78 22.0909 135.46C22.7043 135.127 23.1976 134.633 23.5709 133.98C23.9576 133.313 24.1509 132.5 24.1509 131.54C24.1509 130.58 23.9643 129.773 23.5909 129.12C23.2176 128.453 22.7243 127.96 22.1109 127.64C21.4976 127.307 20.8309 127.14 20.1109 127.14C19.3909 127.14 18.7243 127.307 18.1109 127.64C17.4976 127.96 17.0043 128.453 16.6309 129.12C16.2709 129.773 16.0909 130.58 16.0909 131.54C16.0909 132.5 16.2709 133.313 16.6309 133.98C17.0043 134.633 17.4909 135.127 18.0909 135.46C18.7043 135.78 19.3709 135.94 20.0909 135.94ZM37.3913 137.16C36.1379 137.16 35.1113 136.873 34.3113 136.3C33.5246 135.713 33.0846 134.92 32.9913 133.92H34.4313C34.4979 134.533 34.7846 135.033 35.2913 135.42C35.8113 135.793 36.5046 135.98 37.3713 135.98C38.1313 135.98 38.7246 135.8 39.1513 135.44C39.5913 135.08 39.8113 134.633 39.8113 134.1C39.8113 133.727 39.6913 133.42 39.4513 133.18C39.2113 132.94 38.9046 132.753 38.5313 132.62C38.1713 132.473 37.6779 132.32 37.0513 132.16C36.2379 131.947 35.5779 131.733 35.0713 131.52C34.5646 131.307 34.1313 130.993 33.7713 130.58C33.4246 130.153 33.2513 129.587 33.2513 128.88C33.2513 128.347 33.4113 127.853 33.7313 127.4C34.0513 126.947 34.5046 126.587 35.0913 126.32C35.6779 126.053 36.3446 125.92 37.0913 125.92C38.2646 125.92 39.2113 126.22 39.9313 126.82C40.6513 127.407 41.0379 128.22 41.0913 129.26H39.6913C39.6513 128.62 39.3979 128.107 38.9313 127.72C38.4779 127.32 37.8513 127.12 37.0513 127.12C36.3446 127.12 35.7713 127.287 35.3313 127.62C34.8913 127.953 34.6712 128.367 34.6712 128.86C34.6712 129.287 34.7979 129.64 35.0513 129.92C35.3179 130.187 35.6446 130.4 36.0313 130.56C36.4179 130.707 36.9379 130.873 37.5913 131.06C38.3779 131.273 39.0046 131.48 39.4713 131.68C39.9379 131.88 40.3379 132.173 40.6713 132.56C41.0046 132.947 41.1779 133.46 41.1913 134.1C41.1913 134.687 41.0313 135.213 40.7113 135.68C40.3913 136.133 39.9446 136.493 39.3713 136.76C38.7979 137.027 38.1379 137.16 37.3913 137.16ZM53.7066 130.98C53.7066 131.46 53.6932 131.827 53.6666 132.08H44.6066C44.6466 132.907 44.8466 133.613 45.2066 134.2C45.5666 134.787 46.0399 135.233 46.6266 135.54C47.2132 135.833 47.8532 135.98 48.5466 135.98C49.4532 135.98 50.2132 135.76 50.8266 135.32C51.4532 134.88 51.8666 134.287 52.0666 133.54H53.5466C53.2799 134.607 52.7066 135.48 51.8266 136.16C50.9599 136.827 49.8666 137.16 48.5466 137.16C47.5199 137.16 46.5999 136.933 45.7866 136.48C44.9732 136.013 44.3332 135.36 43.8666 134.52C43.4132 133.667 43.1866 132.673 43.1866 131.54C43.1866 130.407 43.4132 129.413 43.8666 128.56C44.3199 127.707 44.9532 127.053 45.7666 126.6C46.5799 126.147 47.5066 125.92 48.5466 125.92C49.5866 125.92 50.4932 126.147 51.2666 126.6C52.0532 127.053 52.6532 127.667 53.0666 128.44C53.4932 129.2 53.7066 130.047 53.7066 130.98ZM52.2866 130.94C52.2999 130.127 52.1332 129.433 51.7866 128.86C51.4532 128.287 50.9932 127.853 50.4066 127.56C49.8199 127.267 49.1799 127.12 48.4866 127.12C47.4466 127.12 46.5599 127.453 45.8266 128.12C45.0932 128.787 44.6866 129.727 44.6066 130.94H52.2866ZM57.668 128.02C57.9746 127.34 58.4413 126.813 59.068 126.44C59.708 126.067 60.488 125.88 61.408 125.88V127.34H61.028C60.0146 127.34 59.2013 127.613 58.588 128.16C57.9746 128.707 57.668 129.62 57.668 130.9V137H56.268V126.08H57.668V128.02ZM67.3941 135.64L71.0741 126.08H72.5541L68.1741 137H66.5941L62.2141 126.08H63.7141L67.3941 135.64ZM75.1516 124.02C74.8716 124.02 74.6316 123.92 74.4316 123.72C74.2316 123.52 74.1316 123.273 74.1316 122.98C74.1316 122.687 74.2316 122.447 74.4316 122.26C74.6316 122.06 74.8716 121.96 75.1516 121.96C75.4316 121.96 75.6716 122.06 75.8716 122.26C76.0716 122.447 76.1716 122.687 76.1716 122.98C76.1716 123.273 76.0716 123.52 75.8716 123.72C75.6716 123.92 75.4316 124.02 75.1516 124.02ZM75.8516 126.08V137H74.4516V126.08H75.8516ZM78.3819 131.54C78.3819 130.407 78.6085 129.42 79.0619 128.58C79.5152 127.727 80.1419 127.073 80.9419 126.62C81.7419 126.153 82.6552 125.92 83.6819 125.92C85.0285 125.92 86.1352 126.253 87.0019 126.92C87.8819 127.587 88.4485 128.493 88.7019 129.64H87.2019C87.0152 128.853 86.6085 128.24 85.9819 127.8C85.3685 127.347 84.6019 127.12 83.6819 127.12C82.9485 127.12 82.2885 127.287 81.7019 127.62C81.1152 127.953 80.6485 128.453 80.3019 129.12C79.9685 129.773 79.8019 130.58 79.8019 131.54C79.8019 132.5 79.9685 133.313 80.3019 133.98C80.6485 134.647 81.1152 135.147 81.7019 135.48C82.2885 135.813 82.9485 135.98 83.6819 135.98C84.6019 135.98 85.3685 135.76 85.9819 135.32C86.6085 134.867 87.0152 134.24 87.2019 133.44H88.7019C88.4485 134.56 87.8819 135.46 87.0019 136.14C86.1219 136.82 85.0152 137.16 83.6819 137.16C82.6552 137.16 81.7419 136.933 80.9419 136.48C80.1419 136.013 79.5152 135.36 79.0619 134.52C78.6085 133.667 78.3819 132.673 78.3819 131.54ZM101.168 130.98C101.168 131.46 101.154 131.827 101.128 132.08H92.0675C92.1075 132.907 92.3075 133.613 92.6675 134.2C93.0275 134.787 93.5008 135.233 94.0875 135.54C94.6742 135.833 95.3142 135.98 96.0075 135.98C96.9142 135.98 97.6742 135.76 98.2875 135.32C98.9142 134.88 99.3275 134.287 99.5275 133.54H101.008C100.741 134.607 100.168 135.48 99.2875 136.16C98.4208 136.827 97.3275 137.16 96.0075 137.16C94.9808 137.16 94.0608 136.933 93.2475 136.48C92.4342 136.013 91.7942 135.36 91.3275 134.52C90.8742 133.667 90.6475 132.673 90.6475 131.54C90.6475 130.407 90.8742 129.413 91.3275 128.56C91.7808 127.707 92.4142 127.053 93.2275 126.6C94.0408 126.147 94.9675 125.92 96.0075 125.92C97.0475 125.92 97.9542 126.147 98.7275 126.6C99.5142 127.053 100.114 127.667 100.528 128.44C100.954 129.2 101.168 130.047 101.168 130.98ZM99.7475 130.94C99.7608 130.127 99.5942 129.433 99.2475 128.86C98.9142 128.287 98.4542 127.853 97.8675 127.56C97.2808 127.267 96.6408 127.12 95.9475 127.12C94.9075 127.12 94.0208 127.453 93.2875 128.12C92.5542 128.787 92.1475 129.727 92.0675 130.94H99.7475ZM107.489 137.16C106.236 137.16 105.209 136.873 104.409 136.3C103.622 135.713 103.182 134.92 103.089 133.92H104.529C104.596 134.533 104.882 135.033 105.389 135.42C105.909 135.793 106.602 135.98 107.469 135.98C108.229 135.98 108.822 135.8 109.249 135.44C109.689 135.08 109.909 134.633 109.909 134.1C109.909 133.727 109.789 133.42 109.549 133.18C109.309 132.94 109.002 132.753 108.629 132.62C108.269 132.473 107.776 132.32 107.149 132.16C106.336 131.947 105.676 131.733 105.169 131.52C104.662 131.307 104.229 130.993 103.869 130.58C103.522 130.153 103.349 129.587 103.349 128.88C103.349 128.347 103.509 127.853 103.829 127.4C104.149 126.947 104.602 126.587 105.189 126.32C105.776 126.053 106.442 125.92 107.189 125.92C108.362 125.92 109.309 126.22 110.029 126.82C110.749 127.407 111.136 128.22 111.189 129.26H109.789C109.749 128.62 109.496 128.107 109.029 127.72C108.576 127.32 107.949 127.12 107.149 127.12C106.442 127.12 105.869 127.287 105.429 127.62C104.989 127.953 104.769 128.367 104.769 128.86C104.769 129.287 104.896 129.64 105.149 129.92C105.416 130.187 105.742 130.4 106.129 130.56C106.516 130.707 107.036 130.873 107.689 131.06C108.476 131.273 109.102 131.48 109.569 131.68C110.036 131.88 110.436 132.173 110.769 132.56C111.102 132.947 111.276 133.46 111.289 134.1C111.289 134.687 111.129 135.213 110.809 135.68C110.489 136.133 110.042 136.493 109.469 136.76C108.896 137.027 108.236 137.16 107.489 137.16ZM118.773 131.52C118.773 130.4 118.993 129.42 119.433 128.58C119.886 127.727 120.506 127.073 121.293 126.62C122.093 126.153 122.993 125.92 123.993 125.92C125.033 125.92 125.926 126.16 126.673 126.64C127.433 127.12 127.979 127.733 128.313 128.48V126.08H129.713V137H128.313V134.58C127.966 135.327 127.413 135.947 126.653 136.44C125.906 136.92 125.013 137.16 123.973 137.16C122.986 137.16 122.093 136.927 121.293 136.46C120.506 135.993 119.886 135.333 119.433 134.48C118.993 133.627 118.773 132.64 118.773 131.52ZM128.313 131.54C128.313 130.66 128.133 129.887 127.773 129.22C127.413 128.553 126.919 128.04 126.293 127.68C125.679 127.32 124.999 127.14 124.253 127.14C123.479 127.14 122.786 127.313 122.173 127.66C121.559 128.007 121.073 128.513 120.713 129.18C120.366 129.833 120.193 130.613 120.193 131.52C120.193 132.413 120.366 133.2 120.713 133.88C121.073 134.547 121.559 135.06 122.173 135.42C122.786 135.767 123.479 135.94 124.253 135.94C124.999 135.94 125.679 135.76 126.293 135.4C126.919 135.04 127.413 134.527 127.773 133.86C128.133 133.193 128.313 132.42 128.313 131.54ZM136.789 135.64L140.469 126.08H141.949L137.569 137H135.989L131.609 126.08H133.109L136.789 135.64ZM143.206 131.52C143.206 130.4 143.426 129.42 143.866 128.58C144.319 127.727 144.939 127.073 145.726 126.62C146.526 126.153 147.426 125.92 148.426 125.92C149.466 125.92 150.359 126.16 151.106 126.64C151.866 127.12 152.413 127.733 152.746 128.48V126.08H154.146V137H152.746V134.58C152.399 135.327 151.846 135.947 151.086 136.44C150.339 136.92 149.446 137.16 148.406 137.16C147.419 137.16 146.526 136.927 145.726 136.46C144.939 135.993 144.319 135.333 143.866 134.48C143.426 133.627 143.206 132.64 143.206 131.52ZM152.746 131.54C152.746 130.66 152.566 129.887 152.206 129.22C151.846 128.553 151.353 128.04 150.726 127.68C150.113 127.32 149.433 127.14 148.686 127.14C147.913 127.14 147.219 127.313 146.606 127.66C145.993 128.007 145.506 128.513 145.146 129.18C144.799 129.833 144.626 130.613 144.626 131.52C144.626 132.413 144.799 133.2 145.146 133.88C145.506 134.547 145.993 135.06 146.606 135.42C147.219 135.767 147.913 135.94 148.686 135.94C149.433 135.94 150.113 135.76 150.726 135.4C151.353 135.04 151.846 134.527 152.206 133.86C152.566 133.193 152.746 132.42 152.746 131.54ZM158.042 124.02C157.762 124.02 157.522 123.92 157.322 123.72C157.122 123.52 157.022 123.273 157.022 122.98C157.022 122.687 157.122 122.447 157.322 122.26C157.522 122.06 157.762 121.96 158.042 121.96C158.322 121.96 158.562 122.06 158.762 122.26C158.962 122.447 159.062 122.687 159.062 122.98C159.062 123.273 158.962 123.52 158.762 123.72C158.562 123.92 158.322 124.02 158.042 124.02ZM158.742 126.08V137H157.342V126.08H158.742ZM163.313 122.2V137H161.913V122.2H163.313ZM165.843 131.52C165.843 130.4 166.063 129.42 166.503 128.58C166.956 127.727 167.576 127.073 168.363 126.62C169.163 126.153 170.063 125.92 171.063 125.92C172.103 125.92 172.996 126.16 173.743 126.64C174.503 127.12 175.049 127.733 175.383 128.48V126.08H176.783V137H175.383V134.58C175.036 135.327 174.483 135.947 173.723 136.44C172.976 136.92 172.083 137.16 171.043 137.16C170.056 137.16 169.163 136.927 168.363 136.46C167.576 135.993 166.956 135.333 166.503 134.48C166.063 133.627 165.843 132.64 165.843 131.52ZM175.383 131.54C175.383 130.66 175.203 129.887 174.843 129.22C174.483 128.553 173.989 128.04 173.363 127.68C172.749 127.32 172.069 127.14 171.323 127.14C170.549 127.14 169.856 127.313 169.243 127.66C168.629 128.007 168.143 128.513 167.783 129.18C167.436 129.833 167.263 130.613 167.263 131.52C167.263 132.413 167.436 133.2 167.783 133.88C168.143 134.547 168.629 135.06 169.243 135.42C169.856 135.767 170.549 135.94 171.323 135.94C172.069 135.94 172.749 135.76 173.363 135.4C173.989 135.04 174.483 134.527 174.843 133.86C175.203 133.193 175.383 132.42 175.383 131.54ZM181.359 128.5C181.719 127.74 182.272 127.12 183.019 126.64C183.779 126.16 184.672 125.92 185.699 125.92C186.699 125.92 187.592 126.153 188.379 126.62C189.166 127.073 189.779 127.727 190.219 128.58C190.672 129.42 190.899 130.4 190.899 131.52C190.899 132.64 190.672 133.627 190.219 134.48C189.779 135.333 189.159 135.993 188.359 136.46C187.572 136.927 186.686 137.16 185.699 137.16C184.659 137.16 183.759 136.927 182.999 136.46C182.252 135.98 181.706 135.36 181.359 134.6V137H179.979V122.2H181.359V128.5ZM189.479 131.52C189.479 130.613 189.299 129.833 188.939 129.18C188.592 128.513 188.112 128.007 187.499 127.66C186.886 127.313 186.192 127.14 185.419 127.14C184.672 127.14 183.986 127.32 183.359 127.68C182.746 128.04 182.259 128.553 181.899 129.22C181.539 129.887 181.359 130.66 181.359 131.54C181.359 132.42 181.539 133.193 181.899 133.86C182.259 134.527 182.746 135.04 183.359 135.4C183.986 135.76 184.672 135.94 185.419 135.94C186.192 135.94 186.886 135.767 187.499 135.42C188.112 135.06 188.592 134.547 188.939 133.88C189.299 133.2 189.479 132.413 189.479 131.52ZM194.875 122.2V137H193.475V122.2H194.875ZM207.925 130.98C207.925 131.46 207.912 131.827 207.885 132.08H198.825C198.865 132.907 199.065 133.613 199.425 134.2C199.785 134.787 200.259 135.233 200.845 135.54C201.432 135.833 202.072 135.98 202.765 135.98C203.672 135.98 204.432 135.76 205.045 135.32C205.672 134.88 206.085 134.287 206.285 133.54H207.765C207.499 134.607 206.925 135.48 206.045 136.16C205.179 136.827 204.085 137.16 202.765 137.16C201.739 137.16 200.819 136.933 200.005 136.48C199.192 136.013 198.552 135.36 198.085 134.52C197.632 133.667 197.405 132.673 197.405 131.54C197.405 130.407 197.632 129.413 198.085 128.56C198.539 127.707 199.172 127.053 199.985 126.6C200.799 126.147 201.725 125.92 202.765 125.92C203.805 125.92 204.712 126.147 205.485 126.6C206.272 127.053 206.872 127.667 207.285 128.44C207.712 129.2 207.925 130.047 207.925 130.98ZM206.505 130.94C206.519 130.127 206.352 129.433 206.005 128.86C205.672 128.287 205.212 127.853 204.625 127.56C204.039 127.267 203.399 127.12 202.705 127.12C201.665 127.12 200.779 127.453 200.045 128.12C199.312 128.787 198.905 129.727 198.825 130.94H206.505Z" fill="black"/>
</svg>
