<svg xmlns="http://www.w3.org/2000/svg" width="18" height="18" viewBox="0 0 18 18">
  <g id="print" transform="translate(-8.98 -8.27)">
    <g id="Group_2114" data-name="Group 2114" transform="translate(8.98 8.27)">
      <path id="Path_175" data-name="Path 175" d="M28.83,71.09" transform="translate(-24.474 -57.541)" fill="none" stroke="#222" stroke-width="4"/>
      <path id="Path_176" data-name="Path 176" d="M24.209,37.347h-1.58V36.5h1.58a1.865,1.865,0,0,0,1.9-1.828V30.418a1.866,1.866,0,0,0-1.9-1.83H11.754a1.866,1.866,0,0,0-1.9,1.83v4.254a1.864,1.864,0,0,0,1.9,1.828h1.58v.847h-1.58A2.73,2.73,0,0,1,8.98,34.671V30.418a2.73,2.73,0,0,1,2.774-2.678H24.206a2.73,2.73,0,0,1,2.774,2.678v4.254A2.729,2.729,0,0,1,24.209,37.347Z" transform="translate(-8.98 -23.452)" fill="#222"/>
      <path id="Path_177" data-name="Path 177" d="M35.828,13.439H24.79v-3.3A1.863,1.863,0,0,1,26.647,8.27h7.325a1.863,1.863,0,0,1,1.857,1.868Zm-10.163-.881h9.287v-2.42a.985.985,0,0,0-.981-.987H26.647a.985.985,0,0,0-.981.987Z" transform="translate(-21.308 -8.27)" fill="#222"/>
      <path id="Path_178" data-name="Path 178" d="M33.972,64.189H26.647a1.863,1.863,0,0,1-1.857-1.868V56.41H35.828v5.911A1.866,1.866,0,0,1,33.972,64.189Zm-8.306-6.9v5.03a.985.985,0,0,0,.981.987h7.325a.985.985,0,0,0,.981-.987v-5.03Z" transform="translate(-21.308 -46.189)" fill="#222"/>
      <path id="Path_179" data-name="Path 179" d="M33.124,57.291H21.178a.44.44,0,0,1,0-.881H33.124a.44.44,0,0,1,0,.881Z" transform="translate(-18.15 -46.039)" fill="#222"/>
      <path id="Path_180" data-name="Path 180" d="M44.574,67.181H41.53a.44.44,0,1,1,0-.881h3.044a.44.44,0,1,1,0,.881Z" transform="translate(-34.051 -53.798)" fill="#222"/>
      <path id="Path_181" data-name="Path 181" d="M22.453,38.651H20.38a.44.44,0,1,1,0-.881h2.072a.44.44,0,1,1,0,.881Z" transform="translate(-17.526 -31.414)" fill="#222"/>
      <path id="Path_182" data-name="Path 182" d="M44.574,75.981H41.53a.44.44,0,1,1,0-.881h3.044a.44.44,0,1,1,0,.881Z" transform="translate(-34.051 -60.762)" fill="#222"/>
    </g>
  </g>
</svg>
