<svg xmlns="http://www.w3.org/2000/svg" width="25.821" height="25.201" viewBox="0 0 21.821 22.201">
  <g id="print" transform="translate(-8.98 -8.27)">
    <g id="Group_2114" data-name="Group 2114" transform="translate(8.98 8.27)">
      <path id="Path_175" data-name="Path 175" d="M28.83,71.09" transform="translate(-23.55 -54.379)" fill="none" stroke="#000" stroke-width="4"/>
      <path id="Path_176" data-name="Path 176" d="M27.441,39.8H25.526V38.74h1.915a2.3,2.3,0,0,0,2.3-2.3V31.1a2.3,2.3,0,0,0-2.3-2.3h-15.1a2.3,2.3,0,0,0-2.3,2.3v5.342a2.3,2.3,0,0,0,2.3,2.3h1.915V39.8H12.342a3.366,3.366,0,0,1-3.362-3.36V31.1a3.366,3.366,0,0,1,3.362-3.362h15.1A3.366,3.366,0,0,1,30.8,31.1v5.342A3.365,3.365,0,0,1,27.441,39.8Z" transform="translate(-8.98 -22.561)" fill="#fff"/>
      <path id="Path_177" data-name="Path 177" d="M38.2,14.513H24.79V10.526A2.257,2.257,0,0,1,27.046,8.27h8.9A2.257,2.257,0,0,1,38.2,10.526ZM25.854,13.449H37.138V10.526a1.193,1.193,0,0,0-1.192-1.192h-8.9a1.193,1.193,0,0,0-1.192,1.192Z" transform="translate(-20.584 -8.27)" fill="#fff"/>
      <path id="Path_178" data-name="Path 178" d="M35.947,65.806h-8.9A2.257,2.257,0,0,1,24.79,63.55V56.41H38.2v7.14A2.26,2.26,0,0,1,35.947,65.806ZM25.854,57.474V63.55a1.193,1.193,0,0,0,1.192,1.192h8.9a1.193,1.193,0,0,0,1.192-1.192V57.474Z" transform="translate(-20.584 -43.604)" fill="#fff"/>
      <path id="Path_179" data-name="Path 179" d="M35.775,57.474h-14.5a.532.532,0,1,1,0-1.064h14.5a.532.532,0,0,1,0,1.064Z" transform="translate(-17.612 -43.604)" fill="#fff"/>
      <path id="Path_180" data-name="Path 180" d="M45.3,67.364H41.622a.532.532,0,1,1,0-1.064H45.3a.532.532,0,1,1,0,1.064Z" transform="translate(-32.548 -50.863)" fill="#fff"/>
      <path id="Path_181" data-name="Path 181" d="M22.975,38.834h-2.5a.532.532,0,1,1,0-1.064h2.5a.532.532,0,0,1,0,1.064Z" transform="translate(-17.024 -29.923)" fill="#fff"/>
      <path id="Path_182" data-name="Path 182" d="M45.3,76.164H41.622a.532.532,0,1,1,0-1.064H45.3a.532.532,0,1,1,0,1.064Z" transform="translate(-32.548 -57.322)" fill="#fff"/>
    </g>
  </g>
</svg>
