<svg xmlns="http://www.w3.org/2000/svg" width="17.989" height="17.889" viewBox="0 0 17.989 17.889">
  <g id="noun-swap-1259590" transform="translate(-69.376 -121.383)">
    <path id="Path_481" data-name="Path 481" d="M184.473,114.958h9.956l-2.934,2.933a.443.443,0,0,0,.627.626l3.689-3.689a.448.448,0,0,0,.055-.067c0-.006.006-.012.01-.018a.422.422,0,0,0,.031-.058c0-.009.005-.019.008-.027a.466.466,0,0,0,.017-.055.413.413,0,0,0,.009-.087.424.424,0,0,0-.009-.087.4.4,0,0,0-.017-.055c0-.009,0-.019-.008-.027a.422.422,0,0,0-.031-.058c0-.006-.006-.012-.01-.018a.445.445,0,0,0-.055-.067l-3.689-3.689a.443.443,0,0,0-.626.626l2.933,2.933h-9.956a5.051,5.051,0,0,0-5.045,5.045.443.443,0,1,0,.886,0,4.164,4.164,0,0,1,4.159-4.159Zm12.5,4.137a.443.443,0,0,0-.443.443,4.164,4.164,0,0,1-4.159,4.159h-9.956l2.934-2.933a.443.443,0,1,0-.626-.626l-3.689,3.689a.447.447,0,0,0-.055.067c0,.006-.007.013-.011.02a.511.511,0,0,0-.03.056c0,.009-.006.019-.009.029a.407.407,0,0,0-.016.054.429.429,0,0,0-.009.088.46.46,0,0,0,.009.088.443.443,0,0,0,.016.054c0,.009,0,.019.009.029a.4.4,0,0,0,.03.056c0,.006.006.013.011.02a.446.446,0,0,0,.055.067l3.689,3.689a.443.443,0,1,0,.627-.626l-2.933-2.933h9.956a5.051,5.051,0,0,0,5.045-5.045.443.443,0,0,0-.443-.443Z" transform="translate(-110.052 11)"/>
  </g>
</svg>
