<svg width="428" height="80" viewBox="0 0 428 80" fill="none" xmlns="http://www.w3.org/2000/svg">
<path d="M220.59 45.4093H212.297V4.07824H228.843C230.323 4.07267 231.796 4.27111 233.221 4.66795C234.6 5.05243 235.922 5.61512 237.155 6.34179C239.606 7.79099 241.65 9.83918 243.093 12.2942C244.28 14.3222 245.02 16.5802 245.264 18.9172C245.509 21.2543 245.251 23.6165 244.509 25.846C243.767 28.0754 242.557 30.1208 240.961 31.8452C239.365 33.5696 237.419 34.9333 235.253 35.8452C233.227 36.7146 231.043 37.1564 228.838 37.1431H220.586L220.59 45.4093ZM220.59 12.3496V28.8949H228.862C229.961 28.9028 231.049 28.6836 232.06 28.2511C233.556 27.6158 234.833 26.5541 235.73 25.1983C236.628 23.8425 237.106 22.2526 237.106 20.6268C237.106 19.0009 236.628 17.411 235.73 16.0552C234.833 14.6995 233.556 13.6377 232.06 13.0024C231.049 12.5699 229.961 12.3508 228.862 12.3586L220.59 12.3496Z" fill="#8B22E2"/>
<path d="M257.204 6.15107C257.21 6.85484 257.068 7.55208 256.787 8.19703C256.519 8.81816 256.133 9.38075 255.648 9.85284C255.162 10.3288 254.591 10.7104 253.966 10.9782C252.679 11.5236 251.228 11.5372 249.932 11.016C248.635 10.4948 247.597 9.48121 247.046 8.19703C246.778 7.56186 246.638 6.8801 246.633 6.19066C246.628 5.50123 246.759 4.81763 247.019 4.17891C247.279 3.5402 247.662 2.95886 248.146 2.46812C248.63 1.97738 249.206 1.58685 249.841 1.31882C250.493 1.04395 251.194 0.902344 251.902 0.902344C252.609 0.902344 253.31 1.04395 253.962 1.31882C254.587 1.58663 255.158 1.9682 255.645 2.44415C256.119 2.92408 256.493 3.49292 256.747 4.118C257.04 4.75627 257.195 5.44888 257.204 6.15107ZM255.843 45.4092H247.898V14.5576H255.843V45.4092Z" fill="#8B22E2"/>
<path d="M287.335 20.6772L281.569 26.4713C281.295 25.6881 280.897 24.9542 280.39 24.2978C279.912 23.6733 279.343 23.1243 278.702 22.6691C278.081 22.2275 277.395 21.886 276.669 21.657C275.942 21.427 275.185 21.3106 274.423 21.312C273.372 21.3067 272.333 21.5326 271.379 21.9738C270.433 22.414 269.589 23.0478 268.902 23.8343C268.176 24.6694 267.613 25.6327 267.241 26.6747C266.828 27.8397 266.624 29.0684 266.637 30.3044C266.631 31.3435 266.837 32.3729 267.241 33.3302C267.633 34.2548 268.197 35.0967 268.902 35.8113C269.627 36.5359 270.488 37.1095 271.435 37.4989C272.383 37.8884 273.399 38.0859 274.423 38.08C275.174 38.0806 275.921 37.9735 276.642 37.762C277.347 37.5543 278.02 37.2511 278.643 36.8607C279.908 36.0601 280.906 34.901 281.51 33.531L287.277 39.3251C286.554 40.3564 285.706 41.2951 284.755 42.1204C283.812 42.9421 282.774 43.6488 281.664 44.2256C280.56 44.8016 279.39 45.2417 278.18 45.5363C276.949 45.8383 275.687 45.9904 274.419 45.9896C272.314 46.001 270.229 45.5844 268.29 44.7651C264.515 43.1741 261.504 40.1823 259.888 36.4178C259.056 34.4886 258.634 32.4077 258.649 30.3069C258.629 28.0336 259.05 25.7778 259.888 23.6644C260.671 21.6763 261.821 19.8529 263.277 18.2887C264.696 16.7639 266.399 15.5309 268.29 14.6591C270.211 13.7723 272.304 13.3186 274.419 13.3303C275.698 13.3296 276.971 13.4945 278.207 13.8209C279.444 14.1461 280.635 14.6264 281.751 15.2501C282.881 15.873 283.928 16.6352 284.868 17.5188C285.832 18.4544 286.661 19.5201 287.331 20.6849L287.335 20.6772Z" fill="#8B22E2"/>
<path d="M297.622 45.4092H289.695V2.25879H297.622V29.4806L309.354 14.5809H318.406L308.171 27.4334L318.408 45.395H309.357L303.1 34.1841L297.624 41.4435L297.622 45.4092Z" fill="#8B22E2"/>
<path d="M335.515 45.4092C333.674 45.422 331.85 45.0542 330.157 44.3289C326.842 42.918 324.202 40.2792 322.79 36.9653C322.065 35.271 321.697 33.4454 321.709 31.6026V22.435H317.875V14.5809H321.712V2.25879H329.552V14.5809H341.489V22.435H329.552V31.6C329.541 32.7737 329.881 33.924 330.527 34.9037C331.174 35.8833 332.098 36.6478 333.182 37.0992C333.919 37.4101 334.713 37.5644 335.513 37.5524H341.484V45.3925L335.515 45.4092Z" fill="#8B22E2"/>
<path d="M353.705 6.15217C353.71 6.85574 353.568 7.55255 353.288 8.19813C353.021 8.81929 352.634 9.38189 352.15 9.85394C351.662 10.331 351.09 10.7127 350.462 10.9793C349.176 11.5248 347.726 11.5384 346.43 11.0172C345.134 10.4959 344.098 9.48217 343.548 8.19813C343.269 7.55367 343.125 6.8589 343.125 6.15668C343.125 5.45446 343.269 4.75969 343.548 4.11523C344.077 2.85365 345.08 1.85004 346.342 1.31992C346.994 1.04434 347.694 0.902344 348.402 0.902344C349.11 0.902344 349.81 1.04434 350.462 1.31992C351.09 1.58648 351.662 1.96816 352.15 2.44525C352.642 2.92838 353.033 3.50442 353.3 4.1399C353.567 4.77539 353.705 5.45764 353.707 6.14702L353.705 6.15217ZM352.344 45.4103H344.423V14.5587H352.353L352.344 45.4103Z" fill="#8B22E2"/>
<path d="M396.133 45.4094H388.293V25.81C388.296 25.2852 388.193 24.7653 387.989 24.2816C387.692 23.5644 387.188 22.9516 386.542 22.5211C385.896 22.0906 385.136 21.8618 384.36 21.8636C383.839 21.86 383.324 21.962 382.844 22.1636C382.378 22.3619 381.957 22.6518 381.605 23.016C381.25 23.3814 380.967 23.8109 380.771 24.2816C380.567 24.7653 380.464 25.2852 380.467 25.81V45.4094H372.582V25.81C372.58 25.0353 372.353 24.2779 371.928 23.6302C371.503 22.9824 370.898 22.4724 370.189 22.1623C369.704 21.9617 369.185 21.8597 368.66 21.8623C368.147 21.8562 367.638 21.9553 367.164 22.1535C366.69 22.3517 366.262 22.6448 365.906 23.0147C365.551 23.3802 365.268 23.8096 365.072 24.2804C364.87 24.7647 364.767 25.2842 364.768 25.8087V45.4081H356.875V14.5579H358.775L360.908 16.9219C361.99 16.0092 363.216 15.2838 364.537 14.7755C365.846 14.2627 367.238 14.0007 368.643 14.0029C370.09 14.0051 371.523 14.279 372.868 14.8103C374.309 15.3954 375.564 16.3617 376.498 17.6056C376.955 16.9755 377.5 16.4148 378.117 15.9407C378.719 15.4886 379.372 15.1107 380.064 14.8154C380.745 14.5295 381.456 14.3209 382.184 14.1935C382.9 14.0733 383.625 14.013 384.352 14.0132C385.929 13.9951 387.493 14.3019 388.947 14.9145C391.088 15.8153 392.913 17.3314 394.19 19.2707C395.468 21.21 396.141 23.4851 396.124 25.8074L396.133 45.4094Z" fill="#8B22E2"/>
<path d="M412.679 37.8605C412.972 37.9534 413.274 38.0156 413.58 38.0459C413.889 38.0729 414.197 38.0909 414.482 38.0909C415.234 38.0919 415.983 37.9848 416.705 37.7729C417.41 37.5652 418.084 37.262 418.706 36.8716C419.971 36.071 420.97 34.9119 421.574 33.542L427.341 39.336C426.617 40.3673 425.77 41.3061 424.818 42.1313C423.875 42.953 422.838 43.6597 421.728 44.2365C420.624 44.8125 419.454 45.2526 418.244 45.5473C417.011 45.8495 415.747 46.0017 414.478 46.0005C411.362 46.0189 408.313 45.1002 405.726 43.3637C403.139 41.6272 401.134 39.1531 399.971 36.2626C399.138 34.1753 398.729 31.943 398.768 29.696C398.74 27.4072 399.161 25.1351 400.007 23.0083C400.758 21.1018 401.889 19.3676 403.33 17.9109C404.771 16.4541 406.493 15.3051 408.391 14.5335C410.335 13.7383 412.417 13.3357 414.516 13.349C415.79 13.344 417.059 13.4962 418.296 13.8022C421.996 14.725 425.241 16.949 427.437 20.0675L412.679 37.8605ZM416.713 21.6371C416.365 21.5053 416.002 21.4188 415.633 21.3795C415.264 21.3386 414.893 21.3189 414.522 21.3203C413.479 21.3132 412.446 21.5137 411.482 21.91C410.547 22.2942 409.704 22.8691 409.004 23.598C408.283 24.3576 407.72 25.2537 407.349 26.2337C406.929 27.3441 406.723 28.5234 406.741 29.7101C406.735 30.0374 406.75 30.3647 406.786 30.69C406.813 31.0613 406.86 31.4309 406.926 31.7973C406.994 32.1733 407.076 32.5325 407.171 32.8814C407.261 33.1956 407.387 33.4982 407.548 33.7827L416.713 21.6371Z" fill="#8B22E2"/>
<path d="M6.77688 43.29L1.21688 17.05H4.65688L7.41688 31.33C7.65688 32.7434 7.91021 34.1567 8.17688 35.57C8.44354 36.9834 8.69688 38.3967 8.93688 39.81H9.09688C9.39021 38.3967 9.69688 36.9834 10.0169 35.57C10.3369 34.13 10.6435 32.7167 10.9369 31.33L14.5769 17.05H17.6169L21.2569 31.33C21.5769 32.7167 21.8969 34.13 22.2169 35.57C22.5369 36.9834 22.8569 38.3967 23.1769 39.81H23.3369C23.5769 38.3967 23.8169 36.9834 24.0569 35.57C24.2969 34.13 24.5502 32.7167 24.8169 31.33L27.5769 17.05H30.7769L25.3369 43.29H21.3369L17.3769 27.49C17.1369 26.4767 16.9102 25.49 16.6969 24.53C16.5102 23.5434 16.3102 22.5434 16.0969 21.53H15.9369C15.7502 22.5434 15.5369 23.5434 15.2969 24.53C15.0569 25.49 14.8302 26.4767 14.6169 27.49L10.7369 43.29H6.77688ZM42.9022 43.77C41.1689 43.77 39.5955 43.37 38.1822 42.57C36.7689 41.7434 35.6489 40.57 34.8222 39.05C33.9955 37.53 33.5822 35.7167 33.5822 33.61C33.5822 31.4767 33.9955 29.65 34.8222 28.13C35.6755 26.61 36.7689 25.4367 38.1022 24.61C39.4355 23.7834 40.8355 23.37 42.3022 23.37C44.7822 23.37 46.6889 24.1967 48.0222 25.85C49.3822 27.5034 50.0622 29.7167 50.0622 32.49C50.0622 32.8367 50.0489 33.1834 50.0222 33.53C50.0222 33.85 49.9955 34.13 49.9422 34.37H36.8222C36.9555 36.4234 37.5955 38.0634 38.7422 39.29C39.9155 40.5167 41.4355 41.13 43.3022 41.13C44.2355 41.13 45.0889 40.9967 45.8622 40.73C46.6622 40.4367 47.4222 40.0634 48.1422 39.61L49.3022 41.77C48.4755 42.3034 47.5289 42.77 46.4622 43.17C45.4222 43.57 44.2355 43.77 42.9022 43.77ZM36.7822 32.01H47.1822C47.1822 30.0367 46.7555 28.5434 45.9022 27.53C45.0755 26.49 43.9022 25.97 42.3822 25.97C41.0222 25.97 39.7955 26.5034 38.7022 27.57C37.6355 28.61 36.9955 30.09 36.7822 32.01ZM58.3459 43.77C57.1193 43.77 56.2259 43.3967 55.6659 42.65C55.1326 41.8767 54.8659 40.7834 54.8659 39.37V14.81H58.1459V39.61C58.1459 40.1167 58.2393 40.49 58.4259 40.73C58.6126 40.9434 58.8259 41.05 59.0659 41.05C59.1726 41.05 59.2659 41.05 59.3459 41.05C59.4526 41.0234 59.5993 40.9967 59.7859 40.97L60.2259 43.45C60.0126 43.5567 59.7593 43.6367 59.4659 43.69C59.1726 43.7434 58.7993 43.77 58.3459 43.77ZM72.7413 43.77C71.0346 43.77 69.4879 43.37 68.1013 42.57C66.7146 41.77 65.6213 40.61 64.8213 39.09C64.0213 37.57 63.6213 35.7434 63.6213 33.61C63.6213 31.4234 64.0479 29.57 64.9013 28.05C65.7813 26.53 66.9279 25.37 68.3413 24.57C69.7813 23.77 71.3279 23.37 72.9813 23.37C74.2613 23.37 75.3546 23.5967 76.2613 24.05C77.1946 24.5034 77.9946 25.0367 78.6613 25.65L76.9813 27.81C76.4213 27.3034 75.8213 26.89 75.1813 26.57C74.5679 26.25 73.8746 26.09 73.1013 26.09C71.9279 26.09 70.8746 26.41 69.9413 27.05C69.0346 27.6634 68.3146 28.5434 67.7813 29.69C67.2746 30.81 67.0213 32.1167 67.0213 33.61C67.0213 35.8234 67.5679 37.6234 68.6613 39.01C69.7813 40.37 71.2346 41.05 73.0213 41.05C73.9279 41.05 74.7679 40.8634 75.5413 40.49C76.3146 40.09 76.9946 39.6234 77.5813 39.09L79.0213 41.29C78.1413 42.0634 77.1679 42.6767 76.1013 43.13C75.0346 43.5567 73.9146 43.77 72.7413 43.77ZM90.0041 43.77C88.4307 43.77 86.9507 43.37 85.5641 42.57C84.2041 41.77 83.0974 40.61 82.2441 39.09C81.4174 37.57 81.0041 35.7434 81.0041 33.61C81.0041 31.4234 81.4174 29.57 82.2441 28.05C83.0974 26.53 84.2041 25.37 85.5641 24.57C86.9507 23.77 88.4307 23.37 90.0041 23.37C91.6041 23.37 93.0841 23.77 94.4441 24.57C95.8041 25.37 96.8974 26.53 97.7241 28.05C98.5774 29.57 99.0041 31.4234 99.0041 33.61C99.0041 35.7434 98.5774 37.57 97.7241 39.09C96.8974 40.61 95.8041 41.77 94.4441 42.57C93.0841 43.37 91.6041 43.77 90.0041 43.77ZM90.0041 41.05C91.6841 41.05 93.0307 40.37 94.0441 39.01C95.0841 37.6234 95.6041 35.8234 95.6041 33.61C95.6041 31.37 95.0841 29.5567 94.0441 28.17C93.0307 26.7834 91.6841 26.09 90.0041 26.09C88.3507 26.09 87.0041 26.7834 85.9641 28.17C84.9241 29.5567 84.4041 31.37 84.4041 33.61C84.4041 35.8234 84.9241 37.6234 85.9641 39.01C87.0041 40.37 88.3507 41.05 90.0041 41.05ZM104.124 43.29V23.85H106.844L107.124 26.65H107.244C108.097 25.7167 109.03 24.9434 110.044 24.33C111.057 23.69 112.137 23.37 113.284 23.37C114.777 23.37 115.937 23.7034 116.764 24.37C117.617 25.01 118.244 25.9167 118.644 27.09C119.657 25.9967 120.684 25.1034 121.724 24.41C122.764 23.7167 123.87 23.37 125.044 23.37C127.044 23.37 128.524 24.0234 129.484 25.33C130.47 26.61 130.964 28.49 130.964 30.97V43.29H127.684V31.41C127.684 29.5967 127.39 28.2767 126.804 27.45C126.217 26.6234 125.31 26.21 124.084 26.21C122.644 26.21 121.017 27.21 119.204 29.21V43.29H115.924V31.41C115.924 29.5967 115.63 28.2767 115.044 27.45C114.457 26.6234 113.537 26.21 112.284 26.21C110.844 26.21 109.217 27.21 107.404 29.21V43.29H104.124ZM145.168 43.77C143.434 43.77 141.861 43.37 140.448 42.57C139.034 41.7434 137.914 40.57 137.088 39.05C136.261 37.53 135.848 35.7167 135.848 33.61C135.848 31.4767 136.261 29.65 137.088 28.13C137.941 26.61 139.034 25.4367 140.368 24.61C141.701 23.7834 143.101 23.37 144.568 23.37C147.048 23.37 148.954 24.1967 150.288 25.85C151.648 27.5034 152.328 29.7167 152.328 32.49C152.328 32.8367 152.314 33.1834 152.288 33.53C152.288 33.85 152.261 34.13 152.208 34.37H139.088C139.221 36.4234 139.861 38.0634 141.008 39.29C142.181 40.5167 143.701 41.13 145.568 41.13C146.501 41.13 147.354 40.9967 148.128 40.73C148.928 40.4367 149.688 40.0634 150.408 39.61L151.568 41.77C150.741 42.3034 149.794 42.77 148.728 43.17C147.688 43.57 146.501 43.77 145.168 43.77ZM139.048 32.01H149.448C149.448 30.0367 149.021 28.5434 148.168 27.53C147.341 26.49 146.168 25.97 144.648 25.97C143.288 25.97 142.061 26.5034 140.968 27.57C139.901 28.61 139.261 30.09 139.048 32.01ZM171.259 43.77C169.179 43.77 167.726 43.17 166.899 41.97C166.099 40.77 165.699 39.21 165.699 37.29V26.53H162.819V24.05L165.859 23.85L166.259 18.41H169.019V23.85H174.259V26.53H169.019V37.33C169.019 38.53 169.233 39.4634 169.659 40.13C170.113 40.77 170.899 41.09 172.019 41.09C172.366 41.09 172.739 41.0367 173.139 40.93C173.539 40.7967 173.899 40.6767 174.219 40.57L174.859 43.05C174.326 43.2367 173.739 43.3967 173.099 43.53C172.486 43.69 171.873 43.77 171.259 43.77ZM185.668 43.77C184.095 43.77 182.615 43.37 181.228 42.57C179.868 41.77 178.761 40.61 177.908 39.09C177.081 37.57 176.668 35.7434 176.668 33.61C176.668 31.4234 177.081 29.57 177.908 28.05C178.761 26.53 179.868 25.37 181.228 24.57C182.615 23.77 184.095 23.37 185.668 23.37C187.268 23.37 188.748 23.77 190.108 24.57C191.468 25.37 192.561 26.53 193.388 28.05C194.241 29.57 194.668 31.4234 194.668 33.61C194.668 35.7434 194.241 37.57 193.388 39.09C192.561 40.61 191.468 41.77 190.108 42.57C188.748 43.37 187.268 43.77 185.668 43.77ZM185.668 41.05C187.348 41.05 188.695 40.37 189.708 39.01C190.748 37.6234 191.268 35.8234 191.268 33.61C191.268 31.37 190.748 29.5567 189.708 28.17C188.695 26.7834 187.348 26.09 185.668 26.09C184.015 26.09 182.668 26.7834 181.628 28.17C180.588 29.5567 180.068 31.37 180.068 33.61C180.068 35.8234 180.588 37.6234 181.628 39.01C182.668 40.37 184.015 41.05 185.668 41.05Z" fill="#434343"/>
<path d="M5.29444 74.506C4.46644 74.506 3.69844 74.35 2.99044 74.038C2.28244 73.714 1.67044 73.288 1.15444 72.76L2.05444 71.716C2.47444 72.16 2.96644 72.52 3.53044 72.796C4.10644 73.06 4.70044 73.192 5.31244 73.192C6.09244 73.192 6.69844 73.018 7.13044 72.67C7.56244 72.31 7.77844 71.842 7.77844 71.266C7.77844 70.858 7.68844 70.534 7.50844 70.294C7.34044 70.054 7.10644 69.85 6.80644 69.682C6.51844 69.514 6.18844 69.346 5.81644 69.178L4.12444 68.44C3.75244 68.284 3.38044 68.08 3.00844 67.828C2.64844 67.576 2.34244 67.252 2.09044 66.856C1.85044 66.46 1.73044 65.974 1.73044 65.398C1.73044 64.798 1.88644 64.264 2.19844 63.796C2.52244 63.316 2.96644 62.944 3.53044 62.68C4.09444 62.404 4.73044 62.266 5.43844 62.266C6.14644 62.266 6.80044 62.404 7.40044 62.68C8.00044 62.944 8.51044 63.292 8.93044 63.724L8.12044 64.696C7.76044 64.348 7.35844 64.078 6.91444 63.886C6.48244 63.682 5.99044 63.58 5.43844 63.58C4.77844 63.58 4.24444 63.736 3.83644 64.048C3.44044 64.36 3.24244 64.78 3.24244 65.308C3.24244 65.68 3.33844 65.992 3.53044 66.244C3.73444 66.484 3.98644 66.682 4.28644 66.838C4.58644 66.994 4.89244 67.138 5.20444 67.27L6.87844 67.99C7.33444 68.182 7.74244 68.416 8.10244 68.692C8.47444 68.956 8.76844 69.286 8.98444 69.682C9.20044 70.066 9.30844 70.552 9.30844 71.14C9.30844 71.764 9.14644 72.334 8.82244 72.85C8.49844 73.354 8.03644 73.756 7.43644 74.056C6.83644 74.356 6.12244 74.506 5.29444 74.506ZM11.4897 74.29V65.542H12.9657V74.29H11.4897ZM12.2457 63.742C11.9577 63.742 11.7177 63.658 11.5257 63.49C11.3457 63.31 11.2557 63.07 11.2557 62.77C11.2557 62.482 11.3457 62.248 11.5257 62.068C11.7177 61.888 11.9577 61.798 12.2457 61.798C12.5337 61.798 12.7677 61.888 12.9477 62.068C13.1397 62.248 13.2357 62.482 13.2357 62.77C13.2357 63.07 13.1397 63.31 12.9477 63.49C12.7677 63.658 12.5337 63.742 12.2457 63.742ZM15.9194 74.29V65.542H17.1434L17.2694 66.802H17.3234C17.7074 66.382 18.1274 66.034 18.5834 65.758C19.0394 65.47 19.5254 65.326 20.0414 65.326C20.7134 65.326 21.2354 65.476 21.6074 65.776C21.9914 66.064 22.2734 66.472 22.4534 67C22.9094 66.508 23.3714 66.106 23.8394 65.794C24.3074 65.482 24.8054 65.326 25.3334 65.326C26.2334 65.326 26.8994 65.62 27.3314 66.208C27.7754 66.784 27.9974 67.63 27.9974 68.746V74.29H26.5214V68.944C26.5214 68.128 26.3894 67.534 26.1254 67.162C25.8614 66.79 25.4534 66.604 24.9014 66.604C24.2534 66.604 23.5214 67.054 22.7054 67.954V74.29H21.2294V68.944C21.2294 68.128 21.0974 67.534 20.8334 67.162C20.5694 66.79 20.1554 66.604 19.5914 66.604C18.9434 66.604 18.2114 67.054 17.3954 67.954V74.29H15.9194ZM30.8432 77.98V65.542H32.0672L32.1932 66.55H32.2472C32.6432 66.214 33.0752 65.926 33.5432 65.686C34.0232 65.446 34.5212 65.326 35.0372 65.326C36.1652 65.326 37.0232 65.734 37.6112 66.55C38.1992 67.354 38.4932 68.434 38.4932 69.79C38.4932 70.774 38.3132 71.62 37.9532 72.328C37.6052 73.036 37.1432 73.576 36.5672 73.948C36.0032 74.32 35.3852 74.506 34.7132 74.506C34.3052 74.506 33.8972 74.416 33.4892 74.236C33.0932 74.056 32.6912 73.81 32.2832 73.498L32.3192 75.028V77.98H30.8432ZM34.4612 73.264C35.1812 73.264 35.7752 72.958 36.2432 72.346C36.7232 71.722 36.9632 70.87 36.9632 69.79C36.9632 68.83 36.7832 68.056 36.4232 67.468C36.0752 66.868 35.4872 66.568 34.6592 66.568C34.2872 66.568 33.9092 66.67 33.5252 66.874C33.1532 67.078 32.7512 67.372 32.3192 67.756V72.346C32.7152 72.682 33.0992 72.922 33.4712 73.066C33.8432 73.198 34.1732 73.264 34.4612 73.264ZM42.3936 74.506C41.8416 74.506 41.4396 74.338 41.1876 74.002C40.9476 73.654 40.8276 73.162 40.8276 72.526V61.474H42.3036V72.634C42.3036 72.862 42.3456 73.03 42.4296 73.138C42.5136 73.234 42.6096 73.282 42.7176 73.282C42.7656 73.282 42.8076 73.282 42.8436 73.282C42.8916 73.27 42.9576 73.258 43.0416 73.246L43.2396 74.362C43.1436 74.41 43.0296 74.446 42.8976 74.47C42.7656 74.494 42.5976 74.506 42.3936 74.506ZM45.4155 74.29V65.542H46.8915V74.29H45.4155ZM46.1715 63.742C45.8835 63.742 45.6435 63.658 45.4515 63.49C45.2715 63.31 45.1815 63.07 45.1815 62.77C45.1815 62.482 45.2715 62.248 45.4515 62.068C45.6435 61.888 45.8835 61.798 46.1715 61.798C46.4595 61.798 46.6935 61.888 46.8735 62.068C47.0655 62.248 47.1615 62.482 47.1615 62.77C47.1615 63.07 47.0655 63.31 46.8735 63.49C46.6935 63.658 46.4595 63.742 46.1715 63.742ZM50.0971 74.29V66.748H48.9091V65.632L50.0971 65.542V64.156C50.0971 63.268 50.3011 62.566 50.7091 62.05C51.1291 61.522 51.7771 61.258 52.6531 61.258C52.9291 61.258 53.1931 61.288 53.4451 61.348C53.6971 61.396 53.9191 61.462 54.1111 61.546L53.7871 62.68C53.4631 62.536 53.1331 62.464 52.7971 62.464C51.9811 62.464 51.5731 63.028 51.5731 64.156V65.542H53.4271V66.748H51.5731V74.29H50.0971ZM55.101 74.29V65.542H56.577V74.29H55.101ZM55.857 63.742C55.569 63.742 55.329 63.658 55.137 63.49C54.957 63.31 54.867 63.07 54.867 62.77C54.867 62.482 54.957 62.248 55.137 62.068C55.329 61.888 55.569 61.798 55.857 61.798C56.145 61.798 56.379 61.888 56.559 62.068C56.751 62.248 56.847 62.482 56.847 62.77C56.847 63.07 56.751 63.31 56.559 63.49C56.379 63.658 56.145 63.742 55.857 63.742ZM63.0767 74.506C62.2967 74.506 61.5887 74.326 60.9527 73.966C60.3167 73.594 59.8127 73.066 59.4407 72.382C59.0687 71.698 58.8827 70.882 58.8827 69.934C58.8827 68.974 59.0687 68.152 59.4407 67.468C59.8247 66.784 60.3167 66.256 60.9167 65.884C61.5167 65.512 62.1467 65.326 62.8067 65.326C63.9227 65.326 64.7807 65.698 65.3807 66.442C65.9927 67.186 66.2987 68.182 66.2987 69.43C66.2987 69.586 66.2927 69.742 66.2807 69.898C66.2807 70.042 66.2687 70.168 66.2447 70.276H60.3407C60.4007 71.2 60.6887 71.938 61.2047 72.49C61.7327 73.042 62.4167 73.318 63.2567 73.318C63.6767 73.318 64.0607 73.258 64.4087 73.138C64.7687 73.006 65.1107 72.838 65.4347 72.634L65.9567 73.606C65.5847 73.846 65.1587 74.056 64.6787 74.236C64.2107 74.416 63.6767 74.506 63.0767 74.506ZM60.3227 69.214H65.0027C65.0027 68.326 64.8107 67.654 64.4267 67.198C64.0547 66.73 63.5267 66.496 62.8427 66.496C62.2307 66.496 61.6787 66.736 61.1867 67.216C60.7067 67.684 60.4187 68.35 60.3227 69.214ZM71.4484 74.506C70.3564 74.506 69.4804 74.11 68.8204 73.318C68.1604 72.514 67.8304 71.386 67.8304 69.934C67.8304 68.986 68.0044 68.17 68.3524 67.486C68.7124 66.79 69.1804 66.256 69.7564 65.884C70.3444 65.512 70.9684 65.326 71.6284 65.326C72.1324 65.326 72.5704 65.416 72.9424 65.596C73.3144 65.776 73.6924 66.022 74.0764 66.334L74.0044 64.84V61.474H75.4984V74.29H74.2744L74.1484 73.264H74.0944C73.7584 73.6 73.3624 73.894 72.9064 74.146C72.4504 74.386 71.9644 74.506 71.4484 74.506ZM71.7724 73.264C72.5404 73.264 73.2844 72.862 74.0044 72.058V67.486C73.6324 67.15 73.2724 66.916 72.9244 66.784C72.5884 66.64 72.2404 66.568 71.8804 66.568C71.4124 66.568 70.9864 66.712 70.6024 67C70.2304 67.276 69.9304 67.666 69.7024 68.17C69.4744 68.662 69.3604 69.244 69.3604 69.916C69.3604 70.96 69.5704 71.782 69.9904 72.382C70.4104 72.97 71.0044 73.264 71.7724 73.264ZM85.4683 74.506C84.6403 74.506 83.8723 74.35 83.1643 74.038C82.4563 73.714 81.8443 73.288 81.3283 72.76L82.2283 71.716C82.6483 72.16 83.1403 72.52 83.7043 72.796C84.2803 73.06 84.8743 73.192 85.4863 73.192C86.2663 73.192 86.8723 73.018 87.3043 72.67C87.7363 72.31 87.9523 71.842 87.9523 71.266C87.9523 70.858 87.8623 70.534 87.6823 70.294C87.5143 70.054 87.2803 69.85 86.9803 69.682C86.6923 69.514 86.3623 69.346 85.9903 69.178L84.2983 68.44C83.9263 68.284 83.5543 68.08 83.1823 67.828C82.8223 67.576 82.5163 67.252 82.2643 66.856C82.0243 66.46 81.9043 65.974 81.9043 65.398C81.9043 64.798 82.0603 64.264 82.3723 63.796C82.6963 63.316 83.1403 62.944 83.7043 62.68C84.2683 62.404 84.9043 62.266 85.6123 62.266C86.3203 62.266 86.9743 62.404 87.5743 62.68C88.1743 62.944 88.6843 63.292 89.1043 63.724L88.2943 64.696C87.9343 64.348 87.5323 64.078 87.0883 63.886C86.6563 63.682 86.1643 63.58 85.6123 63.58C84.9523 63.58 84.4183 63.736 84.0103 64.048C83.6143 64.36 83.4163 64.78 83.4163 65.308C83.4163 65.68 83.5123 65.992 83.7043 66.244C83.9083 66.484 84.1603 66.682 84.4603 66.838C84.7603 66.994 85.0663 67.138 85.3783 67.27L87.0523 67.99C87.5083 68.182 87.9163 68.416 88.2763 68.692C88.6483 68.956 88.9423 69.286 89.1583 69.682C89.3743 70.066 89.4823 70.552 89.4823 71.14C89.4823 71.764 89.3203 72.334 88.9963 72.85C88.6723 73.354 88.2103 73.756 87.6103 74.056C87.0103 74.356 86.2963 74.506 85.4683 74.506ZM95.1195 74.506C94.3515 74.506 93.6555 74.326 93.0315 73.966C92.4075 73.606 91.9155 73.084 91.5555 72.4C91.1955 71.716 91.0155 70.894 91.0155 69.934C91.0155 68.95 91.2075 68.116 91.5915 67.432C91.9875 66.748 92.5035 66.226 93.1395 65.866C93.7875 65.506 94.4835 65.326 95.2275 65.326C95.8035 65.326 96.2955 65.428 96.7035 65.632C97.1235 65.836 97.4835 66.076 97.7835 66.352L97.0275 67.324C96.7755 67.096 96.5055 66.91 96.2175 66.766C95.9415 66.622 95.6295 66.55 95.2815 66.55C94.7535 66.55 94.2795 66.694 93.8595 66.982C93.4515 67.258 93.1275 67.654 92.8875 68.17C92.6595 68.674 92.5455 69.262 92.5455 69.934C92.5455 70.93 92.7915 71.74 93.2835 72.364C93.7875 72.976 94.4415 73.282 95.2455 73.282C95.6535 73.282 96.0315 73.198 96.3795 73.03C96.7275 72.85 97.0335 72.64 97.2975 72.4L97.9455 73.39C97.5495 73.738 97.1115 74.014 96.6315 74.218C96.1515 74.41 95.6475 74.506 95.1195 74.506ZM99.8725 74.29V61.474H101.348V64.966L101.294 66.766C101.714 66.37 102.152 66.034 102.608 65.758C103.076 65.47 103.61 65.326 104.21 65.326C105.134 65.326 105.806 65.62 106.226 66.208C106.658 66.784 106.874 67.63 106.874 68.746V74.29H105.398V68.944C105.398 68.128 105.266 67.534 105.002 67.162C104.738 66.79 104.318 66.604 103.742 66.604C103.298 66.604 102.896 66.718 102.536 66.946C102.188 67.174 101.792 67.51 101.348 67.954V74.29H99.8725ZM113.21 74.506C112.43 74.506 111.722 74.326 111.086 73.966C110.45 73.594 109.946 73.066 109.574 72.382C109.202 71.698 109.016 70.882 109.016 69.934C109.016 68.974 109.202 68.152 109.574 67.468C109.958 66.784 110.45 66.256 111.05 65.884C111.65 65.512 112.28 65.326 112.939 65.326C114.056 65.326 114.914 65.698 115.514 66.442C116.126 67.186 116.432 68.182 116.432 69.43C116.432 69.586 116.426 69.742 116.414 69.898C116.414 70.042 116.402 70.168 116.378 70.276H110.474C110.534 71.2 110.822 71.938 111.338 72.49C111.866 73.042 112.55 73.318 113.39 73.318C113.81 73.318 114.194 73.258 114.542 73.138C114.902 73.006 115.244 72.838 115.568 72.634L116.09 73.606C115.718 73.846 115.292 74.056 114.812 74.236C114.344 74.416 113.81 74.506 113.21 74.506ZM110.456 69.214H115.136C115.136 68.326 114.944 67.654 114.56 67.198C114.188 66.73 113.66 66.496 112.976 66.496C112.364 66.496 111.812 66.736 111.32 67.216C110.84 67.684 110.552 68.35 110.456 69.214ZM121.581 74.506C120.489 74.506 119.613 74.11 118.953 73.318C118.293 72.514 117.963 71.386 117.963 69.934C117.963 68.986 118.137 68.17 118.485 67.486C118.845 66.79 119.313 66.256 119.889 65.884C120.477 65.512 121.101 65.326 121.761 65.326C122.265 65.326 122.703 65.416 123.075 65.596C123.447 65.776 123.825 66.022 124.209 66.334L124.137 64.84V61.474H125.631V74.29H124.407L124.281 73.264H124.227C123.891 73.6 123.495 73.894 123.039 74.146C122.583 74.386 122.097 74.506 121.581 74.506ZM121.905 73.264C122.673 73.264 123.417 72.862 124.137 72.058V67.486C123.765 67.15 123.405 66.916 123.057 66.784C122.721 66.64 122.373 66.568 122.013 66.568C121.545 66.568 121.119 66.712 120.735 67C120.363 67.276 120.063 67.666 119.835 68.17C119.607 68.662 119.493 69.244 119.493 69.916C119.493 70.96 119.703 71.782 120.123 72.382C120.543 72.97 121.137 73.264 121.905 73.264ZM131.134 74.506C130.21 74.506 129.532 74.218 129.1 73.642C128.668 73.054 128.452 72.202 128.452 71.086V65.542H129.946V70.888C129.946 71.704 130.072 72.298 130.324 72.67C130.588 73.042 131.008 73.228 131.584 73.228C132.04 73.228 132.442 73.114 132.79 72.886C133.15 72.646 133.534 72.268 133.942 71.752V65.542H135.418V74.29H134.194L134.068 72.922H134.014C133.606 73.402 133.174 73.786 132.718 74.074C132.262 74.362 131.734 74.506 131.134 74.506ZM139.935 74.506C139.383 74.506 138.981 74.338 138.729 74.002C138.489 73.654 138.369 73.162 138.369 72.526V61.474H139.845V72.634C139.845 72.862 139.887 73.03 139.971 73.138C140.055 73.234 140.151 73.282 140.259 73.282C140.307 73.282 140.349 73.282 140.385 73.282C140.433 73.27 140.499 73.258 140.583 73.246L140.781 74.362C140.685 74.41 140.571 74.446 140.439 74.47C140.307 74.494 140.139 74.506 139.935 74.506ZM142.956 74.29V65.542H144.432V74.29H142.956ZM143.712 63.742C143.424 63.742 143.184 63.658 142.992 63.49C142.812 63.31 142.722 63.07 142.722 62.77C142.722 62.482 142.812 62.248 142.992 62.068C143.184 61.888 143.424 61.798 143.712 61.798C144 61.798 144.234 61.888 144.414 62.068C144.606 62.248 144.702 62.482 144.702 62.77C144.702 63.07 144.606 63.31 144.414 63.49C144.234 63.658 144 63.742 143.712 63.742ZM147.386 74.29V65.542H148.61L148.736 66.802H148.79C149.21 66.382 149.654 66.034 150.122 65.758C150.59 65.47 151.124 65.326 151.724 65.326C152.648 65.326 153.32 65.62 153.74 66.208C154.172 66.784 154.388 67.63 154.388 68.746V74.29H152.912V68.944C152.912 68.128 152.78 67.534 152.516 67.162C152.252 66.79 151.832 66.604 151.256 66.604C150.812 66.604 150.41 66.718 150.05 66.946C149.702 67.174 149.306 67.51 148.862 67.954V74.29H147.386ZM160.182 78.322C159.114 78.322 158.244 78.118 157.572 77.71C156.9 77.302 156.564 76.72 156.564 75.964C156.564 75.592 156.678 75.232 156.906 74.884C157.134 74.548 157.446 74.248 157.842 73.984V73.912C157.626 73.78 157.44 73.594 157.284 73.354C157.14 73.114 157.068 72.826 157.068 72.49C157.068 72.118 157.17 71.794 157.374 71.518C157.578 71.242 157.794 71.026 158.022 70.87V70.798C157.734 70.558 157.47 70.234 157.23 69.826C157.002 69.418 156.888 68.956 156.888 68.44C156.888 67.804 157.038 67.252 157.338 66.784C157.638 66.316 158.04 65.956 158.544 65.704C159.048 65.452 159.594 65.326 160.182 65.326C160.422 65.326 160.65 65.35 160.866 65.398C161.082 65.434 161.268 65.482 161.424 65.542H164.466V66.676H162.666C162.87 66.868 163.038 67.126 163.17 67.45C163.314 67.762 163.386 68.104 163.386 68.476C163.386 69.1 163.242 69.64 162.954 70.096C162.666 70.552 162.282 70.906 161.802 71.158C161.322 71.398 160.782 71.518 160.182 71.518C159.714 71.518 159.276 71.416 158.868 71.212C158.712 71.344 158.58 71.494 158.472 71.662C158.364 71.818 158.31 72.016 158.31 72.256C158.31 72.532 158.418 72.76 158.634 72.94C158.862 73.12 159.27 73.21 159.858 73.21H161.55C162.57 73.21 163.332 73.378 163.836 73.714C164.352 74.038 164.61 74.566 164.61 75.298C164.61 75.838 164.43 76.336 164.07 76.792C163.71 77.248 163.2 77.614 162.54 77.89C161.88 78.178 161.094 78.322 160.182 78.322ZM160.182 70.528C160.686 70.528 161.118 70.342 161.478 69.97C161.85 69.586 162.036 69.076 162.036 68.44C162.036 67.804 161.856 67.306 161.496 66.946C161.136 66.586 160.698 66.406 160.182 66.406C159.666 66.406 159.228 66.586 158.868 66.946C158.508 67.306 158.328 67.804 158.328 68.44C158.328 69.076 158.508 69.586 158.868 69.97C159.24 70.342 159.678 70.528 160.182 70.528ZM160.398 77.296C161.238 77.296 161.91 77.11 162.414 76.738C162.918 76.378 163.17 75.97 163.17 75.514C163.17 75.106 163.014 74.824 162.702 74.668C162.402 74.512 161.97 74.434 161.406 74.434H159.894C159.726 74.434 159.54 74.422 159.336 74.398C159.144 74.374 158.952 74.338 158.76 74.29C158.448 74.518 158.22 74.758 158.076 75.01C157.932 75.262 157.86 75.514 157.86 75.766C157.86 76.234 158.082 76.606 158.526 76.882C158.982 77.158 159.606 77.296 160.398 77.296ZM170.156 74.29V66.748H168.968V65.632L170.156 65.542V64.156C170.156 63.268 170.36 62.566 170.768 62.05C171.188 61.522 171.836 61.258 172.712 61.258C172.988 61.258 173.252 61.288 173.504 61.348C173.756 61.396 173.978 61.462 174.17 61.546L173.846 62.68C173.522 62.536 173.192 62.464 172.856 62.464C172.04 62.464 171.632 63.028 171.632 64.156V65.542H173.486V66.748H171.632V74.29H170.156ZM178.386 74.506C177.678 74.506 177.012 74.326 176.388 73.966C175.776 73.606 175.278 73.084 174.894 72.4C174.522 71.716 174.336 70.894 174.336 69.934C174.336 68.95 174.522 68.116 174.894 67.432C175.278 66.748 175.776 66.226 176.388 65.866C177.012 65.506 177.678 65.326 178.386 65.326C179.106 65.326 179.772 65.506 180.384 65.866C180.996 66.226 181.488 66.748 181.86 67.432C182.244 68.116 182.436 68.95 182.436 69.934C182.436 70.894 182.244 71.716 181.86 72.4C181.488 73.084 180.996 73.606 180.384 73.966C179.772 74.326 179.106 74.506 178.386 74.506ZM178.386 73.282C179.142 73.282 179.748 72.976 180.204 72.364C180.672 71.74 180.906 70.93 180.906 69.934C180.906 68.926 180.672 68.11 180.204 67.486C179.748 66.862 179.142 66.55 178.386 66.55C177.642 66.55 177.036 66.862 176.568 67.486C176.1 68.11 175.866 68.926 175.866 69.934C175.866 70.93 176.1 71.74 176.568 72.364C177.036 72.976 177.642 73.282 178.386 73.282ZM184.74 74.29V65.542H185.964L186.09 67.126H186.144C186.444 66.574 186.81 66.136 187.242 65.812C187.674 65.488 188.136 65.326 188.628 65.326C188.976 65.326 189.288 65.386 189.564 65.506L189.276 66.802C189.132 66.754 189 66.718 188.88 66.694C188.76 66.67 188.61 66.658 188.43 66.658C188.058 66.658 187.668 66.808 187.26 67.108C186.864 67.408 186.516 67.93 186.216 68.674V74.29H184.74ZM198.129 74.506C197.349 74.506 196.641 74.326 196.005 73.966C195.369 73.594 194.865 73.066 194.493 72.382C194.121 71.698 193.935 70.882 193.935 69.934C193.935 68.974 194.121 68.152 194.493 67.468C194.877 66.784 195.369 66.256 195.969 65.884C196.569 65.512 197.199 65.326 197.859 65.326C198.975 65.326 199.833 65.698 200.433 66.442C201.045 67.186 201.351 68.182 201.351 69.43C201.351 69.586 201.345 69.742 201.333 69.898C201.333 70.042 201.321 70.168 201.297 70.276H195.393C195.453 71.2 195.741 71.938 196.257 72.49C196.785 73.042 197.469 73.318 198.309 73.318C198.729 73.318 199.113 73.258 199.461 73.138C199.821 73.006 200.163 72.838 200.487 72.634L201.009 73.606C200.637 73.846 200.211 74.056 199.731 74.236C199.263 74.416 198.729 74.506 198.129 74.506ZM195.375 69.214H200.055C200.055 68.326 199.863 67.654 199.479 67.198C199.107 66.73 198.579 66.496 197.895 66.496C197.283 66.496 196.731 66.736 196.239 67.216C195.759 67.684 195.471 68.35 195.375 69.214ZM205.491 74.29L202.341 65.542H203.871L205.527 70.51C205.659 70.942 205.791 71.374 205.923 71.806C206.067 72.238 206.205 72.664 206.337 73.084H206.409C206.541 72.664 206.673 72.238 206.805 71.806C206.949 71.374 207.081 70.942 207.201 70.51L208.857 65.542H210.315L207.219 74.29H205.491ZM215.479 74.506C214.699 74.506 213.991 74.326 213.355 73.966C212.719 73.594 212.215 73.066 211.843 72.382C211.471 71.698 211.285 70.882 211.285 69.934C211.285 68.974 211.471 68.152 211.843 67.468C212.227 66.784 212.719 66.256 213.319 65.884C213.919 65.512 214.549 65.326 215.209 65.326C216.325 65.326 217.183 65.698 217.783 66.442C218.395 67.186 218.701 68.182 218.701 69.43C218.701 69.586 218.695 69.742 218.683 69.898C218.683 70.042 218.671 70.168 218.647 70.276H212.743C212.803 71.2 213.091 71.938 213.607 72.49C214.135 73.042 214.819 73.318 215.659 73.318C216.079 73.318 216.463 73.258 216.811 73.138C217.171 73.006 217.513 72.838 217.837 72.634L218.359 73.606C217.987 73.846 217.561 74.056 217.081 74.236C216.613 74.416 216.079 74.506 215.479 74.506ZM212.725 69.214H217.405C217.405 68.326 217.213 67.654 216.829 67.198C216.457 66.73 215.929 66.496 215.245 66.496C214.633 66.496 214.081 66.736 213.589 67.216C213.109 67.684 212.821 68.35 212.725 69.214ZM220.863 74.29V65.542H222.087L222.213 67.126H222.267C222.567 66.574 222.933 66.136 223.365 65.812C223.797 65.488 224.259 65.326 224.751 65.326C225.099 65.326 225.411 65.386 225.687 65.506L225.399 66.802C225.255 66.754 225.123 66.718 225.003 66.694C224.883 66.67 224.733 66.658 224.553 66.658C224.181 66.658 223.791 66.808 223.383 67.108C222.987 67.408 222.639 67.93 222.339 68.674V74.29H220.863ZM227.704 78.052C227.512 78.052 227.326 78.034 227.146 77.998C226.978 77.962 226.822 77.92 226.678 77.872L226.966 76.702C227.062 76.726 227.17 76.75 227.29 76.774C227.41 76.81 227.524 76.828 227.632 76.828C228.124 76.828 228.532 76.648 228.856 76.288C229.18 75.94 229.432 75.496 229.612 74.956L229.81 74.308L226.3 65.542H227.83L229.612 70.384C229.744 70.756 229.882 71.158 230.026 71.59C230.182 72.022 230.326 72.442 230.458 72.85H230.53C230.662 72.454 230.788 72.04 230.908 71.608C231.028 71.176 231.148 70.768 231.268 70.384L232.834 65.542H234.274L230.98 75.01C230.776 75.586 230.53 76.102 230.242 76.558C229.966 77.014 229.618 77.374 229.198 77.638C228.79 77.914 228.292 78.052 227.704 78.052ZM239.294 74.506C238.586 74.506 237.92 74.326 237.296 73.966C236.684 73.606 236.186 73.084 235.802 72.4C235.43 71.716 235.244 70.894 235.244 69.934C235.244 68.95 235.43 68.116 235.802 67.432C236.186 66.748 236.684 66.226 237.296 65.866C237.92 65.506 238.586 65.326 239.294 65.326C240.014 65.326 240.68 65.506 241.292 65.866C241.904 66.226 242.396 66.748 242.768 67.432C243.152 68.116 243.344 68.95 243.344 69.934C243.344 70.894 243.152 71.716 242.768 72.4C242.396 73.084 241.904 73.606 241.292 73.966C240.68 74.326 240.014 74.506 239.294 74.506ZM239.294 73.282C240.05 73.282 240.656 72.976 241.112 72.364C241.58 71.74 241.814 70.93 241.814 69.934C241.814 68.926 241.58 68.11 241.112 67.486C240.656 66.862 240.05 66.55 239.294 66.55C238.55 66.55 237.944 66.862 237.476 67.486C237.008 68.11 236.774 68.926 236.774 69.934C236.774 70.93 237.008 71.74 237.476 72.364C237.944 72.976 238.55 73.282 239.294 73.282ZM245.648 74.29V65.542H246.872L246.998 66.802H247.052C247.472 66.382 247.916 66.034 248.384 65.758C248.852 65.47 249.386 65.326 249.986 65.326C250.91 65.326 251.582 65.62 252.002 66.208C252.434 66.784 252.65 67.63 252.65 68.746V74.29H251.174V68.944C251.174 68.128 251.042 67.534 250.778 67.162C250.514 66.79 250.094 66.604 249.518 66.604C249.074 66.604 248.672 66.718 248.312 66.946C247.964 67.174 247.568 67.51 247.124 67.954V74.29H245.648ZM259.038 74.506C258.258 74.506 257.55 74.326 256.914 73.966C256.278 73.594 255.774 73.066 255.402 72.382C255.03 71.698 254.844 70.882 254.844 69.934C254.844 68.974 255.03 68.152 255.402 67.468C255.786 66.784 256.278 66.256 256.878 65.884C257.478 65.512 258.108 65.326 258.768 65.326C259.884 65.326 260.742 65.698 261.342 66.442C261.954 67.186 262.26 68.182 262.26 69.43C262.26 69.586 262.254 69.742 262.242 69.898C262.242 70.042 262.23 70.168 262.206 70.276H256.302C256.362 71.2 256.65 71.938 257.166 72.49C257.694 73.042 258.378 73.318 259.218 73.318C259.638 73.318 260.022 73.258 260.37 73.138C260.73 73.006 261.072 72.838 261.396 72.634L261.918 73.606C261.546 73.846 261.12 74.056 260.64 74.236C260.172 74.416 259.638 74.506 259.038 74.506ZM256.284 69.214H260.964C260.964 68.326 260.772 67.654 260.388 67.198C260.016 66.73 259.488 66.496 258.804 66.496C258.192 66.496 257.64 66.736 257.148 67.216C256.668 67.684 256.38 68.35 256.284 69.214Z" fill="#5F5F5F"/>
</svg>
