<svg xmlns="http://www.w3.org/2000/svg" width="20.066" height="20.09" viewBox="0 0 22.066 22.09">
  <g id="resend-email" transform="translate(-1.126 511.821)">
    <path id="Path_172" data-name="Path 172" d="M11.333-511.8c-.069.009-.315.039-.54.065a11.054,11.054,0,0,0-6.5,3.226,11.048,11.048,0,0,0-1.334,13.827,10.967,10.967,0,0,0,2.323,2.548,3.886,3.886,0,0,1,.462.393c0,.017-.073.043-.16.06a3.66,3.66,0,0,0-1.127.337.672.672,0,0,0,.086,1.071.578.578,0,0,0,.4.069c.332-.03,2.811-.6,2.988-.691a.639.639,0,0,0,.315-.54c0-.16-.479-2.371-.626-2.885a.7.7,0,0,0-.535-.514.691.691,0,0,0-.76.561,7.834,7.834,0,0,0,.268,1.382c.026.082.022.082-.1,0a10.1,10.1,0,0,1-1.753-1.619A9.751,9.751,0,0,1,2.792-503.3,9.669,9.669,0,0,1,6.3-508.508a9.655,9.655,0,0,1,4.534-1.9,13.159,13.159,0,0,1,1.542-.056c1.153,0,1.222,0,1.334-.086a.678.678,0,0,0-.069-1.123,2.383,2.383,0,0,0-.527-.108A15.526,15.526,0,0,0,11.333-511.8Z" transform="translate(0)" fill="#000"/>
    <path id="Path_173" data-name="Path 173" d="M223.2-503.606l-1.4.324c-.531.125-.6.151-.743.294-.263.268-.263.307.112,1.939.181.8.363,1.511.406,1.585a.753.753,0,0,0,.276.229.575.575,0,0,0,.734-.117c.238-.237.246-.38.082-1.118a5.781,5.781,0,0,1-.125-.635,8.215,8.215,0,0,1,1.166.928,9.781,9.781,0,0,1,3.057,7.082,9.733,9.733,0,0,1-5.346,8.679,9.406,9.406,0,0,1-4.845,1.019l-.885-.026-.155.1a.665.665,0,0,0,.052,1.127,9.225,9.225,0,0,0,3,.047,11.124,11.124,0,0,0,5.152-2.15,13.871,13.871,0,0,0,1.913-1.861,10.924,10.924,0,0,0,2.332-5.32,15.039,15.039,0,0,0,0-3.239,11.048,11.048,0,0,0-4.288-7.216c-.3-.229-.4-.32-.345-.337.039-.009.307-.073.592-.134.734-.164.946-.337.946-.764a.608.608,0,0,0-.32-.544C224.359-503.843,224.16-503.83,223.2-503.606Z" transform="translate(-204.873 -7.679)" fill="#000"/>
    <path id="Path_174" data-name="Path 174" d="M109.294-359.9c-.315.212-.3-.065-.3,4.392s-.017,4.18.3,4.391l.147.1H121.4l.147-.091a.787.787,0,0,0,.229-.259c.082-.16.086-.272.086-4.15V-359.5l-.1-.168a.745.745,0,0,0-.246-.246c-.142-.078-.389-.082-6.114-.082h-5.963Zm10.143,1.231c0,.022-.911.855-2.012,1.857l-2,1.818-1.995-1.814c-1.1-1-2-1.835-2.008-1.857s1.654-.039,4.007-.039C117.641-358.7,119.446-358.687,119.437-358.67Zm-6.741,2.992c1.278,1.166,2.392,2.15,2.474,2.185a.69.69,0,0,0,.656-.086c.078-.056,1.157-1.032,2.4-2.163S120.5-357.8,120.5-357.8s.022,1.235.022,2.742v2.742H110.335v-2.742c0-1.507.009-2.742.017-2.742S111.414-356.843,112.7-355.678Z" transform="translate(-103.212 -145.265)" fill="#000"/>
  </g>
</svg>
