<svg xmlns="http://www.w3.org/2000/svg" width="20.013" height="20.864" viewBox="0 0 14.013 16.864">
  <g id="sales" transform="translate(0 449.05)">
    <path id="Path_565" data-name="Path 565" d="M0-440.767v8.281l.149.149.149.149H.933c.617,0,.639,0,.771-.114a.435.435,0,0,0,.158-.271c.048-.272.114-.4.245-.469.315-.166.622.009.692.394a.473.473,0,0,0,.946,0,.762.762,0,0,1,.131-.324c.088-.1.136-.118.328-.118s.241.018.328.118a.762.762,0,0,1,.131.324.473.473,0,0,0,.946,0c.07-.385.377-.561.692-.394.131.066.2.2.245.469a.468.468,0,0,0,.92,0c.048-.272.114-.4.245-.469.315-.166.622.009.692.394a.473.473,0,0,0,.946,0,.762.762,0,0,1,.131-.324c.088-.1.136-.118.328-.118s.241.018.328.118a.762.762,0,0,1,.131.324.473.473,0,0,0,.946,0c.07-.385.377-.561.692-.394.131.066.2.2.245.469a.435.435,0,0,0,.158.271c.131.109.153.114.771.114h.635l.149-.149.149-.149v-16.561h-.784c-.779,0-.788,0-.92.114a.435.435,0,0,0-.158.271c-.048.272-.114.4-.245.469-.315.166-.622-.009-.692-.394a.473.473,0,0,0-.946,0,.761.761,0,0,1-.131.324c-.088.1-.136.118-.328.118s-.241-.018-.328-.118a.761.761,0,0,1-.131-.324.473.473,0,0,0-.946,0c-.07.385-.377.561-.692.394-.131-.066-.2-.2-.245-.469a.468.468,0,0,0-.92,0c-.048.272-.114.4-.245.469-.315.166-.622-.009-.692-.394a.473.473,0,0,0-.946,0,.761.761,0,0,1-.131.324c-.088.1-.136.118-.328.118s-.241-.018-.328-.118a.761.761,0,0,1-.131-.324.473.473,0,0,0-.946,0c-.07.385-.377.561-.692.394-.131-.066-.2-.2-.245-.469a.435.435,0,0,0-.158-.271c-.131-.114-.14-.114-.92-.114H0Zm1.2-6.993a1.393,1.393,0,0,0,1.252.578,1.307,1.307,0,0,0,.666-.236c.158-.1.175-.1.25-.031a1.6,1.6,0,0,0,1.664,0c.074-.066.1-.061.328.07a1.555,1.555,0,0,0,1.48-.031l.162-.105.166.105a1.435,1.435,0,0,0,.9.193,1.113,1.113,0,0,0,.574-.162c.232-.131.254-.136.328-.07a1.6,1.6,0,0,0,1.664,0c.074-.066.092-.066.25.031a1.256,1.256,0,0,0,.8.232,1.376,1.376,0,0,0,1.217-.718l.118-.2.013,3.731c0,2.049,0,5.421,0,7.488l-.013,3.757-.118-.2a1.377,1.377,0,0,0-1.217-.718,1.256,1.256,0,0,0-.8.232c-.158.1-.175.1-.25.031a1.6,1.6,0,0,0-1.664,0c-.074.066-.1.061-.328-.07a1.561,1.561,0,0,0-1.52.057c-.123.083-.123.083-.245,0a1.561,1.561,0,0,0-1.52-.057c-.232.131-.254.136-.328.07a1.6,1.6,0,0,0-1.664,0c-.074.066-.092.066-.25-.031a1.307,1.307,0,0,0-.666-.237,1.487,1.487,0,0,0-1.436.841c-.039.066-.053-1.594-.053-7.4s.013-7.471.053-7.4Z" transform="translate(0 0)" fill="#000"/>
    <path id="Path_566" data-name="Path 566" d="M42.878-384.9a.462.462,0,0,0,.1.784,7.283,7.283,0,0,0,2.058.079,7.283,7.283,0,0,0,2.058-.079.468.468,0,0,0,.092-.8C47.064-385,47-385,45.028-385H43Z" transform="translate(-40.833 -61.245)" fill="#000"/>
    <path id="Path_567" data-name="Path 567" d="M42.878-319.9a.466.466,0,0,0,.1.788,10.661,10.661,0,0,0,2.6.066l2.448-.013.153-.171c.14-.149.153-.188.131-.35a.461.461,0,0,0-.162-.3L48.014-320H43Z" transform="translate(-40.833 -123.399)" fill="#000"/>
    <path id="Path_568" data-name="Path 568" d="M172.623-319.873c-.136.123-.145.145-.158.482l-.018.355-.184.044a2.486,2.486,0,0,0-.8.346,1.678,1.678,0,0,0-.718,2.128,2.279,2.279,0,0,0,1.384,1.012l.307.1.013.946.009.941-.175-.061c-.4-.145-.744-.5-.744-.793a.492.492,0,0,0-.543-.394.653.653,0,0,0-.267.158.371.371,0,0,0-.118.342,1.991,1.991,0,0,0,1.572,1.655l.267.074.018.346c.013.328.022.355.158.477a.444.444,0,0,0,.631,0c.136-.123.145-.149.158-.477l.018-.35.271-.074a1.834,1.834,0,0,0,1.432-2.452,2.279,2.279,0,0,0-1.384-1.012l-.307-.1-.013-.946-.009-.941.175.061c.4.145.744.5.744.793a.492.492,0,0,0,.543.394.653.653,0,0,0,.267-.158.371.371,0,0,0,.118-.342,1.991,1.991,0,0,0-1.572-1.655l-.267-.074-.018-.346c-.013-.328-.022-.355-.158-.477a.407.407,0,0,0-.315-.127A.407.407,0,0,0,172.623-319.873Zm-.166,2.632c0,.635-.013.832-.053.832a1.574,1.574,0,0,1-.32-.127c-.438-.206-.617-.512-.5-.854a1.417,1.417,0,0,1,.867-.679S172.456-317.7,172.456-317.241Zm1.336,2.185c.438.206.617.512.5.854a1.346,1.346,0,0,1-.67.6l-.206.074v-.828c0-.635.013-.832.057-.832A1.687,1.687,0,0,1,173.792-315.056Z" transform="translate(-163.129 -123.399)" fill="#000"/>
    <path id="Path_569" data-name="Path 569" d="M42.878-255.9a.462.462,0,0,0,.1.784,7.281,7.281,0,0,0,2.058.079,7.281,7.281,0,0,0,2.058-.079.468.468,0,0,0,.092-.8C47.064-256,47-256,45.028-256H43Z" transform="translate(-40.833 -184.596)" fill="#000"/>
    <path id="Path_570" data-name="Path 570" d="M42.878-191.9a.462.462,0,0,0,.1.784,7.281,7.281,0,0,0,2.058.079,7.281,7.281,0,0,0,2.058-.079.468.468,0,0,0,.092-.8C47.064-192,47-192,45.028-192H43Z" transform="translate(-40.833 -245.794)" fill="#000"/>
  </g>
</svg>
