<svg width="25" height="25" viewBox="0 0 25 25" fill="none" xmlns="http://www.w3.org/2000/svg">
<g clip-path="url(#clip0_60_989)">
<path d="M17.6109 18.7157L23.6609 24.7672C23.7335 24.84 23.8197 24.8977 23.9146 24.9371C24.0095 24.9765 24.1113 24.9968 24.2141 24.9968C24.3168 24.9968 24.4186 24.9765 24.5135 24.9371C24.6084 24.8977 24.6946 24.84 24.7672 24.7672C24.8399 24.6947 24.8977 24.6085 24.9371 24.5135C24.9764 24.4186 24.9967 24.3169 24.9967 24.2141C24.9967 24.1113 24.9764 24.0096 24.9371 23.9147C24.8977 23.8198 24.8399 23.7336 24.7672 23.661L19.1969 18.0922C22.9156 13.8 22.7391 7.27505 18.6625 3.19849C14.3969 -1.06714 7.45937 -1.06714 3.19687 3.19849C-1.06562 7.46411 -1.06562 14.4016 3.19687 18.6672C4.21035 19.6854 5.41552 20.4928 6.74278 21.0425C8.07004 21.5923 9.49307 21.8737 10.9297 21.8704C11.1369 21.8704 11.3356 21.788 11.4821 21.6415C11.6286 21.495 11.7109 21.2963 11.7109 21.0891C11.7109 20.8819 11.6286 20.6832 11.4821 20.5367C11.3356 20.3902 11.1369 20.3079 10.9297 20.3079C9.69825 20.3112 8.47836 20.0703 7.34065 19.5991C6.20293 19.1279 5.16997 18.4357 4.30156 17.5625C2.54689 15.8023 1.56158 13.4183 1.56158 10.9329C1.56158 8.44745 2.54689 6.0634 4.30156 4.30317C6.06045 2.54716 8.44428 1.56089 10.9297 1.56089C13.4151 1.56089 15.7989 2.54716 17.5578 4.30317C19.3125 6.0634 20.2978 8.44745 20.2978 10.9329C20.2978 13.4183 19.3125 15.8023 17.5578 17.5625C17.481 17.6394 17.4211 17.7314 17.3818 17.8327C17.3426 17.934 17.3249 18.0423 17.3299 18.1508C17.3349 18.2593 17.3625 18.3656 17.4109 18.4629C17.4593 18.5601 17.5274 18.6462 17.6109 18.7157Z" fill="black" fill-opacity="0.5"/>
</g>
<defs>
<clipPath id="clip0_60_989">
<rect width="25" height="25" fill="white"/>
</clipPath>
</defs>
</svg>
