<svg width="24.441" height="24.268" viewBox="0 0 14 15" fill="none" xmlns="http://www.w3.org/2000/svg">
<path d="M11.001 4.99956C12.1054 4.99956 13.0008 4.10423 13.0008 2.99978C13.0008 1.89533 12.1054 1 11.001 1C9.89655 1 9.00122 1.89533 9.00122 2.99978C9.00122 4.10423 9.89655 4.99956 11.001 4.99956Z" stroke="#222222" stroke-linecap="round" stroke-linejoin="round"/>
<path d="M2.99978 9.66606C4.10423 9.66606 4.99956 8.77073 4.99956 7.66628C4.99956 6.56184 4.10423 5.6665 2.99978 5.6665C1.89533 5.6665 1 6.56184 1 7.66628C1 8.77073 1.89533 9.66606 2.99978 9.66606Z" stroke="#222222" stroke-linecap="round" stroke-linejoin="round"/>
<path d="M11.001 14.3306C12.1054 14.3306 13.0008 13.4353 13.0008 12.3308C13.0008 11.2264 12.1054 10.3311 11.001 10.3311C9.89655 10.3311 9.00122 11.2264 9.00122 12.3308C9.00122 13.4353 9.89655 14.3306 11.001 14.3306Z" stroke="#222222" stroke-linecap="round" stroke-linejoin="round"/>
<path d="M4.72681 8.67285L9.27964 11.3259" stroke="#222222" stroke-linecap="round" stroke-linejoin="round"/>
<path d="M9.27297 4.00635L4.72681 6.65939" stroke="#222222" stroke-linecap="round" stroke-linejoin="round"/>
</svg>
